%TF.GenerationSoftware,KiCad,Pcbnew,(5.1.10-1-10_14)*%
%TF.CreationDate,2021-09-17T20:59:11-04:00*%
%TF.ProjectId,KilnHat,4b696c6e-4861-4742-9e6b-696361645f70,rev?*%
%TF.SameCoordinates,Original*%
%TF.FileFunction,Copper,L2,Bot*%
%TF.FilePolarity,Positive*%
%FSLAX46Y46*%
G04 Gerber Fmt 4.6, Leading zero omitted, Abs format (unit mm)*
G04 Created by KiCad (PCBNEW (5.1.10-1-10_14)) date 2021-09-17 20:59:11*
%MOMM*%
%LPD*%
G01*
G04 APERTURE LIST*
%TA.AperFunction,ComponentPad*%
%ADD10C,5.600000*%
%TD*%
%TA.AperFunction,ComponentPad*%
%ADD11O,1.700000X1.700000*%
%TD*%
%TA.AperFunction,ComponentPad*%
%ADD12R,1.700000X1.700000*%
%TD*%
%TA.AperFunction,ComponentPad*%
%ADD13O,1.950000X1.700000*%
%TD*%
%TA.AperFunction,ComponentPad*%
%ADD14C,3.000000*%
%TD*%
%TA.AperFunction,ComponentPad*%
%ADD15R,3.000000X3.000000*%
%TD*%
%TA.AperFunction,ViaPad*%
%ADD16C,0.800000*%
%TD*%
%TA.AperFunction,ViaPad*%
%ADD17C,1.600000*%
%TD*%
%TA.AperFunction,Conductor*%
%ADD18C,0.250000*%
%TD*%
%TA.AperFunction,Conductor*%
%ADD19C,1.000000*%
%TD*%
%TA.AperFunction,Conductor*%
%ADD20C,0.500000*%
%TD*%
%TA.AperFunction,Conductor*%
%ADD21C,0.254000*%
%TD*%
%TA.AperFunction,Conductor*%
%ADD22C,0.100000*%
%TD*%
G04 APERTURE END LIST*
D10*
%TO.P,REF\u002A\u002A,1*%
%TO.N,N/C*%
X138500000Y-136500000D03*
%TD*%
%TO.P,REF\u002A\u002A,1*%
%TO.N,N/C*%
X138500000Y-117500000D03*
%TD*%
%TO.P,REF\u002A\u002A,1*%
%TO.N,N/C*%
X138500000Y-94500000D03*
%TD*%
%TO.P,REF\u002A\u002A,1*%
%TO.N,N/C*%
X196500000Y-136500000D03*
%TD*%
%TO.P,REF\u002A\u002A,1*%
%TO.N,N/C*%
X196500000Y-117500000D03*
%TD*%
%TO.P,REF\u002A\u002A,1*%
%TO.N,N/C*%
X196500000Y-94500000D03*
%TD*%
D11*
%TO.P,J2,40*%
%TO.N,D1_DAT*%
X191630000Y-93250000D03*
%TO.P,J2,39*%
%TO.N,GND*%
X191630000Y-95790000D03*
%TO.P,J2,38*%
%TO.N,D1_CLK*%
X189090000Y-93250000D03*
%TO.P,J2,37*%
%TO.N,D2_DAT*%
X189090000Y-95790000D03*
%TO.P,J2,36*%
%TO.N,D2_CLK*%
X186550000Y-93250000D03*
%TO.P,J2,35*%
%TO.N,DOT_CLK*%
X186550000Y-95790000D03*
%TO.P,J2,34*%
%TO.N,GND*%
X184010000Y-93250000D03*
%TO.P,J2,33*%
%TO.N,DOT_DAT*%
X184010000Y-95790000D03*
%TO.P,J2,32*%
%TO.N,Net-(J2-Pad32)*%
X181470000Y-93250000D03*
%TO.P,J2,31*%
%TO.N,Net-(J2-Pad31)*%
X181470000Y-95790000D03*
%TO.P,J2,30*%
%TO.N,GND*%
X178930000Y-93250000D03*
%TO.P,J2,29*%
%TO.N,Net-(J2-Pad29)*%
X178930000Y-95790000D03*
%TO.P,J2,28*%
%TO.N,ID_SC*%
X176390000Y-93250000D03*
%TO.P,J2,27*%
%TO.N,ID_SD*%
X176390000Y-95790000D03*
%TO.P,J2,26*%
%TO.N,Net-(J2-Pad26)*%
X173850000Y-93250000D03*
%TO.P,J2,25*%
%TO.N,GND*%
X173850000Y-95790000D03*
%TO.P,J2,24*%
%TO.N,SPI0_CS0*%
X171310000Y-93250000D03*
%TO.P,J2,23*%
%TO.N,SPI0_SCLK*%
X171310000Y-95790000D03*
%TO.P,J2,22*%
%TO.N,Net-(J2-Pad22)*%
X168770000Y-93250000D03*
%TO.P,J2,21*%
%TO.N,SPI0_MISO*%
X168770000Y-95790000D03*
%TO.P,J2,20*%
%TO.N,GND*%
X166230000Y-93250000D03*
%TO.P,J2,19*%
%TO.N,SPI0_MOSI*%
X166230000Y-95790000D03*
%TO.P,J2,18*%
%TO.N,Net-(J2-Pad18)*%
X163690000Y-93250000D03*
%TO.P,J2,17*%
%TO.N,3V3*%
X163690000Y-95790000D03*
%TO.P,J2,16*%
%TO.N,Net-(J2-Pad16)*%
X161150000Y-93250000D03*
%TO.P,J2,15*%
%TO.N,pwm2*%
X161150000Y-95790000D03*
%TO.P,J2,14*%
%TO.N,GND*%
X158610000Y-93250000D03*
%TO.P,J2,13*%
%TO.N,pwm1*%
X158610000Y-95790000D03*
%TO.P,J2,12*%
%TO.N,Net-(J2-Pad12)*%
X156070000Y-93250000D03*
%TO.P,J2,11*%
%TO.N,pwm0*%
X156070000Y-95790000D03*
%TO.P,J2,10*%
%TO.N,Net-(J2-Pad10)*%
X153530000Y-93250000D03*
%TO.P,J2,9*%
%TO.N,GND*%
X153530000Y-95790000D03*
%TO.P,J2,8*%
%TO.N,Net-(J2-Pad8)*%
X150990000Y-93250000D03*
%TO.P,J2,7*%
%TO.N,Net-(J2-Pad7)*%
X150990000Y-95790000D03*
%TO.P,J2,6*%
%TO.N,GND*%
X148450000Y-93250000D03*
%TO.P,J2,5*%
%TO.N,SCL1_I2C*%
X148450000Y-95790000D03*
%TO.P,J2,4*%
%TO.N,5V*%
X145910000Y-93250000D03*
%TO.P,J2,3*%
%TO.N,SDA1_I2C*%
X145910000Y-95790000D03*
%TO.P,J2,2*%
%TO.N,5V*%
X143370000Y-93250000D03*
D12*
%TO.P,J2,1*%
%TO.N,3V3*%
X143370000Y-95790000D03*
%TD*%
D13*
%TO.P,J7,4*%
%TO.N,GND*%
X190000000Y-102300000D03*
%TO.P,J7,3*%
%TO.N,D2_DAT*%
X190000000Y-104800000D03*
%TO.P,J7,2*%
%TO.N,D2_CLK*%
X190000000Y-107300000D03*
%TO.P,J7,1*%
%TO.N,5V*%
%TA.AperFunction,ComponentPad*%
G36*
G01*
X190725000Y-110650000D02*
X189275000Y-110650000D01*
G75*
G02*
X189025000Y-110400000I0J250000D01*
G01*
X189025000Y-109200000D01*
G75*
G02*
X189275000Y-108950000I250000J0D01*
G01*
X190725000Y-108950000D01*
G75*
G02*
X190975000Y-109200000I0J-250000D01*
G01*
X190975000Y-110400000D01*
G75*
G02*
X190725000Y-110650000I-250000J0D01*
G01*
G37*
%TD.AperFunction*%
%TD*%
D14*
%TO.P,J3,6*%
%TO.N,mosfet2*%
X171700000Y-136100000D03*
%TO.P,J3,5*%
%TO.N,Vfan*%
X166620000Y-136100000D03*
%TO.P,J3,4*%
%TO.N,mosfet1*%
X161540000Y-136100000D03*
D15*
%TO.P,J3,1*%
%TO.N,+12V*%
X146300000Y-136100000D03*
D14*
%TO.P,J3,3*%
X156460000Y-136100000D03*
%TO.P,J3,2*%
%TO.N,mosfet0*%
X151380000Y-136100000D03*
%TD*%
D11*
%TO.P,JP1,3*%
%TO.N,5V*%
X172600000Y-116020000D03*
%TO.P,JP1,2*%
%TO.N,Vfan*%
X172600000Y-118560000D03*
D12*
%TO.P,JP1,1*%
%TO.N,+12V*%
X172600000Y-121100000D03*
%TD*%
D13*
%TO.P,J9,4*%
%TO.N,GND*%
X137700000Y-109700000D03*
%TO.P,J9,3*%
%TO.N,SCL1_I2C*%
X137700000Y-107200000D03*
%TO.P,J9,2*%
%TO.N,SDA1_I2C*%
X137700000Y-104700000D03*
%TO.P,J9,1*%
%TO.N,5V*%
%TA.AperFunction,ComponentPad*%
G36*
G01*
X136975000Y-101350000D02*
X138425000Y-101350000D01*
G75*
G02*
X138675000Y-101600000I0J-250000D01*
G01*
X138675000Y-102800000D01*
G75*
G02*
X138425000Y-103050000I-250000J0D01*
G01*
X136975000Y-103050000D01*
G75*
G02*
X136725000Y-102800000I0J250000D01*
G01*
X136725000Y-101600000D01*
G75*
G02*
X136975000Y-101350000I250000J0D01*
G01*
G37*
%TD.AperFunction*%
%TD*%
%TO.P,J8,4*%
%TO.N,GND*%
X182600000Y-102300000D03*
%TO.P,J8,3*%
%TO.N,DOT_DAT*%
X182600000Y-104800000D03*
%TO.P,J8,2*%
%TO.N,DOT_CLK*%
X182600000Y-107300000D03*
%TO.P,J8,1*%
%TO.N,5V*%
%TA.AperFunction,ComponentPad*%
G36*
G01*
X183325000Y-110650000D02*
X181875000Y-110650000D01*
G75*
G02*
X181625000Y-110400000I0J250000D01*
G01*
X181625000Y-109200000D01*
G75*
G02*
X181875000Y-108950000I250000J0D01*
G01*
X183325000Y-108950000D01*
G75*
G02*
X183575000Y-109200000I0J-250000D01*
G01*
X183575000Y-110400000D01*
G75*
G02*
X183325000Y-110650000I-250000J0D01*
G01*
G37*
%TD.AperFunction*%
%TD*%
%TO.P,J6,4*%
%TO.N,GND*%
X197200000Y-102300000D03*
%TO.P,J6,3*%
%TO.N,D1_DAT*%
X197200000Y-104800000D03*
%TO.P,J6,2*%
%TO.N,D1_CLK*%
X197200000Y-107300000D03*
%TO.P,J6,1*%
%TO.N,5V*%
%TA.AperFunction,ComponentPad*%
G36*
G01*
X197925000Y-110650000D02*
X196475000Y-110650000D01*
G75*
G02*
X196225000Y-110400000I0J250000D01*
G01*
X196225000Y-109200000D01*
G75*
G02*
X196475000Y-108950000I250000J0D01*
G01*
X197925000Y-108950000D01*
G75*
G02*
X198175000Y-109200000I0J-250000D01*
G01*
X198175000Y-110400000D01*
G75*
G02*
X197925000Y-110650000I-250000J0D01*
G01*
G37*
%TD.AperFunction*%
%TD*%
D14*
%TO.P,J5,2*%
%TO.N,GND*%
X195800000Y-123920000D03*
D15*
%TO.P,J5,1*%
%TO.N,5V*%
X195800000Y-129000000D03*
%TD*%
D14*
%TO.P,J4,2*%
%TO.N,GND*%
X139100000Y-129680000D03*
D15*
%TO.P,J4,1*%
%TO.N,+12V*%
X139100000Y-124600000D03*
%TD*%
D14*
%TO.P,J1,2*%
%TO.N,Net-(J1-Pad2)*%
X186280000Y-135900000D03*
D15*
%TO.P,J1,1*%
%TO.N,Net-(J1-Pad1)*%
X181200000Y-135900000D03*
%TD*%
D16*
%TO.N,GND*%
X181500000Y-124500000D03*
X181500000Y-121000000D03*
X189000000Y-120500000D03*
X185900000Y-120400000D03*
%TO.N,3V3*%
X169100000Y-105300000D03*
X173900000Y-105300000D03*
X176700000Y-105300000D03*
X179600000Y-106600000D03*
X149900000Y-98300000D03*
D17*
%TO.N,+12V*%
X147500000Y-124500000D03*
X155500000Y-124500000D03*
%TO.N,Vfan*%
X166000000Y-123500000D03*
%TD*%
D18*
%TO.N,GND*%
X197200000Y-102300000D02*
X190000000Y-102300000D01*
X181500000Y-124500000D02*
X181500000Y-121000000D01*
X189000000Y-120500000D02*
X186000000Y-120500000D01*
X186000000Y-120500000D02*
X185900000Y-120400000D01*
X182100000Y-120400000D02*
X181500000Y-121000000D01*
X185900000Y-120400000D02*
X182100000Y-120400000D01*
X190000000Y-102300000D02*
X182600000Y-102300000D01*
%TO.N,3V3*%
X169100000Y-105300000D02*
X173900000Y-105300000D01*
X173900000Y-105300000D02*
X176700000Y-105300000D01*
X178300000Y-105300000D02*
X179600000Y-106600000D01*
X176700000Y-105300000D02*
X178300000Y-105300000D01*
X156900000Y-105300000D02*
X169100000Y-105300000D01*
X149900000Y-98300000D02*
X156900000Y-105300000D01*
%TO.N,+12V*%
X143300000Y-124600000D02*
X139100000Y-124600000D01*
X146300000Y-127600000D02*
X143300000Y-124600000D01*
X156460000Y-136100000D02*
X156460000Y-131360000D01*
X152400000Y-127300000D02*
X146300000Y-127300000D01*
X146300000Y-127600000D02*
X146300000Y-127300000D01*
X143400000Y-124600000D02*
X139100000Y-124600000D01*
D19*
X143600000Y-124600000D02*
X146300000Y-127300000D01*
X139100000Y-124600000D02*
X143600000Y-124600000D01*
X167900000Y-127300000D02*
X172600000Y-122600000D01*
D18*
X172600000Y-122600000D02*
X172600000Y-122800000D01*
D19*
X172600000Y-121100000D02*
X172600000Y-122400000D01*
D18*
X172600000Y-122400000D02*
X172600000Y-122600000D01*
D19*
X146300000Y-127300000D02*
X146300000Y-136100000D01*
X156460000Y-127540000D02*
X156700000Y-127300000D01*
X156460000Y-136100000D02*
X156460000Y-127540000D01*
X156700000Y-127300000D02*
X167900000Y-127300000D01*
X147500000Y-127000000D02*
X147800000Y-127300000D01*
X147500000Y-124500000D02*
X147500000Y-127000000D01*
X146300000Y-127300000D02*
X147800000Y-127300000D01*
X155500000Y-124500000D02*
X155500000Y-127000000D01*
X155200000Y-127300000D02*
X156700000Y-127300000D01*
X155500000Y-127000000D02*
X155200000Y-127300000D01*
X147800000Y-127300000D02*
X155200000Y-127300000D01*
%TO.N,Vfan*%
X170940000Y-118560000D02*
X166200000Y-123300000D01*
X172600000Y-118560000D02*
X170940000Y-118560000D01*
X166200000Y-123300000D02*
X166000000Y-123500000D01*
D18*
%TO.N,5V*%
X147200000Y-94900000D02*
X147200000Y-97100000D01*
D20*
X141769999Y-97240001D02*
X141769999Y-94018001D01*
X141800000Y-97270002D02*
X141769999Y-97240001D01*
D18*
X189600000Y-109800000D02*
X189800000Y-109600000D01*
X196900000Y-109600000D02*
X197000000Y-109500000D01*
X144600000Y-93300000D02*
X144550000Y-93250000D01*
X144550000Y-93250000D02*
X144350000Y-93250000D01*
X144350000Y-93250000D02*
X143370000Y-93250000D01*
X144734999Y-93334999D02*
X144650000Y-93250000D01*
X144650000Y-93250000D02*
X145910000Y-93250000D01*
X144350000Y-93250000D02*
X144650000Y-93250000D01*
D20*
X140500000Y-102200000D02*
X144734999Y-97965001D01*
X176380000Y-116020000D02*
X176450000Y-115950000D01*
D18*
X176450000Y-115950000D02*
X182600000Y-109800000D01*
D19*
X137700000Y-102200000D02*
X140500000Y-102200000D01*
X140500000Y-102200000D02*
X140800000Y-102200000D01*
D20*
X144734999Y-97965001D02*
X145034999Y-97965001D01*
D19*
X146425001Y-97965001D02*
X164480000Y-116020000D01*
X145034999Y-97965001D02*
X146425001Y-97965001D01*
X164480000Y-116020000D02*
X172600000Y-116020000D01*
X172600000Y-116020000D02*
X176380000Y-116020000D01*
X176380000Y-116020000D02*
X182600000Y-109800000D01*
X182600000Y-109800000D02*
X190000000Y-109800000D01*
X190000000Y-109800000D02*
X197200000Y-109800000D01*
X190000000Y-119427998D02*
X192150000Y-121577998D01*
X190000000Y-109800000D02*
X190000000Y-119427998D01*
X192150000Y-121577998D02*
X192150000Y-125350000D01*
X195800000Y-129000000D02*
X192150000Y-125350000D01*
D20*
X143370000Y-93250000D02*
X142770009Y-93250000D01*
D19*
X140800000Y-102200000D02*
X142500000Y-100500000D01*
X142500000Y-100500000D02*
X145034999Y-97965001D01*
D20*
X142050001Y-93367918D02*
X142050001Y-94189999D01*
X142167919Y-93250000D02*
X142050001Y-93367918D01*
X143370000Y-93250000D02*
X142167919Y-93250000D01*
X141800000Y-99800000D02*
X142500000Y-100500000D01*
X141800000Y-97270002D02*
X141800000Y-99800000D01*
X147180000Y-94520000D02*
X147180000Y-94691998D01*
X145910000Y-93250000D02*
X147180000Y-94520000D01*
X147200000Y-97190002D02*
X146425001Y-97965001D01*
X147200000Y-97100000D02*
X147200000Y-97190002D01*
%TD*%
D21*
%TO.N,GND*%
X194310315Y-91831862D02*
X193831862Y-92310315D01*
X193455943Y-92872918D01*
X193197006Y-93498048D01*
X193065000Y-94161682D01*
X193065000Y-94838318D01*
X193197006Y-95501952D01*
X193455943Y-96127082D01*
X193831862Y-96689685D01*
X194310315Y-97168138D01*
X194872918Y-97544057D01*
X195498048Y-97802994D01*
X196161682Y-97935000D01*
X196838318Y-97935000D01*
X197501952Y-97802994D01*
X198127082Y-97544057D01*
X198689685Y-97168138D01*
X199168138Y-96689685D01*
X199338743Y-96434357D01*
X199326315Y-115547045D01*
X199168138Y-115310315D01*
X198689685Y-114831862D01*
X198127082Y-114455943D01*
X197501952Y-114197006D01*
X196838318Y-114065000D01*
X196161682Y-114065000D01*
X195498048Y-114197006D01*
X194872918Y-114455943D01*
X194310315Y-114831862D01*
X193831862Y-115310315D01*
X193455943Y-115872918D01*
X193197006Y-116498048D01*
X193065000Y-117161682D01*
X193065000Y-117838318D01*
X193197006Y-118501952D01*
X193455943Y-119127082D01*
X193831862Y-119689685D01*
X194310315Y-120168138D01*
X194872918Y-120544057D01*
X195498048Y-120802994D01*
X196161682Y-120935000D01*
X196838318Y-120935000D01*
X197501952Y-120802994D01*
X198127082Y-120544057D01*
X198689685Y-120168138D01*
X199168138Y-119689685D01*
X199323773Y-119456760D01*
X199313973Y-134528573D01*
X199168138Y-134310315D01*
X198689685Y-133831862D01*
X198127082Y-133455943D01*
X197501952Y-133197006D01*
X196838318Y-133065000D01*
X196161682Y-133065000D01*
X195498048Y-133197006D01*
X194872918Y-133455943D01*
X194310315Y-133831862D01*
X193831862Y-134310315D01*
X193455943Y-134872918D01*
X193197006Y-135498048D01*
X193065000Y-136161682D01*
X193065000Y-136838318D01*
X193197006Y-137501952D01*
X193455943Y-138127082D01*
X193831862Y-138689685D01*
X194310315Y-139168138D01*
X194567525Y-139340000D01*
X140432475Y-139340000D01*
X140689685Y-139168138D01*
X141168138Y-138689685D01*
X141544057Y-138127082D01*
X141802994Y-137501952D01*
X141935000Y-136838318D01*
X141935000Y-136161682D01*
X141802994Y-135498048D01*
X141544057Y-134872918D01*
X141168138Y-134310315D01*
X140689685Y-133831862D01*
X140127082Y-133455943D01*
X139501952Y-133197006D01*
X138838318Y-133065000D01*
X138161682Y-133065000D01*
X137498048Y-133197006D01*
X136872918Y-133455943D01*
X136310315Y-133831862D01*
X135831862Y-134310315D01*
X135660000Y-134567525D01*
X135660000Y-131171653D01*
X137787952Y-131171653D01*
X137943962Y-131487214D01*
X138318745Y-131678020D01*
X138723551Y-131792044D01*
X139142824Y-131824902D01*
X139560451Y-131775334D01*
X139960383Y-131645243D01*
X140256038Y-131487214D01*
X140412048Y-131171653D01*
X139100000Y-129859605D01*
X137787952Y-131171653D01*
X135660000Y-131171653D01*
X135660000Y-129722824D01*
X136955098Y-129722824D01*
X137004666Y-130140451D01*
X137134757Y-130540383D01*
X137292786Y-130836038D01*
X137608347Y-130992048D01*
X138920395Y-129680000D01*
X139279605Y-129680000D01*
X140591653Y-130992048D01*
X140907214Y-130836038D01*
X141098020Y-130461255D01*
X141212044Y-130056449D01*
X141244902Y-129637176D01*
X141195334Y-129219549D01*
X141065243Y-128819617D01*
X140907214Y-128523962D01*
X140591653Y-128367952D01*
X139279605Y-129680000D01*
X138920395Y-129680000D01*
X137608347Y-128367952D01*
X137292786Y-128523962D01*
X137101980Y-128898745D01*
X136987956Y-129303551D01*
X136955098Y-129722824D01*
X135660000Y-129722824D01*
X135660000Y-128188347D01*
X137787952Y-128188347D01*
X139100000Y-129500395D01*
X140412048Y-128188347D01*
X140256038Y-127872786D01*
X139881255Y-127681980D01*
X139476449Y-127567956D01*
X139057176Y-127535098D01*
X138639549Y-127584666D01*
X138239617Y-127714757D01*
X137943962Y-127872786D01*
X137787952Y-128188347D01*
X135660000Y-128188347D01*
X135660000Y-119432475D01*
X135831862Y-119689685D01*
X136310315Y-120168138D01*
X136872918Y-120544057D01*
X137498048Y-120802994D01*
X138161682Y-120935000D01*
X138838318Y-120935000D01*
X139501952Y-120802994D01*
X140127082Y-120544057D01*
X140689685Y-120168138D01*
X141168138Y-119689685D01*
X141544057Y-119127082D01*
X141802994Y-118501952D01*
X141935000Y-117838318D01*
X141935000Y-117161682D01*
X141802994Y-116498048D01*
X141544057Y-115872918D01*
X141168138Y-115310315D01*
X140689685Y-114831862D01*
X140127082Y-114455943D01*
X139501952Y-114197006D01*
X138838318Y-114065000D01*
X138161682Y-114065000D01*
X137498048Y-114197006D01*
X136872918Y-114455943D01*
X136310315Y-114831862D01*
X135831862Y-115310315D01*
X135660000Y-115567525D01*
X135660000Y-110056890D01*
X136133524Y-110056890D01*
X136225648Y-110319858D01*
X136372504Y-110571193D01*
X136565571Y-110789049D01*
X136797430Y-110965053D01*
X137059170Y-111092442D01*
X137340733Y-111166320D01*
X137573000Y-111026165D01*
X137573000Y-109827000D01*
X137827000Y-109827000D01*
X137827000Y-111026165D01*
X138059267Y-111166320D01*
X138340830Y-111092442D01*
X138602570Y-110965053D01*
X138834429Y-110789049D01*
X139027496Y-110571193D01*
X139174352Y-110319858D01*
X139266476Y-110056890D01*
X139145155Y-109827000D01*
X137827000Y-109827000D01*
X137573000Y-109827000D01*
X136254845Y-109827000D01*
X136133524Y-110056890D01*
X135660000Y-110056890D01*
X135660000Y-96432475D01*
X135831862Y-96689685D01*
X136310315Y-97168138D01*
X136872918Y-97544057D01*
X137498048Y-97802994D01*
X138161682Y-97935000D01*
X138838318Y-97935000D01*
X139501952Y-97802994D01*
X140127082Y-97544057D01*
X140689685Y-97168138D01*
X140884999Y-96972824D01*
X140884999Y-97196532D01*
X140880718Y-97240001D01*
X140884999Y-97283470D01*
X140884999Y-97283477D01*
X140897804Y-97413490D01*
X140915000Y-97470177D01*
X140915001Y-99756521D01*
X140910719Y-99800000D01*
X140927805Y-99973490D01*
X140978412Y-100140313D01*
X141060590Y-100294059D01*
X141078719Y-100316149D01*
X140329869Y-101065000D01*
X139129253Y-101065000D01*
X139052962Y-100972038D01*
X138918386Y-100861595D01*
X138764850Y-100779528D01*
X138598254Y-100728992D01*
X138425000Y-100711928D01*
X136975000Y-100711928D01*
X136801746Y-100728992D01*
X136635150Y-100779528D01*
X136481614Y-100861595D01*
X136347038Y-100972038D01*
X136236595Y-101106614D01*
X136154528Y-101260150D01*
X136103992Y-101426746D01*
X136086928Y-101600000D01*
X136086928Y-102800000D01*
X136103992Y-102973254D01*
X136154528Y-103139850D01*
X136236595Y-103293386D01*
X136347038Y-103427962D01*
X136481614Y-103538405D01*
X136583337Y-103592777D01*
X136519866Y-103644866D01*
X136334294Y-103870986D01*
X136196401Y-104128966D01*
X136111487Y-104408889D01*
X136082815Y-104700000D01*
X136111487Y-104991111D01*
X136196401Y-105271034D01*
X136334294Y-105529014D01*
X136519866Y-105755134D01*
X136745986Y-105940706D01*
X136763374Y-105950000D01*
X136745986Y-105959294D01*
X136519866Y-106144866D01*
X136334294Y-106370986D01*
X136196401Y-106628966D01*
X136111487Y-106908889D01*
X136082815Y-107200000D01*
X136111487Y-107491111D01*
X136196401Y-107771034D01*
X136334294Y-108029014D01*
X136519866Y-108255134D01*
X136745986Y-108440706D01*
X136771722Y-108454462D01*
X136565571Y-108610951D01*
X136372504Y-108828807D01*
X136225648Y-109080142D01*
X136133524Y-109343110D01*
X136254845Y-109573000D01*
X137573000Y-109573000D01*
X137573000Y-109553000D01*
X137827000Y-109553000D01*
X137827000Y-109573000D01*
X139145155Y-109573000D01*
X139266476Y-109343110D01*
X139174352Y-109080142D01*
X139027496Y-108828807D01*
X138834429Y-108610951D01*
X138628278Y-108454462D01*
X138654014Y-108440706D01*
X138880134Y-108255134D01*
X139065706Y-108029014D01*
X139203599Y-107771034D01*
X139288513Y-107491111D01*
X139317185Y-107200000D01*
X139288513Y-106908889D01*
X139203599Y-106628966D01*
X139065706Y-106370986D01*
X138880134Y-106144866D01*
X138654014Y-105959294D01*
X138636626Y-105950000D01*
X138654014Y-105940706D01*
X138880134Y-105755134D01*
X139065706Y-105529014D01*
X139203599Y-105271034D01*
X139288513Y-104991111D01*
X139317185Y-104700000D01*
X139288513Y-104408889D01*
X139203599Y-104128966D01*
X139065706Y-103870986D01*
X138880134Y-103644866D01*
X138816663Y-103592777D01*
X138918386Y-103538405D01*
X139052962Y-103427962D01*
X139129253Y-103335000D01*
X140744249Y-103335000D01*
X140800000Y-103340491D01*
X140855751Y-103335000D01*
X140855752Y-103335000D01*
X141022499Y-103318577D01*
X141236447Y-103253676D01*
X141433623Y-103148284D01*
X141606449Y-103006449D01*
X141641996Y-102963135D01*
X143341988Y-101263144D01*
X143341992Y-101263139D01*
X145505131Y-99100001D01*
X145954870Y-99100001D01*
X163638009Y-116783141D01*
X163673551Y-116826449D01*
X163846377Y-116968284D01*
X164043553Y-117073676D01*
X164257501Y-117138577D01*
X164424248Y-117155000D01*
X164424257Y-117155000D01*
X164479999Y-117160490D01*
X164535741Y-117155000D01*
X171634893Y-117155000D01*
X171653368Y-117173475D01*
X171827760Y-117290000D01*
X171653368Y-117406525D01*
X171634893Y-117425000D01*
X170995741Y-117425000D01*
X170939999Y-117419510D01*
X170884257Y-117425000D01*
X170884248Y-117425000D01*
X170717501Y-117441423D01*
X170503553Y-117506324D01*
X170306377Y-117611716D01*
X170133551Y-117753551D01*
X170098009Y-117796859D01*
X165822719Y-122072150D01*
X165581426Y-122120147D01*
X165320273Y-122228320D01*
X165085241Y-122385363D01*
X164885363Y-122585241D01*
X164728320Y-122820273D01*
X164620147Y-123081426D01*
X164565000Y-123358665D01*
X164565000Y-123641335D01*
X164620147Y-123918574D01*
X164728320Y-124179727D01*
X164885363Y-124414759D01*
X165085241Y-124614637D01*
X165320273Y-124771680D01*
X165581426Y-124879853D01*
X165858665Y-124935000D01*
X166141335Y-124935000D01*
X166418574Y-124879853D01*
X166679727Y-124771680D01*
X166914759Y-124614637D01*
X167114637Y-124414759D01*
X167271680Y-124179727D01*
X167379853Y-123918574D01*
X167427850Y-123677281D01*
X171264483Y-119840649D01*
X171219463Y-119895506D01*
X171160498Y-120005820D01*
X171124188Y-120125518D01*
X171111928Y-120250000D01*
X171111928Y-121950000D01*
X171124188Y-122074482D01*
X171160498Y-122194180D01*
X171219463Y-122304494D01*
X171251426Y-122343442D01*
X167429869Y-126165000D01*
X156755741Y-126165000D01*
X156699999Y-126159510D01*
X156644257Y-126165000D01*
X156635000Y-126165000D01*
X156635000Y-125384284D01*
X156771680Y-125179727D01*
X156879853Y-124918574D01*
X156935000Y-124641335D01*
X156935000Y-124358665D01*
X156879853Y-124081426D01*
X156771680Y-123820273D01*
X156614637Y-123585241D01*
X156414759Y-123385363D01*
X156179727Y-123228320D01*
X155918574Y-123120147D01*
X155641335Y-123065000D01*
X155358665Y-123065000D01*
X155081426Y-123120147D01*
X154820273Y-123228320D01*
X154585241Y-123385363D01*
X154385363Y-123585241D01*
X154228320Y-123820273D01*
X154120147Y-124081426D01*
X154065000Y-124358665D01*
X154065000Y-124641335D01*
X154120147Y-124918574D01*
X154228320Y-125179727D01*
X154365000Y-125384284D01*
X154365001Y-126165000D01*
X148635000Y-126165000D01*
X148635000Y-125384284D01*
X148771680Y-125179727D01*
X148879853Y-124918574D01*
X148935000Y-124641335D01*
X148935000Y-124358665D01*
X148879853Y-124081426D01*
X148771680Y-123820273D01*
X148614637Y-123585241D01*
X148414759Y-123385363D01*
X148179727Y-123228320D01*
X147918574Y-123120147D01*
X147641335Y-123065000D01*
X147358665Y-123065000D01*
X147081426Y-123120147D01*
X146820273Y-123228320D01*
X146585241Y-123385363D01*
X146385363Y-123585241D01*
X146228320Y-123820273D01*
X146120147Y-124081426D01*
X146065000Y-124358665D01*
X146065000Y-124641335D01*
X146120147Y-124918574D01*
X146228320Y-125179727D01*
X146365000Y-125384284D01*
X146365001Y-125759868D01*
X144441996Y-123836865D01*
X144406449Y-123793551D01*
X144233623Y-123651716D01*
X144036447Y-123546324D01*
X143822499Y-123481423D01*
X143655752Y-123465000D01*
X143655751Y-123465000D01*
X143600000Y-123459509D01*
X143544249Y-123465000D01*
X141238072Y-123465000D01*
X141238072Y-123100000D01*
X141225812Y-122975518D01*
X141189502Y-122855820D01*
X141130537Y-122745506D01*
X141051185Y-122648815D01*
X140954494Y-122569463D01*
X140844180Y-122510498D01*
X140724482Y-122474188D01*
X140600000Y-122461928D01*
X137600000Y-122461928D01*
X137475518Y-122474188D01*
X137355820Y-122510498D01*
X137245506Y-122569463D01*
X137148815Y-122648815D01*
X137069463Y-122745506D01*
X137010498Y-122855820D01*
X136974188Y-122975518D01*
X136961928Y-123100000D01*
X136961928Y-126100000D01*
X136974188Y-126224482D01*
X137010498Y-126344180D01*
X137069463Y-126454494D01*
X137148815Y-126551185D01*
X137245506Y-126630537D01*
X137355820Y-126689502D01*
X137475518Y-126725812D01*
X137600000Y-126738072D01*
X140600000Y-126738072D01*
X140724482Y-126725812D01*
X140844180Y-126689502D01*
X140954494Y-126630537D01*
X141051185Y-126551185D01*
X141130537Y-126454494D01*
X141189502Y-126344180D01*
X141225812Y-126224482D01*
X141238072Y-126100000D01*
X141238072Y-125735000D01*
X143129869Y-125735000D01*
X145165000Y-127770133D01*
X145165001Y-133961928D01*
X144800000Y-133961928D01*
X144675518Y-133974188D01*
X144555820Y-134010498D01*
X144445506Y-134069463D01*
X144348815Y-134148815D01*
X144269463Y-134245506D01*
X144210498Y-134355820D01*
X144174188Y-134475518D01*
X144161928Y-134600000D01*
X144161928Y-137600000D01*
X144174188Y-137724482D01*
X144210498Y-137844180D01*
X144269463Y-137954494D01*
X144348815Y-138051185D01*
X144445506Y-138130537D01*
X144555820Y-138189502D01*
X144675518Y-138225812D01*
X144800000Y-138238072D01*
X147800000Y-138238072D01*
X147924482Y-138225812D01*
X148044180Y-138189502D01*
X148154494Y-138130537D01*
X148251185Y-138051185D01*
X148330537Y-137954494D01*
X148389502Y-137844180D01*
X148425812Y-137724482D01*
X148438072Y-137600000D01*
X148438072Y-135889721D01*
X149245000Y-135889721D01*
X149245000Y-136310279D01*
X149327047Y-136722756D01*
X149487988Y-137111302D01*
X149721637Y-137460983D01*
X150019017Y-137758363D01*
X150368698Y-137992012D01*
X150757244Y-138152953D01*
X151169721Y-138235000D01*
X151590279Y-138235000D01*
X152002756Y-138152953D01*
X152391302Y-137992012D01*
X152740983Y-137758363D01*
X153038363Y-137460983D01*
X153272012Y-137111302D01*
X153432953Y-136722756D01*
X153515000Y-136310279D01*
X153515000Y-135889721D01*
X153432953Y-135477244D01*
X153272012Y-135088698D01*
X153038363Y-134739017D01*
X152740983Y-134441637D01*
X152391302Y-134207988D01*
X152002756Y-134047047D01*
X151590279Y-133965000D01*
X151169721Y-133965000D01*
X150757244Y-134047047D01*
X150368698Y-134207988D01*
X150019017Y-134441637D01*
X149721637Y-134739017D01*
X149487988Y-135088698D01*
X149327047Y-135477244D01*
X149245000Y-135889721D01*
X148438072Y-135889721D01*
X148438072Y-134600000D01*
X148425812Y-134475518D01*
X148389502Y-134355820D01*
X148330537Y-134245506D01*
X148251185Y-134148815D01*
X148154494Y-134069463D01*
X148044180Y-134010498D01*
X147924482Y-133974188D01*
X147800000Y-133961928D01*
X147435000Y-133961928D01*
X147435000Y-128435000D01*
X147744248Y-128435000D01*
X147799999Y-128440491D01*
X147855751Y-128435000D01*
X155144249Y-128435000D01*
X155200000Y-128440491D01*
X155255751Y-128435000D01*
X155325001Y-128435000D01*
X155325000Y-134290640D01*
X155099017Y-134441637D01*
X154801637Y-134739017D01*
X154567988Y-135088698D01*
X154407047Y-135477244D01*
X154325000Y-135889721D01*
X154325000Y-136310279D01*
X154407047Y-136722756D01*
X154567988Y-137111302D01*
X154801637Y-137460983D01*
X155099017Y-137758363D01*
X155448698Y-137992012D01*
X155837244Y-138152953D01*
X156249721Y-138235000D01*
X156670279Y-138235000D01*
X157082756Y-138152953D01*
X157471302Y-137992012D01*
X157820983Y-137758363D01*
X158118363Y-137460983D01*
X158352012Y-137111302D01*
X158512953Y-136722756D01*
X158595000Y-136310279D01*
X158595000Y-135889721D01*
X159405000Y-135889721D01*
X159405000Y-136310279D01*
X159487047Y-136722756D01*
X159647988Y-137111302D01*
X159881637Y-137460983D01*
X160179017Y-137758363D01*
X160528698Y-137992012D01*
X160917244Y-138152953D01*
X161329721Y-138235000D01*
X161750279Y-138235000D01*
X162162756Y-138152953D01*
X162551302Y-137992012D01*
X162900983Y-137758363D01*
X163198363Y-137460983D01*
X163432012Y-137111302D01*
X163592953Y-136722756D01*
X163675000Y-136310279D01*
X163675000Y-135889721D01*
X164485000Y-135889721D01*
X164485000Y-136310279D01*
X164567047Y-136722756D01*
X164727988Y-137111302D01*
X164961637Y-137460983D01*
X165259017Y-137758363D01*
X165608698Y-137992012D01*
X165997244Y-138152953D01*
X166409721Y-138235000D01*
X166830279Y-138235000D01*
X167242756Y-138152953D01*
X167631302Y-137992012D01*
X167980983Y-137758363D01*
X168278363Y-137460983D01*
X168512012Y-137111302D01*
X168672953Y-136722756D01*
X168755000Y-136310279D01*
X168755000Y-135889721D01*
X169565000Y-135889721D01*
X169565000Y-136310279D01*
X169647047Y-136722756D01*
X169807988Y-137111302D01*
X170041637Y-137460983D01*
X170339017Y-137758363D01*
X170688698Y-137992012D01*
X171077244Y-138152953D01*
X171489721Y-138235000D01*
X171910279Y-138235000D01*
X172322756Y-138152953D01*
X172711302Y-137992012D01*
X173060983Y-137758363D01*
X173358363Y-137460983D01*
X173592012Y-137111302D01*
X173752953Y-136722756D01*
X173835000Y-136310279D01*
X173835000Y-135889721D01*
X173752953Y-135477244D01*
X173592012Y-135088698D01*
X173358363Y-134739017D01*
X173060983Y-134441637D01*
X172998669Y-134400000D01*
X179061928Y-134400000D01*
X179061928Y-137400000D01*
X179074188Y-137524482D01*
X179110498Y-137644180D01*
X179169463Y-137754494D01*
X179248815Y-137851185D01*
X179345506Y-137930537D01*
X179455820Y-137989502D01*
X179575518Y-138025812D01*
X179700000Y-138038072D01*
X182700000Y-138038072D01*
X182824482Y-138025812D01*
X182944180Y-137989502D01*
X183054494Y-137930537D01*
X183151185Y-137851185D01*
X183230537Y-137754494D01*
X183289502Y-137644180D01*
X183325812Y-137524482D01*
X183338072Y-137400000D01*
X183338072Y-135689721D01*
X184145000Y-135689721D01*
X184145000Y-136110279D01*
X184227047Y-136522756D01*
X184387988Y-136911302D01*
X184621637Y-137260983D01*
X184919017Y-137558363D01*
X185268698Y-137792012D01*
X185657244Y-137952953D01*
X186069721Y-138035000D01*
X186490279Y-138035000D01*
X186902756Y-137952953D01*
X187291302Y-137792012D01*
X187640983Y-137558363D01*
X187938363Y-137260983D01*
X188172012Y-136911302D01*
X188332953Y-136522756D01*
X188415000Y-136110279D01*
X188415000Y-135689721D01*
X188332953Y-135277244D01*
X188172012Y-134888698D01*
X187938363Y-134539017D01*
X187640983Y-134241637D01*
X187291302Y-134007988D01*
X186902756Y-133847047D01*
X186490279Y-133765000D01*
X186069721Y-133765000D01*
X185657244Y-133847047D01*
X185268698Y-134007988D01*
X184919017Y-134241637D01*
X184621637Y-134539017D01*
X184387988Y-134888698D01*
X184227047Y-135277244D01*
X184145000Y-135689721D01*
X183338072Y-135689721D01*
X183338072Y-134400000D01*
X183325812Y-134275518D01*
X183289502Y-134155820D01*
X183230537Y-134045506D01*
X183151185Y-133948815D01*
X183054494Y-133869463D01*
X182944180Y-133810498D01*
X182824482Y-133774188D01*
X182700000Y-133761928D01*
X179700000Y-133761928D01*
X179575518Y-133774188D01*
X179455820Y-133810498D01*
X179345506Y-133869463D01*
X179248815Y-133948815D01*
X179169463Y-134045506D01*
X179110498Y-134155820D01*
X179074188Y-134275518D01*
X179061928Y-134400000D01*
X172998669Y-134400000D01*
X172711302Y-134207988D01*
X172322756Y-134047047D01*
X171910279Y-133965000D01*
X171489721Y-133965000D01*
X171077244Y-134047047D01*
X170688698Y-134207988D01*
X170339017Y-134441637D01*
X170041637Y-134739017D01*
X169807988Y-135088698D01*
X169647047Y-135477244D01*
X169565000Y-135889721D01*
X168755000Y-135889721D01*
X168672953Y-135477244D01*
X168512012Y-135088698D01*
X168278363Y-134739017D01*
X167980983Y-134441637D01*
X167631302Y-134207988D01*
X167242756Y-134047047D01*
X166830279Y-133965000D01*
X166409721Y-133965000D01*
X165997244Y-134047047D01*
X165608698Y-134207988D01*
X165259017Y-134441637D01*
X164961637Y-134739017D01*
X164727988Y-135088698D01*
X164567047Y-135477244D01*
X164485000Y-135889721D01*
X163675000Y-135889721D01*
X163592953Y-135477244D01*
X163432012Y-135088698D01*
X163198363Y-134739017D01*
X162900983Y-134441637D01*
X162551302Y-134207988D01*
X162162756Y-134047047D01*
X161750279Y-133965000D01*
X161329721Y-133965000D01*
X160917244Y-134047047D01*
X160528698Y-134207988D01*
X160179017Y-134441637D01*
X159881637Y-134739017D01*
X159647988Y-135088698D01*
X159487047Y-135477244D01*
X159405000Y-135889721D01*
X158595000Y-135889721D01*
X158512953Y-135477244D01*
X158352012Y-135088698D01*
X158118363Y-134739017D01*
X157820983Y-134441637D01*
X157595000Y-134290640D01*
X157595000Y-128435000D01*
X167844249Y-128435000D01*
X167900000Y-128440491D01*
X167955751Y-128435000D01*
X167955752Y-128435000D01*
X168122499Y-128418577D01*
X168336447Y-128353676D01*
X168533623Y-128248284D01*
X168706449Y-128106449D01*
X168741996Y-128063135D01*
X173441988Y-123363144D01*
X173548284Y-123233623D01*
X173653676Y-123036447D01*
X173718577Y-122822499D01*
X173740491Y-122600000D01*
X173732514Y-122519012D01*
X173804494Y-122480537D01*
X173901185Y-122401185D01*
X173980537Y-122304494D01*
X174039502Y-122194180D01*
X174075812Y-122074482D01*
X174088072Y-121950000D01*
X174088072Y-120250000D01*
X174075812Y-120125518D01*
X174039502Y-120005820D01*
X173980537Y-119895506D01*
X173901185Y-119798815D01*
X173804494Y-119719463D01*
X173694180Y-119660498D01*
X173621620Y-119638487D01*
X173753475Y-119506632D01*
X173915990Y-119263411D01*
X174027932Y-118993158D01*
X174085000Y-118706260D01*
X174085000Y-118413740D01*
X174027932Y-118126842D01*
X173915990Y-117856589D01*
X173753475Y-117613368D01*
X173546632Y-117406525D01*
X173372240Y-117290000D01*
X173546632Y-117173475D01*
X173565107Y-117155000D01*
X176324249Y-117155000D01*
X176380000Y-117160491D01*
X176435751Y-117155000D01*
X176435752Y-117155000D01*
X176602499Y-117138577D01*
X176816447Y-117073676D01*
X177013623Y-116968284D01*
X177186449Y-116826449D01*
X177221996Y-116783135D01*
X182717060Y-111288072D01*
X183325000Y-111288072D01*
X183498254Y-111271008D01*
X183664850Y-111220472D01*
X183818386Y-111138405D01*
X183952962Y-111027962D01*
X184029253Y-110935000D01*
X188570747Y-110935000D01*
X188647038Y-111027962D01*
X188781614Y-111138405D01*
X188865000Y-111182976D01*
X188865001Y-119372237D01*
X188859509Y-119427998D01*
X188881423Y-119650496D01*
X188946324Y-119864444D01*
X188962927Y-119895506D01*
X189051717Y-120061621D01*
X189193552Y-120234447D01*
X189236860Y-120269989D01*
X191015000Y-122048130D01*
X191015001Y-125294239D01*
X191009509Y-125350000D01*
X191031423Y-125572498D01*
X191096324Y-125786446D01*
X191096325Y-125786447D01*
X191201717Y-125983623D01*
X191343552Y-126156449D01*
X191386860Y-126191991D01*
X193661928Y-128467060D01*
X193661928Y-130500000D01*
X193674188Y-130624482D01*
X193710498Y-130744180D01*
X193769463Y-130854494D01*
X193848815Y-130951185D01*
X193945506Y-131030537D01*
X194055820Y-131089502D01*
X194175518Y-131125812D01*
X194300000Y-131138072D01*
X197300000Y-131138072D01*
X197424482Y-131125812D01*
X197544180Y-131089502D01*
X197654494Y-131030537D01*
X197751185Y-130951185D01*
X197830537Y-130854494D01*
X197889502Y-130744180D01*
X197925812Y-130624482D01*
X197938072Y-130500000D01*
X197938072Y-127500000D01*
X197925812Y-127375518D01*
X197889502Y-127255820D01*
X197830537Y-127145506D01*
X197751185Y-127048815D01*
X197654494Y-126969463D01*
X197544180Y-126910498D01*
X197424482Y-126874188D01*
X197300000Y-126861928D01*
X195267060Y-126861928D01*
X193816785Y-125411653D01*
X194487952Y-125411653D01*
X194643962Y-125727214D01*
X195018745Y-125918020D01*
X195423551Y-126032044D01*
X195842824Y-126064902D01*
X196260451Y-126015334D01*
X196660383Y-125885243D01*
X196956038Y-125727214D01*
X197112048Y-125411653D01*
X195800000Y-124099605D01*
X194487952Y-125411653D01*
X193816785Y-125411653D01*
X193285000Y-124879869D01*
X193285000Y-123962824D01*
X193655098Y-123962824D01*
X193704666Y-124380451D01*
X193834757Y-124780383D01*
X193992786Y-125076038D01*
X194308347Y-125232048D01*
X195620395Y-123920000D01*
X195979605Y-123920000D01*
X197291653Y-125232048D01*
X197607214Y-125076038D01*
X197798020Y-124701255D01*
X197912044Y-124296449D01*
X197944902Y-123877176D01*
X197895334Y-123459549D01*
X197765243Y-123059617D01*
X197607214Y-122763962D01*
X197291653Y-122607952D01*
X195979605Y-123920000D01*
X195620395Y-123920000D01*
X194308347Y-122607952D01*
X193992786Y-122763962D01*
X193801980Y-123138745D01*
X193687956Y-123543551D01*
X193655098Y-123962824D01*
X193285000Y-123962824D01*
X193285000Y-122428347D01*
X194487952Y-122428347D01*
X195800000Y-123740395D01*
X197112048Y-122428347D01*
X196956038Y-122112786D01*
X196581255Y-121921980D01*
X196176449Y-121807956D01*
X195757176Y-121775098D01*
X195339549Y-121824666D01*
X194939617Y-121954757D01*
X194643962Y-122112786D01*
X194487952Y-122428347D01*
X193285000Y-122428347D01*
X193285000Y-121633749D01*
X193290491Y-121577997D01*
X193268577Y-121355498D01*
X193253471Y-121305703D01*
X193203676Y-121141551D01*
X193098284Y-120944375D01*
X192956449Y-120771549D01*
X192913141Y-120736007D01*
X191135000Y-118957867D01*
X191135000Y-111182976D01*
X191218386Y-111138405D01*
X191352962Y-111027962D01*
X191429253Y-110935000D01*
X195770747Y-110935000D01*
X195847038Y-111027962D01*
X195981614Y-111138405D01*
X196135150Y-111220472D01*
X196301746Y-111271008D01*
X196475000Y-111288072D01*
X197925000Y-111288072D01*
X198098254Y-111271008D01*
X198264850Y-111220472D01*
X198418386Y-111138405D01*
X198552962Y-111027962D01*
X198663405Y-110893386D01*
X198745472Y-110739850D01*
X198796008Y-110573254D01*
X198813072Y-110400000D01*
X198813072Y-109200000D01*
X198796008Y-109026746D01*
X198745472Y-108860150D01*
X198663405Y-108706614D01*
X198552962Y-108572038D01*
X198418386Y-108461595D01*
X198316663Y-108407223D01*
X198380134Y-108355134D01*
X198565706Y-108129014D01*
X198703599Y-107871034D01*
X198788513Y-107591111D01*
X198817185Y-107300000D01*
X198788513Y-107008889D01*
X198703599Y-106728966D01*
X198565706Y-106470986D01*
X198380134Y-106244866D01*
X198154014Y-106059294D01*
X198136626Y-106050000D01*
X198154014Y-106040706D01*
X198380134Y-105855134D01*
X198565706Y-105629014D01*
X198703599Y-105371034D01*
X198788513Y-105091111D01*
X198817185Y-104800000D01*
X198788513Y-104508889D01*
X198703599Y-104228966D01*
X198565706Y-103970986D01*
X198380134Y-103744866D01*
X198154014Y-103559294D01*
X198128278Y-103545538D01*
X198334429Y-103389049D01*
X198527496Y-103171193D01*
X198674352Y-102919858D01*
X198766476Y-102656890D01*
X198645155Y-102427000D01*
X197327000Y-102427000D01*
X197327000Y-102447000D01*
X197073000Y-102447000D01*
X197073000Y-102427000D01*
X195754845Y-102427000D01*
X195633524Y-102656890D01*
X195725648Y-102919858D01*
X195872504Y-103171193D01*
X196065571Y-103389049D01*
X196271722Y-103545538D01*
X196245986Y-103559294D01*
X196019866Y-103744866D01*
X195834294Y-103970986D01*
X195696401Y-104228966D01*
X195611487Y-104508889D01*
X195582815Y-104800000D01*
X195611487Y-105091111D01*
X195696401Y-105371034D01*
X195834294Y-105629014D01*
X196019866Y-105855134D01*
X196245986Y-106040706D01*
X196263374Y-106050000D01*
X196245986Y-106059294D01*
X196019866Y-106244866D01*
X195834294Y-106470986D01*
X195696401Y-106728966D01*
X195611487Y-107008889D01*
X195582815Y-107300000D01*
X195611487Y-107591111D01*
X195696401Y-107871034D01*
X195834294Y-108129014D01*
X196019866Y-108355134D01*
X196083337Y-108407223D01*
X195981614Y-108461595D01*
X195847038Y-108572038D01*
X195770747Y-108665000D01*
X191429253Y-108665000D01*
X191352962Y-108572038D01*
X191218386Y-108461595D01*
X191116663Y-108407223D01*
X191180134Y-108355134D01*
X191365706Y-108129014D01*
X191503599Y-107871034D01*
X191588513Y-107591111D01*
X191617185Y-107300000D01*
X191588513Y-107008889D01*
X191503599Y-106728966D01*
X191365706Y-106470986D01*
X191180134Y-106244866D01*
X190954014Y-106059294D01*
X190936626Y-106050000D01*
X190954014Y-106040706D01*
X191180134Y-105855134D01*
X191365706Y-105629014D01*
X191503599Y-105371034D01*
X191588513Y-105091111D01*
X191617185Y-104800000D01*
X191588513Y-104508889D01*
X191503599Y-104228966D01*
X191365706Y-103970986D01*
X191180134Y-103744866D01*
X190954014Y-103559294D01*
X190928278Y-103545538D01*
X191134429Y-103389049D01*
X191327496Y-103171193D01*
X191474352Y-102919858D01*
X191566476Y-102656890D01*
X191445155Y-102427000D01*
X190127000Y-102427000D01*
X190127000Y-102447000D01*
X189873000Y-102447000D01*
X189873000Y-102427000D01*
X188554845Y-102427000D01*
X188433524Y-102656890D01*
X188525648Y-102919858D01*
X188672504Y-103171193D01*
X188865571Y-103389049D01*
X189071722Y-103545538D01*
X189045986Y-103559294D01*
X188819866Y-103744866D01*
X188634294Y-103970986D01*
X188496401Y-104228966D01*
X188411487Y-104508889D01*
X188382815Y-104800000D01*
X188411487Y-105091111D01*
X188496401Y-105371034D01*
X188634294Y-105629014D01*
X188819866Y-105855134D01*
X189045986Y-106040706D01*
X189063374Y-106050000D01*
X189045986Y-106059294D01*
X188819866Y-106244866D01*
X188634294Y-106470986D01*
X188496401Y-106728966D01*
X188411487Y-107008889D01*
X188382815Y-107300000D01*
X188411487Y-107591111D01*
X188496401Y-107871034D01*
X188634294Y-108129014D01*
X188819866Y-108355134D01*
X188883337Y-108407223D01*
X188781614Y-108461595D01*
X188647038Y-108572038D01*
X188570747Y-108665000D01*
X184029253Y-108665000D01*
X183952962Y-108572038D01*
X183818386Y-108461595D01*
X183716663Y-108407223D01*
X183780134Y-108355134D01*
X183965706Y-108129014D01*
X184103599Y-107871034D01*
X184188513Y-107591111D01*
X184217185Y-107300000D01*
X184188513Y-107008889D01*
X184103599Y-106728966D01*
X183965706Y-106470986D01*
X183780134Y-106244866D01*
X183554014Y-106059294D01*
X183536626Y-106050000D01*
X183554014Y-106040706D01*
X183780134Y-105855134D01*
X183965706Y-105629014D01*
X184103599Y-105371034D01*
X184188513Y-105091111D01*
X184217185Y-104800000D01*
X184188513Y-104508889D01*
X184103599Y-104228966D01*
X183965706Y-103970986D01*
X183780134Y-103744866D01*
X183554014Y-103559294D01*
X183528278Y-103545538D01*
X183734429Y-103389049D01*
X183927496Y-103171193D01*
X184074352Y-102919858D01*
X184166476Y-102656890D01*
X184045155Y-102427000D01*
X182727000Y-102427000D01*
X182727000Y-102447000D01*
X182473000Y-102447000D01*
X182473000Y-102427000D01*
X181154845Y-102427000D01*
X181033524Y-102656890D01*
X181125648Y-102919858D01*
X181272504Y-103171193D01*
X181465571Y-103389049D01*
X181671722Y-103545538D01*
X181645986Y-103559294D01*
X181419866Y-103744866D01*
X181234294Y-103970986D01*
X181096401Y-104228966D01*
X181011487Y-104508889D01*
X180982815Y-104800000D01*
X181011487Y-105091111D01*
X181096401Y-105371034D01*
X181234294Y-105629014D01*
X181419866Y-105855134D01*
X181645986Y-106040706D01*
X181663374Y-106050000D01*
X181645986Y-106059294D01*
X181419866Y-106244866D01*
X181234294Y-106470986D01*
X181096401Y-106728966D01*
X181011487Y-107008889D01*
X180982815Y-107300000D01*
X181011487Y-107591111D01*
X181096401Y-107871034D01*
X181234294Y-108129014D01*
X181419866Y-108355134D01*
X181483337Y-108407223D01*
X181381614Y-108461595D01*
X181247038Y-108572038D01*
X181136595Y-108706614D01*
X181054528Y-108860150D01*
X181003992Y-109026746D01*
X180986928Y-109200000D01*
X180986928Y-109807940D01*
X175909869Y-114885000D01*
X173565107Y-114885000D01*
X173546632Y-114866525D01*
X173303411Y-114704010D01*
X173033158Y-114592068D01*
X172746260Y-114535000D01*
X172453740Y-114535000D01*
X172166842Y-114592068D01*
X171896589Y-114704010D01*
X171653368Y-114866525D01*
X171634893Y-114885000D01*
X164950132Y-114885000D01*
X148263193Y-98198061D01*
X148865000Y-98198061D01*
X148865000Y-98401939D01*
X148904774Y-98601898D01*
X148982795Y-98790256D01*
X149096063Y-98959774D01*
X149240226Y-99103937D01*
X149409744Y-99217205D01*
X149598102Y-99295226D01*
X149798061Y-99335000D01*
X149860199Y-99335000D01*
X156336200Y-105811002D01*
X156359999Y-105840001D01*
X156388997Y-105863799D01*
X156475723Y-105934974D01*
X156607753Y-106005546D01*
X156751014Y-106049003D01*
X156862667Y-106060000D01*
X156862677Y-106060000D01*
X156900000Y-106063676D01*
X156937323Y-106060000D01*
X168396289Y-106060000D01*
X168440226Y-106103937D01*
X168609744Y-106217205D01*
X168798102Y-106295226D01*
X168998061Y-106335000D01*
X169201939Y-106335000D01*
X169401898Y-106295226D01*
X169590256Y-106217205D01*
X169759774Y-106103937D01*
X169803711Y-106060000D01*
X173196289Y-106060000D01*
X173240226Y-106103937D01*
X173409744Y-106217205D01*
X173598102Y-106295226D01*
X173798061Y-106335000D01*
X174001939Y-106335000D01*
X174201898Y-106295226D01*
X174390256Y-106217205D01*
X174559774Y-106103937D01*
X174603711Y-106060000D01*
X175996289Y-106060000D01*
X176040226Y-106103937D01*
X176209744Y-106217205D01*
X176398102Y-106295226D01*
X176598061Y-106335000D01*
X176801939Y-106335000D01*
X177001898Y-106295226D01*
X177190256Y-106217205D01*
X177359774Y-106103937D01*
X177403711Y-106060000D01*
X177985199Y-106060000D01*
X178565000Y-106639802D01*
X178565000Y-106701939D01*
X178604774Y-106901898D01*
X178682795Y-107090256D01*
X178796063Y-107259774D01*
X178940226Y-107403937D01*
X179109744Y-107517205D01*
X179298102Y-107595226D01*
X179498061Y-107635000D01*
X179701939Y-107635000D01*
X179901898Y-107595226D01*
X180090256Y-107517205D01*
X180259774Y-107403937D01*
X180403937Y-107259774D01*
X180517205Y-107090256D01*
X180595226Y-106901898D01*
X180635000Y-106701939D01*
X180635000Y-106498061D01*
X180595226Y-106298102D01*
X180517205Y-106109744D01*
X180403937Y-105940226D01*
X180259774Y-105796063D01*
X180090256Y-105682795D01*
X179901898Y-105604774D01*
X179701939Y-105565000D01*
X179639802Y-105565000D01*
X178863804Y-104789003D01*
X178840001Y-104759999D01*
X178724276Y-104665026D01*
X178592247Y-104594454D01*
X178448986Y-104550997D01*
X178337333Y-104540000D01*
X178337322Y-104540000D01*
X178300000Y-104536324D01*
X178262678Y-104540000D01*
X177403711Y-104540000D01*
X177359774Y-104496063D01*
X177190256Y-104382795D01*
X177001898Y-104304774D01*
X176801939Y-104265000D01*
X176598061Y-104265000D01*
X176398102Y-104304774D01*
X176209744Y-104382795D01*
X176040226Y-104496063D01*
X175996289Y-104540000D01*
X174603711Y-104540000D01*
X174559774Y-104496063D01*
X174390256Y-104382795D01*
X174201898Y-104304774D01*
X174001939Y-104265000D01*
X173798061Y-104265000D01*
X173598102Y-104304774D01*
X173409744Y-104382795D01*
X173240226Y-104496063D01*
X173196289Y-104540000D01*
X169803711Y-104540000D01*
X169759774Y-104496063D01*
X169590256Y-104382795D01*
X169401898Y-104304774D01*
X169201939Y-104265000D01*
X168998061Y-104265000D01*
X168798102Y-104304774D01*
X168609744Y-104382795D01*
X168440226Y-104496063D01*
X168396289Y-104540000D01*
X157214802Y-104540000D01*
X154617912Y-101943110D01*
X181033524Y-101943110D01*
X181154845Y-102173000D01*
X182473000Y-102173000D01*
X182473000Y-100973835D01*
X182727000Y-100973835D01*
X182727000Y-102173000D01*
X184045155Y-102173000D01*
X184166476Y-101943110D01*
X188433524Y-101943110D01*
X188554845Y-102173000D01*
X189873000Y-102173000D01*
X189873000Y-100973835D01*
X190127000Y-100973835D01*
X190127000Y-102173000D01*
X191445155Y-102173000D01*
X191566476Y-101943110D01*
X195633524Y-101943110D01*
X195754845Y-102173000D01*
X197073000Y-102173000D01*
X197073000Y-100973835D01*
X197327000Y-100973835D01*
X197327000Y-102173000D01*
X198645155Y-102173000D01*
X198766476Y-101943110D01*
X198674352Y-101680142D01*
X198527496Y-101428807D01*
X198334429Y-101210951D01*
X198102570Y-101034947D01*
X197840830Y-100907558D01*
X197559267Y-100833680D01*
X197327000Y-100973835D01*
X197073000Y-100973835D01*
X196840733Y-100833680D01*
X196559170Y-100907558D01*
X196297430Y-101034947D01*
X196065571Y-101210951D01*
X195872504Y-101428807D01*
X195725648Y-101680142D01*
X195633524Y-101943110D01*
X191566476Y-101943110D01*
X191474352Y-101680142D01*
X191327496Y-101428807D01*
X191134429Y-101210951D01*
X190902570Y-101034947D01*
X190640830Y-100907558D01*
X190359267Y-100833680D01*
X190127000Y-100973835D01*
X189873000Y-100973835D01*
X189640733Y-100833680D01*
X189359170Y-100907558D01*
X189097430Y-101034947D01*
X188865571Y-101210951D01*
X188672504Y-101428807D01*
X188525648Y-101680142D01*
X188433524Y-101943110D01*
X184166476Y-101943110D01*
X184074352Y-101680142D01*
X183927496Y-101428807D01*
X183734429Y-101210951D01*
X183502570Y-101034947D01*
X183240830Y-100907558D01*
X182959267Y-100833680D01*
X182727000Y-100973835D01*
X182473000Y-100973835D01*
X182240733Y-100833680D01*
X181959170Y-100907558D01*
X181697430Y-101034947D01*
X181465571Y-101210951D01*
X181272504Y-101428807D01*
X181125648Y-101680142D01*
X181033524Y-101943110D01*
X154617912Y-101943110D01*
X150935000Y-98260199D01*
X150935000Y-98198061D01*
X150895226Y-97998102D01*
X150817205Y-97809744D01*
X150703937Y-97640226D01*
X150559774Y-97496063D01*
X150390256Y-97382795D01*
X150201898Y-97304774D01*
X150001939Y-97265000D01*
X149798061Y-97265000D01*
X149598102Y-97304774D01*
X149409744Y-97382795D01*
X149240226Y-97496063D01*
X149096063Y-97640226D01*
X148982795Y-97809744D01*
X148904774Y-97998102D01*
X148865000Y-98198061D01*
X148263193Y-98198061D01*
X147853669Y-97788538D01*
X147891449Y-97742503D01*
X147939410Y-97684062D01*
X148021588Y-97530316D01*
X148021589Y-97530314D01*
X148072195Y-97363491D01*
X148085000Y-97233478D01*
X148085000Y-97233469D01*
X148085191Y-97231528D01*
X148303740Y-97275000D01*
X148596260Y-97275000D01*
X148883158Y-97217932D01*
X149153411Y-97105990D01*
X149396632Y-96943475D01*
X149603475Y-96736632D01*
X149720000Y-96562240D01*
X149836525Y-96736632D01*
X150043368Y-96943475D01*
X150286589Y-97105990D01*
X150556842Y-97217932D01*
X150843740Y-97275000D01*
X151136260Y-97275000D01*
X151423158Y-97217932D01*
X151693411Y-97105990D01*
X151936632Y-96943475D01*
X152143475Y-96736632D01*
X152265195Y-96554466D01*
X152334822Y-96671355D01*
X152529731Y-96887588D01*
X152763080Y-97061641D01*
X153025901Y-97186825D01*
X153173110Y-97231476D01*
X153403000Y-97110155D01*
X153403000Y-95917000D01*
X153383000Y-95917000D01*
X153383000Y-95663000D01*
X153403000Y-95663000D01*
X153403000Y-95643000D01*
X153657000Y-95643000D01*
X153657000Y-95663000D01*
X153677000Y-95663000D01*
X153677000Y-95917000D01*
X153657000Y-95917000D01*
X153657000Y-97110155D01*
X153886890Y-97231476D01*
X154034099Y-97186825D01*
X154296920Y-97061641D01*
X154530269Y-96887588D01*
X154725178Y-96671355D01*
X154794805Y-96554466D01*
X154916525Y-96736632D01*
X155123368Y-96943475D01*
X155366589Y-97105990D01*
X155636842Y-97217932D01*
X155923740Y-97275000D01*
X156216260Y-97275000D01*
X156503158Y-97217932D01*
X156773411Y-97105990D01*
X157016632Y-96943475D01*
X157223475Y-96736632D01*
X157340000Y-96562240D01*
X157456525Y-96736632D01*
X157663368Y-96943475D01*
X157906589Y-97105990D01*
X158176842Y-97217932D01*
X158463740Y-97275000D01*
X158756260Y-97275000D01*
X159043158Y-97217932D01*
X159313411Y-97105990D01*
X159556632Y-96943475D01*
X159763475Y-96736632D01*
X159880000Y-96562240D01*
X159996525Y-96736632D01*
X160203368Y-96943475D01*
X160446589Y-97105990D01*
X160716842Y-97217932D01*
X161003740Y-97275000D01*
X161296260Y-97275000D01*
X161583158Y-97217932D01*
X161853411Y-97105990D01*
X162096632Y-96943475D01*
X162303475Y-96736632D01*
X162420000Y-96562240D01*
X162536525Y-96736632D01*
X162743368Y-96943475D01*
X162986589Y-97105990D01*
X163256842Y-97217932D01*
X163543740Y-97275000D01*
X163836260Y-97275000D01*
X164123158Y-97217932D01*
X164393411Y-97105990D01*
X164636632Y-96943475D01*
X164843475Y-96736632D01*
X164960000Y-96562240D01*
X165076525Y-96736632D01*
X165283368Y-96943475D01*
X165526589Y-97105990D01*
X165796842Y-97217932D01*
X166083740Y-97275000D01*
X166376260Y-97275000D01*
X166663158Y-97217932D01*
X166933411Y-97105990D01*
X167176632Y-96943475D01*
X167383475Y-96736632D01*
X167500000Y-96562240D01*
X167616525Y-96736632D01*
X167823368Y-96943475D01*
X168066589Y-97105990D01*
X168336842Y-97217932D01*
X168623740Y-97275000D01*
X168916260Y-97275000D01*
X169203158Y-97217932D01*
X169473411Y-97105990D01*
X169716632Y-96943475D01*
X169923475Y-96736632D01*
X170040000Y-96562240D01*
X170156525Y-96736632D01*
X170363368Y-96943475D01*
X170606589Y-97105990D01*
X170876842Y-97217932D01*
X171163740Y-97275000D01*
X171456260Y-97275000D01*
X171743158Y-97217932D01*
X172013411Y-97105990D01*
X172256632Y-96943475D01*
X172463475Y-96736632D01*
X172585195Y-96554466D01*
X172654822Y-96671355D01*
X172849731Y-96887588D01*
X173083080Y-97061641D01*
X173345901Y-97186825D01*
X173493110Y-97231476D01*
X173723000Y-97110155D01*
X173723000Y-95917000D01*
X173703000Y-95917000D01*
X173703000Y-95663000D01*
X173723000Y-95663000D01*
X173723000Y-95643000D01*
X173977000Y-95643000D01*
X173977000Y-95663000D01*
X173997000Y-95663000D01*
X173997000Y-95917000D01*
X173977000Y-95917000D01*
X173977000Y-97110155D01*
X174206890Y-97231476D01*
X174354099Y-97186825D01*
X174616920Y-97061641D01*
X174850269Y-96887588D01*
X175045178Y-96671355D01*
X175114805Y-96554466D01*
X175236525Y-96736632D01*
X175443368Y-96943475D01*
X175686589Y-97105990D01*
X175956842Y-97217932D01*
X176243740Y-97275000D01*
X176536260Y-97275000D01*
X176823158Y-97217932D01*
X177093411Y-97105990D01*
X177336632Y-96943475D01*
X177543475Y-96736632D01*
X177660000Y-96562240D01*
X177776525Y-96736632D01*
X177983368Y-96943475D01*
X178226589Y-97105990D01*
X178496842Y-97217932D01*
X178783740Y-97275000D01*
X179076260Y-97275000D01*
X179363158Y-97217932D01*
X179633411Y-97105990D01*
X179876632Y-96943475D01*
X180083475Y-96736632D01*
X180200000Y-96562240D01*
X180316525Y-96736632D01*
X180523368Y-96943475D01*
X180766589Y-97105990D01*
X181036842Y-97217932D01*
X181323740Y-97275000D01*
X181616260Y-97275000D01*
X181903158Y-97217932D01*
X182173411Y-97105990D01*
X182416632Y-96943475D01*
X182623475Y-96736632D01*
X182740000Y-96562240D01*
X182856525Y-96736632D01*
X183063368Y-96943475D01*
X183306589Y-97105990D01*
X183576842Y-97217932D01*
X183863740Y-97275000D01*
X184156260Y-97275000D01*
X184443158Y-97217932D01*
X184713411Y-97105990D01*
X184956632Y-96943475D01*
X185163475Y-96736632D01*
X185280000Y-96562240D01*
X185396525Y-96736632D01*
X185603368Y-96943475D01*
X185846589Y-97105990D01*
X186116842Y-97217932D01*
X186403740Y-97275000D01*
X186696260Y-97275000D01*
X186983158Y-97217932D01*
X187253411Y-97105990D01*
X187496632Y-96943475D01*
X187703475Y-96736632D01*
X187820000Y-96562240D01*
X187936525Y-96736632D01*
X188143368Y-96943475D01*
X188386589Y-97105990D01*
X188656842Y-97217932D01*
X188943740Y-97275000D01*
X189236260Y-97275000D01*
X189523158Y-97217932D01*
X189793411Y-97105990D01*
X190036632Y-96943475D01*
X190243475Y-96736632D01*
X190365195Y-96554466D01*
X190434822Y-96671355D01*
X190629731Y-96887588D01*
X190863080Y-97061641D01*
X191125901Y-97186825D01*
X191273110Y-97231476D01*
X191503000Y-97110155D01*
X191503000Y-95917000D01*
X191757000Y-95917000D01*
X191757000Y-97110155D01*
X191986890Y-97231476D01*
X192134099Y-97186825D01*
X192396920Y-97061641D01*
X192630269Y-96887588D01*
X192825178Y-96671355D01*
X192974157Y-96421252D01*
X193071481Y-96146891D01*
X192950814Y-95917000D01*
X191757000Y-95917000D01*
X191503000Y-95917000D01*
X191483000Y-95917000D01*
X191483000Y-95663000D01*
X191503000Y-95663000D01*
X191503000Y-95643000D01*
X191757000Y-95643000D01*
X191757000Y-95663000D01*
X192950814Y-95663000D01*
X193071481Y-95433109D01*
X192974157Y-95158748D01*
X192825178Y-94908645D01*
X192630269Y-94692412D01*
X192400594Y-94521100D01*
X192576632Y-94403475D01*
X192783475Y-94196632D01*
X192945990Y-93953411D01*
X193057932Y-93683158D01*
X193115000Y-93396260D01*
X193115000Y-93103740D01*
X193057932Y-92816842D01*
X192945990Y-92546589D01*
X192783475Y-92303368D01*
X192576632Y-92096525D01*
X192333411Y-91934010D01*
X192063158Y-91822068D01*
X191776260Y-91765000D01*
X191483740Y-91765000D01*
X191196842Y-91822068D01*
X190926589Y-91934010D01*
X190683368Y-92096525D01*
X190476525Y-92303368D01*
X190360000Y-92477760D01*
X190243475Y-92303368D01*
X190036632Y-92096525D01*
X189793411Y-91934010D01*
X189523158Y-91822068D01*
X189236260Y-91765000D01*
X188943740Y-91765000D01*
X188656842Y-91822068D01*
X188386589Y-91934010D01*
X188143368Y-92096525D01*
X187936525Y-92303368D01*
X187820000Y-92477760D01*
X187703475Y-92303368D01*
X187496632Y-92096525D01*
X187253411Y-91934010D01*
X186983158Y-91822068D01*
X186696260Y-91765000D01*
X186403740Y-91765000D01*
X186116842Y-91822068D01*
X185846589Y-91934010D01*
X185603368Y-92096525D01*
X185396525Y-92303368D01*
X185274805Y-92485534D01*
X185205178Y-92368645D01*
X185010269Y-92152412D01*
X184776920Y-91978359D01*
X184514099Y-91853175D01*
X184366890Y-91808524D01*
X184137000Y-91929845D01*
X184137000Y-93123000D01*
X184157000Y-93123000D01*
X184157000Y-93377000D01*
X184137000Y-93377000D01*
X184137000Y-93397000D01*
X183883000Y-93397000D01*
X183883000Y-93377000D01*
X183863000Y-93377000D01*
X183863000Y-93123000D01*
X183883000Y-93123000D01*
X183883000Y-91929845D01*
X183653110Y-91808524D01*
X183505901Y-91853175D01*
X183243080Y-91978359D01*
X183009731Y-92152412D01*
X182814822Y-92368645D01*
X182745195Y-92485534D01*
X182623475Y-92303368D01*
X182416632Y-92096525D01*
X182173411Y-91934010D01*
X181903158Y-91822068D01*
X181616260Y-91765000D01*
X181323740Y-91765000D01*
X181036842Y-91822068D01*
X180766589Y-91934010D01*
X180523368Y-92096525D01*
X180316525Y-92303368D01*
X180194805Y-92485534D01*
X180125178Y-92368645D01*
X179930269Y-92152412D01*
X179696920Y-91978359D01*
X179434099Y-91853175D01*
X179286890Y-91808524D01*
X179057000Y-91929845D01*
X179057000Y-93123000D01*
X179077000Y-93123000D01*
X179077000Y-93377000D01*
X179057000Y-93377000D01*
X179057000Y-93397000D01*
X178803000Y-93397000D01*
X178803000Y-93377000D01*
X178783000Y-93377000D01*
X178783000Y-93123000D01*
X178803000Y-93123000D01*
X178803000Y-91929845D01*
X178573110Y-91808524D01*
X178425901Y-91853175D01*
X178163080Y-91978359D01*
X177929731Y-92152412D01*
X177734822Y-92368645D01*
X177665195Y-92485534D01*
X177543475Y-92303368D01*
X177336632Y-92096525D01*
X177093411Y-91934010D01*
X176823158Y-91822068D01*
X176536260Y-91765000D01*
X176243740Y-91765000D01*
X175956842Y-91822068D01*
X175686589Y-91934010D01*
X175443368Y-92096525D01*
X175236525Y-92303368D01*
X175120000Y-92477760D01*
X175003475Y-92303368D01*
X174796632Y-92096525D01*
X174553411Y-91934010D01*
X174283158Y-91822068D01*
X173996260Y-91765000D01*
X173703740Y-91765000D01*
X173416842Y-91822068D01*
X173146589Y-91934010D01*
X172903368Y-92096525D01*
X172696525Y-92303368D01*
X172580000Y-92477760D01*
X172463475Y-92303368D01*
X172256632Y-92096525D01*
X172013411Y-91934010D01*
X171743158Y-91822068D01*
X171456260Y-91765000D01*
X171163740Y-91765000D01*
X170876842Y-91822068D01*
X170606589Y-91934010D01*
X170363368Y-92096525D01*
X170156525Y-92303368D01*
X170040000Y-92477760D01*
X169923475Y-92303368D01*
X169716632Y-92096525D01*
X169473411Y-91934010D01*
X169203158Y-91822068D01*
X168916260Y-91765000D01*
X168623740Y-91765000D01*
X168336842Y-91822068D01*
X168066589Y-91934010D01*
X167823368Y-92096525D01*
X167616525Y-92303368D01*
X167494805Y-92485534D01*
X167425178Y-92368645D01*
X167230269Y-92152412D01*
X166996920Y-91978359D01*
X166734099Y-91853175D01*
X166586890Y-91808524D01*
X166357000Y-91929845D01*
X166357000Y-93123000D01*
X166377000Y-93123000D01*
X166377000Y-93377000D01*
X166357000Y-93377000D01*
X166357000Y-93397000D01*
X166103000Y-93397000D01*
X166103000Y-93377000D01*
X166083000Y-93377000D01*
X166083000Y-93123000D01*
X166103000Y-93123000D01*
X166103000Y-91929845D01*
X165873110Y-91808524D01*
X165725901Y-91853175D01*
X165463080Y-91978359D01*
X165229731Y-92152412D01*
X165034822Y-92368645D01*
X164965195Y-92485534D01*
X164843475Y-92303368D01*
X164636632Y-92096525D01*
X164393411Y-91934010D01*
X164123158Y-91822068D01*
X163836260Y-91765000D01*
X163543740Y-91765000D01*
X163256842Y-91822068D01*
X162986589Y-91934010D01*
X162743368Y-92096525D01*
X162536525Y-92303368D01*
X162420000Y-92477760D01*
X162303475Y-92303368D01*
X162096632Y-92096525D01*
X161853411Y-91934010D01*
X161583158Y-91822068D01*
X161296260Y-91765000D01*
X161003740Y-91765000D01*
X160716842Y-91822068D01*
X160446589Y-91934010D01*
X160203368Y-92096525D01*
X159996525Y-92303368D01*
X159874805Y-92485534D01*
X159805178Y-92368645D01*
X159610269Y-92152412D01*
X159376920Y-91978359D01*
X159114099Y-91853175D01*
X158966890Y-91808524D01*
X158737000Y-91929845D01*
X158737000Y-93123000D01*
X158757000Y-93123000D01*
X158757000Y-93377000D01*
X158737000Y-93377000D01*
X158737000Y-93397000D01*
X158483000Y-93397000D01*
X158483000Y-93377000D01*
X158463000Y-93377000D01*
X158463000Y-93123000D01*
X158483000Y-93123000D01*
X158483000Y-91929845D01*
X158253110Y-91808524D01*
X158105901Y-91853175D01*
X157843080Y-91978359D01*
X157609731Y-92152412D01*
X157414822Y-92368645D01*
X157345195Y-92485534D01*
X157223475Y-92303368D01*
X157016632Y-92096525D01*
X156773411Y-91934010D01*
X156503158Y-91822068D01*
X156216260Y-91765000D01*
X155923740Y-91765000D01*
X155636842Y-91822068D01*
X155366589Y-91934010D01*
X155123368Y-92096525D01*
X154916525Y-92303368D01*
X154800000Y-92477760D01*
X154683475Y-92303368D01*
X154476632Y-92096525D01*
X154233411Y-91934010D01*
X153963158Y-91822068D01*
X153676260Y-91765000D01*
X153383740Y-91765000D01*
X153096842Y-91822068D01*
X152826589Y-91934010D01*
X152583368Y-92096525D01*
X152376525Y-92303368D01*
X152260000Y-92477760D01*
X152143475Y-92303368D01*
X151936632Y-92096525D01*
X151693411Y-91934010D01*
X151423158Y-91822068D01*
X151136260Y-91765000D01*
X150843740Y-91765000D01*
X150556842Y-91822068D01*
X150286589Y-91934010D01*
X150043368Y-92096525D01*
X149836525Y-92303368D01*
X149714805Y-92485534D01*
X149645178Y-92368645D01*
X149450269Y-92152412D01*
X149216920Y-91978359D01*
X148954099Y-91853175D01*
X148806890Y-91808524D01*
X148577000Y-91929845D01*
X148577000Y-93123000D01*
X148597000Y-93123000D01*
X148597000Y-93377000D01*
X148577000Y-93377000D01*
X148577000Y-93397000D01*
X148323000Y-93397000D01*
X148323000Y-93377000D01*
X148303000Y-93377000D01*
X148303000Y-93123000D01*
X148323000Y-93123000D01*
X148323000Y-91929845D01*
X148093110Y-91808524D01*
X147945901Y-91853175D01*
X147683080Y-91978359D01*
X147449731Y-92152412D01*
X147254822Y-92368645D01*
X147185195Y-92485534D01*
X147063475Y-92303368D01*
X146856632Y-92096525D01*
X146613411Y-91934010D01*
X146343158Y-91822068D01*
X146056260Y-91765000D01*
X145763740Y-91765000D01*
X145476842Y-91822068D01*
X145206589Y-91934010D01*
X144963368Y-92096525D01*
X144756525Y-92303368D01*
X144640000Y-92477760D01*
X144523475Y-92303368D01*
X144316632Y-92096525D01*
X144073411Y-91934010D01*
X143803158Y-91822068D01*
X143516260Y-91765000D01*
X143223740Y-91765000D01*
X142936842Y-91822068D01*
X142666589Y-91934010D01*
X142423368Y-92096525D01*
X142216525Y-92303368D01*
X142177569Y-92361670D01*
X142167918Y-92360719D01*
X142124452Y-92365000D01*
X142124442Y-92365000D01*
X141994429Y-92377805D01*
X141827606Y-92428411D01*
X141673860Y-92510589D01*
X141539102Y-92621183D01*
X141511385Y-92654956D01*
X141454957Y-92711384D01*
X141442794Y-92721366D01*
X141168138Y-92310315D01*
X140689685Y-91831862D01*
X140432475Y-91660000D01*
X194567525Y-91660000D01*
X194310315Y-91831862D01*
%TA.AperFunction,Conductor*%
D22*
G36*
X194310315Y-91831862D02*
G01*
X193831862Y-92310315D01*
X193455943Y-92872918D01*
X193197006Y-93498048D01*
X193065000Y-94161682D01*
X193065000Y-94838318D01*
X193197006Y-95501952D01*
X193455943Y-96127082D01*
X193831862Y-96689685D01*
X194310315Y-97168138D01*
X194872918Y-97544057D01*
X195498048Y-97802994D01*
X196161682Y-97935000D01*
X196838318Y-97935000D01*
X197501952Y-97802994D01*
X198127082Y-97544057D01*
X198689685Y-97168138D01*
X199168138Y-96689685D01*
X199338743Y-96434357D01*
X199326315Y-115547045D01*
X199168138Y-115310315D01*
X198689685Y-114831862D01*
X198127082Y-114455943D01*
X197501952Y-114197006D01*
X196838318Y-114065000D01*
X196161682Y-114065000D01*
X195498048Y-114197006D01*
X194872918Y-114455943D01*
X194310315Y-114831862D01*
X193831862Y-115310315D01*
X193455943Y-115872918D01*
X193197006Y-116498048D01*
X193065000Y-117161682D01*
X193065000Y-117838318D01*
X193197006Y-118501952D01*
X193455943Y-119127082D01*
X193831862Y-119689685D01*
X194310315Y-120168138D01*
X194872918Y-120544057D01*
X195498048Y-120802994D01*
X196161682Y-120935000D01*
X196838318Y-120935000D01*
X197501952Y-120802994D01*
X198127082Y-120544057D01*
X198689685Y-120168138D01*
X199168138Y-119689685D01*
X199323773Y-119456760D01*
X199313973Y-134528573D01*
X199168138Y-134310315D01*
X198689685Y-133831862D01*
X198127082Y-133455943D01*
X197501952Y-133197006D01*
X196838318Y-133065000D01*
X196161682Y-133065000D01*
X195498048Y-133197006D01*
X194872918Y-133455943D01*
X194310315Y-133831862D01*
X193831862Y-134310315D01*
X193455943Y-134872918D01*
X193197006Y-135498048D01*
X193065000Y-136161682D01*
X193065000Y-136838318D01*
X193197006Y-137501952D01*
X193455943Y-138127082D01*
X193831862Y-138689685D01*
X194310315Y-139168138D01*
X194567525Y-139340000D01*
X140432475Y-139340000D01*
X140689685Y-139168138D01*
X141168138Y-138689685D01*
X141544057Y-138127082D01*
X141802994Y-137501952D01*
X141935000Y-136838318D01*
X141935000Y-136161682D01*
X141802994Y-135498048D01*
X141544057Y-134872918D01*
X141168138Y-134310315D01*
X140689685Y-133831862D01*
X140127082Y-133455943D01*
X139501952Y-133197006D01*
X138838318Y-133065000D01*
X138161682Y-133065000D01*
X137498048Y-133197006D01*
X136872918Y-133455943D01*
X136310315Y-133831862D01*
X135831862Y-134310315D01*
X135660000Y-134567525D01*
X135660000Y-131171653D01*
X137787952Y-131171653D01*
X137943962Y-131487214D01*
X138318745Y-131678020D01*
X138723551Y-131792044D01*
X139142824Y-131824902D01*
X139560451Y-131775334D01*
X139960383Y-131645243D01*
X140256038Y-131487214D01*
X140412048Y-131171653D01*
X139100000Y-129859605D01*
X137787952Y-131171653D01*
X135660000Y-131171653D01*
X135660000Y-129722824D01*
X136955098Y-129722824D01*
X137004666Y-130140451D01*
X137134757Y-130540383D01*
X137292786Y-130836038D01*
X137608347Y-130992048D01*
X138920395Y-129680000D01*
X139279605Y-129680000D01*
X140591653Y-130992048D01*
X140907214Y-130836038D01*
X141098020Y-130461255D01*
X141212044Y-130056449D01*
X141244902Y-129637176D01*
X141195334Y-129219549D01*
X141065243Y-128819617D01*
X140907214Y-128523962D01*
X140591653Y-128367952D01*
X139279605Y-129680000D01*
X138920395Y-129680000D01*
X137608347Y-128367952D01*
X137292786Y-128523962D01*
X137101980Y-128898745D01*
X136987956Y-129303551D01*
X136955098Y-129722824D01*
X135660000Y-129722824D01*
X135660000Y-128188347D01*
X137787952Y-128188347D01*
X139100000Y-129500395D01*
X140412048Y-128188347D01*
X140256038Y-127872786D01*
X139881255Y-127681980D01*
X139476449Y-127567956D01*
X139057176Y-127535098D01*
X138639549Y-127584666D01*
X138239617Y-127714757D01*
X137943962Y-127872786D01*
X137787952Y-128188347D01*
X135660000Y-128188347D01*
X135660000Y-119432475D01*
X135831862Y-119689685D01*
X136310315Y-120168138D01*
X136872918Y-120544057D01*
X137498048Y-120802994D01*
X138161682Y-120935000D01*
X138838318Y-120935000D01*
X139501952Y-120802994D01*
X140127082Y-120544057D01*
X140689685Y-120168138D01*
X141168138Y-119689685D01*
X141544057Y-119127082D01*
X141802994Y-118501952D01*
X141935000Y-117838318D01*
X141935000Y-117161682D01*
X141802994Y-116498048D01*
X141544057Y-115872918D01*
X141168138Y-115310315D01*
X140689685Y-114831862D01*
X140127082Y-114455943D01*
X139501952Y-114197006D01*
X138838318Y-114065000D01*
X138161682Y-114065000D01*
X137498048Y-114197006D01*
X136872918Y-114455943D01*
X136310315Y-114831862D01*
X135831862Y-115310315D01*
X135660000Y-115567525D01*
X135660000Y-110056890D01*
X136133524Y-110056890D01*
X136225648Y-110319858D01*
X136372504Y-110571193D01*
X136565571Y-110789049D01*
X136797430Y-110965053D01*
X137059170Y-111092442D01*
X137340733Y-111166320D01*
X137573000Y-111026165D01*
X137573000Y-109827000D01*
X137827000Y-109827000D01*
X137827000Y-111026165D01*
X138059267Y-111166320D01*
X138340830Y-111092442D01*
X138602570Y-110965053D01*
X138834429Y-110789049D01*
X139027496Y-110571193D01*
X139174352Y-110319858D01*
X139266476Y-110056890D01*
X139145155Y-109827000D01*
X137827000Y-109827000D01*
X137573000Y-109827000D01*
X136254845Y-109827000D01*
X136133524Y-110056890D01*
X135660000Y-110056890D01*
X135660000Y-96432475D01*
X135831862Y-96689685D01*
X136310315Y-97168138D01*
X136872918Y-97544057D01*
X137498048Y-97802994D01*
X138161682Y-97935000D01*
X138838318Y-97935000D01*
X139501952Y-97802994D01*
X140127082Y-97544057D01*
X140689685Y-97168138D01*
X140884999Y-96972824D01*
X140884999Y-97196532D01*
X140880718Y-97240001D01*
X140884999Y-97283470D01*
X140884999Y-97283477D01*
X140897804Y-97413490D01*
X140915000Y-97470177D01*
X140915001Y-99756521D01*
X140910719Y-99800000D01*
X140927805Y-99973490D01*
X140978412Y-100140313D01*
X141060590Y-100294059D01*
X141078719Y-100316149D01*
X140329869Y-101065000D01*
X139129253Y-101065000D01*
X139052962Y-100972038D01*
X138918386Y-100861595D01*
X138764850Y-100779528D01*
X138598254Y-100728992D01*
X138425000Y-100711928D01*
X136975000Y-100711928D01*
X136801746Y-100728992D01*
X136635150Y-100779528D01*
X136481614Y-100861595D01*
X136347038Y-100972038D01*
X136236595Y-101106614D01*
X136154528Y-101260150D01*
X136103992Y-101426746D01*
X136086928Y-101600000D01*
X136086928Y-102800000D01*
X136103992Y-102973254D01*
X136154528Y-103139850D01*
X136236595Y-103293386D01*
X136347038Y-103427962D01*
X136481614Y-103538405D01*
X136583337Y-103592777D01*
X136519866Y-103644866D01*
X136334294Y-103870986D01*
X136196401Y-104128966D01*
X136111487Y-104408889D01*
X136082815Y-104700000D01*
X136111487Y-104991111D01*
X136196401Y-105271034D01*
X136334294Y-105529014D01*
X136519866Y-105755134D01*
X136745986Y-105940706D01*
X136763374Y-105950000D01*
X136745986Y-105959294D01*
X136519866Y-106144866D01*
X136334294Y-106370986D01*
X136196401Y-106628966D01*
X136111487Y-106908889D01*
X136082815Y-107200000D01*
X136111487Y-107491111D01*
X136196401Y-107771034D01*
X136334294Y-108029014D01*
X136519866Y-108255134D01*
X136745986Y-108440706D01*
X136771722Y-108454462D01*
X136565571Y-108610951D01*
X136372504Y-108828807D01*
X136225648Y-109080142D01*
X136133524Y-109343110D01*
X136254845Y-109573000D01*
X137573000Y-109573000D01*
X137573000Y-109553000D01*
X137827000Y-109553000D01*
X137827000Y-109573000D01*
X139145155Y-109573000D01*
X139266476Y-109343110D01*
X139174352Y-109080142D01*
X139027496Y-108828807D01*
X138834429Y-108610951D01*
X138628278Y-108454462D01*
X138654014Y-108440706D01*
X138880134Y-108255134D01*
X139065706Y-108029014D01*
X139203599Y-107771034D01*
X139288513Y-107491111D01*
X139317185Y-107200000D01*
X139288513Y-106908889D01*
X139203599Y-106628966D01*
X139065706Y-106370986D01*
X138880134Y-106144866D01*
X138654014Y-105959294D01*
X138636626Y-105950000D01*
X138654014Y-105940706D01*
X138880134Y-105755134D01*
X139065706Y-105529014D01*
X139203599Y-105271034D01*
X139288513Y-104991111D01*
X139317185Y-104700000D01*
X139288513Y-104408889D01*
X139203599Y-104128966D01*
X139065706Y-103870986D01*
X138880134Y-103644866D01*
X138816663Y-103592777D01*
X138918386Y-103538405D01*
X139052962Y-103427962D01*
X139129253Y-103335000D01*
X140744249Y-103335000D01*
X140800000Y-103340491D01*
X140855751Y-103335000D01*
X140855752Y-103335000D01*
X141022499Y-103318577D01*
X141236447Y-103253676D01*
X141433623Y-103148284D01*
X141606449Y-103006449D01*
X141641996Y-102963135D01*
X143341988Y-101263144D01*
X143341992Y-101263139D01*
X145505131Y-99100001D01*
X145954870Y-99100001D01*
X163638009Y-116783141D01*
X163673551Y-116826449D01*
X163846377Y-116968284D01*
X164043553Y-117073676D01*
X164257501Y-117138577D01*
X164424248Y-117155000D01*
X164424257Y-117155000D01*
X164479999Y-117160490D01*
X164535741Y-117155000D01*
X171634893Y-117155000D01*
X171653368Y-117173475D01*
X171827760Y-117290000D01*
X171653368Y-117406525D01*
X171634893Y-117425000D01*
X170995741Y-117425000D01*
X170939999Y-117419510D01*
X170884257Y-117425000D01*
X170884248Y-117425000D01*
X170717501Y-117441423D01*
X170503553Y-117506324D01*
X170306377Y-117611716D01*
X170133551Y-117753551D01*
X170098009Y-117796859D01*
X165822719Y-122072150D01*
X165581426Y-122120147D01*
X165320273Y-122228320D01*
X165085241Y-122385363D01*
X164885363Y-122585241D01*
X164728320Y-122820273D01*
X164620147Y-123081426D01*
X164565000Y-123358665D01*
X164565000Y-123641335D01*
X164620147Y-123918574D01*
X164728320Y-124179727D01*
X164885363Y-124414759D01*
X165085241Y-124614637D01*
X165320273Y-124771680D01*
X165581426Y-124879853D01*
X165858665Y-124935000D01*
X166141335Y-124935000D01*
X166418574Y-124879853D01*
X166679727Y-124771680D01*
X166914759Y-124614637D01*
X167114637Y-124414759D01*
X167271680Y-124179727D01*
X167379853Y-123918574D01*
X167427850Y-123677281D01*
X171264483Y-119840649D01*
X171219463Y-119895506D01*
X171160498Y-120005820D01*
X171124188Y-120125518D01*
X171111928Y-120250000D01*
X171111928Y-121950000D01*
X171124188Y-122074482D01*
X171160498Y-122194180D01*
X171219463Y-122304494D01*
X171251426Y-122343442D01*
X167429869Y-126165000D01*
X156755741Y-126165000D01*
X156699999Y-126159510D01*
X156644257Y-126165000D01*
X156635000Y-126165000D01*
X156635000Y-125384284D01*
X156771680Y-125179727D01*
X156879853Y-124918574D01*
X156935000Y-124641335D01*
X156935000Y-124358665D01*
X156879853Y-124081426D01*
X156771680Y-123820273D01*
X156614637Y-123585241D01*
X156414759Y-123385363D01*
X156179727Y-123228320D01*
X155918574Y-123120147D01*
X155641335Y-123065000D01*
X155358665Y-123065000D01*
X155081426Y-123120147D01*
X154820273Y-123228320D01*
X154585241Y-123385363D01*
X154385363Y-123585241D01*
X154228320Y-123820273D01*
X154120147Y-124081426D01*
X154065000Y-124358665D01*
X154065000Y-124641335D01*
X154120147Y-124918574D01*
X154228320Y-125179727D01*
X154365000Y-125384284D01*
X154365001Y-126165000D01*
X148635000Y-126165000D01*
X148635000Y-125384284D01*
X148771680Y-125179727D01*
X148879853Y-124918574D01*
X148935000Y-124641335D01*
X148935000Y-124358665D01*
X148879853Y-124081426D01*
X148771680Y-123820273D01*
X148614637Y-123585241D01*
X148414759Y-123385363D01*
X148179727Y-123228320D01*
X147918574Y-123120147D01*
X147641335Y-123065000D01*
X147358665Y-123065000D01*
X147081426Y-123120147D01*
X146820273Y-123228320D01*
X146585241Y-123385363D01*
X146385363Y-123585241D01*
X146228320Y-123820273D01*
X146120147Y-124081426D01*
X146065000Y-124358665D01*
X146065000Y-124641335D01*
X146120147Y-124918574D01*
X146228320Y-125179727D01*
X146365000Y-125384284D01*
X146365001Y-125759868D01*
X144441996Y-123836865D01*
X144406449Y-123793551D01*
X144233623Y-123651716D01*
X144036447Y-123546324D01*
X143822499Y-123481423D01*
X143655752Y-123465000D01*
X143655751Y-123465000D01*
X143600000Y-123459509D01*
X143544249Y-123465000D01*
X141238072Y-123465000D01*
X141238072Y-123100000D01*
X141225812Y-122975518D01*
X141189502Y-122855820D01*
X141130537Y-122745506D01*
X141051185Y-122648815D01*
X140954494Y-122569463D01*
X140844180Y-122510498D01*
X140724482Y-122474188D01*
X140600000Y-122461928D01*
X137600000Y-122461928D01*
X137475518Y-122474188D01*
X137355820Y-122510498D01*
X137245506Y-122569463D01*
X137148815Y-122648815D01*
X137069463Y-122745506D01*
X137010498Y-122855820D01*
X136974188Y-122975518D01*
X136961928Y-123100000D01*
X136961928Y-126100000D01*
X136974188Y-126224482D01*
X137010498Y-126344180D01*
X137069463Y-126454494D01*
X137148815Y-126551185D01*
X137245506Y-126630537D01*
X137355820Y-126689502D01*
X137475518Y-126725812D01*
X137600000Y-126738072D01*
X140600000Y-126738072D01*
X140724482Y-126725812D01*
X140844180Y-126689502D01*
X140954494Y-126630537D01*
X141051185Y-126551185D01*
X141130537Y-126454494D01*
X141189502Y-126344180D01*
X141225812Y-126224482D01*
X141238072Y-126100000D01*
X141238072Y-125735000D01*
X143129869Y-125735000D01*
X145165000Y-127770133D01*
X145165001Y-133961928D01*
X144800000Y-133961928D01*
X144675518Y-133974188D01*
X144555820Y-134010498D01*
X144445506Y-134069463D01*
X144348815Y-134148815D01*
X144269463Y-134245506D01*
X144210498Y-134355820D01*
X144174188Y-134475518D01*
X144161928Y-134600000D01*
X144161928Y-137600000D01*
X144174188Y-137724482D01*
X144210498Y-137844180D01*
X144269463Y-137954494D01*
X144348815Y-138051185D01*
X144445506Y-138130537D01*
X144555820Y-138189502D01*
X144675518Y-138225812D01*
X144800000Y-138238072D01*
X147800000Y-138238072D01*
X147924482Y-138225812D01*
X148044180Y-138189502D01*
X148154494Y-138130537D01*
X148251185Y-138051185D01*
X148330537Y-137954494D01*
X148389502Y-137844180D01*
X148425812Y-137724482D01*
X148438072Y-137600000D01*
X148438072Y-135889721D01*
X149245000Y-135889721D01*
X149245000Y-136310279D01*
X149327047Y-136722756D01*
X149487988Y-137111302D01*
X149721637Y-137460983D01*
X150019017Y-137758363D01*
X150368698Y-137992012D01*
X150757244Y-138152953D01*
X151169721Y-138235000D01*
X151590279Y-138235000D01*
X152002756Y-138152953D01*
X152391302Y-137992012D01*
X152740983Y-137758363D01*
X153038363Y-137460983D01*
X153272012Y-137111302D01*
X153432953Y-136722756D01*
X153515000Y-136310279D01*
X153515000Y-135889721D01*
X153432953Y-135477244D01*
X153272012Y-135088698D01*
X153038363Y-134739017D01*
X152740983Y-134441637D01*
X152391302Y-134207988D01*
X152002756Y-134047047D01*
X151590279Y-133965000D01*
X151169721Y-133965000D01*
X150757244Y-134047047D01*
X150368698Y-134207988D01*
X150019017Y-134441637D01*
X149721637Y-134739017D01*
X149487988Y-135088698D01*
X149327047Y-135477244D01*
X149245000Y-135889721D01*
X148438072Y-135889721D01*
X148438072Y-134600000D01*
X148425812Y-134475518D01*
X148389502Y-134355820D01*
X148330537Y-134245506D01*
X148251185Y-134148815D01*
X148154494Y-134069463D01*
X148044180Y-134010498D01*
X147924482Y-133974188D01*
X147800000Y-133961928D01*
X147435000Y-133961928D01*
X147435000Y-128435000D01*
X147744248Y-128435000D01*
X147799999Y-128440491D01*
X147855751Y-128435000D01*
X155144249Y-128435000D01*
X155200000Y-128440491D01*
X155255751Y-128435000D01*
X155325001Y-128435000D01*
X155325000Y-134290640D01*
X155099017Y-134441637D01*
X154801637Y-134739017D01*
X154567988Y-135088698D01*
X154407047Y-135477244D01*
X154325000Y-135889721D01*
X154325000Y-136310279D01*
X154407047Y-136722756D01*
X154567988Y-137111302D01*
X154801637Y-137460983D01*
X155099017Y-137758363D01*
X155448698Y-137992012D01*
X155837244Y-138152953D01*
X156249721Y-138235000D01*
X156670279Y-138235000D01*
X157082756Y-138152953D01*
X157471302Y-137992012D01*
X157820983Y-137758363D01*
X158118363Y-137460983D01*
X158352012Y-137111302D01*
X158512953Y-136722756D01*
X158595000Y-136310279D01*
X158595000Y-135889721D01*
X159405000Y-135889721D01*
X159405000Y-136310279D01*
X159487047Y-136722756D01*
X159647988Y-137111302D01*
X159881637Y-137460983D01*
X160179017Y-137758363D01*
X160528698Y-137992012D01*
X160917244Y-138152953D01*
X161329721Y-138235000D01*
X161750279Y-138235000D01*
X162162756Y-138152953D01*
X162551302Y-137992012D01*
X162900983Y-137758363D01*
X163198363Y-137460983D01*
X163432012Y-137111302D01*
X163592953Y-136722756D01*
X163675000Y-136310279D01*
X163675000Y-135889721D01*
X164485000Y-135889721D01*
X164485000Y-136310279D01*
X164567047Y-136722756D01*
X164727988Y-137111302D01*
X164961637Y-137460983D01*
X165259017Y-137758363D01*
X165608698Y-137992012D01*
X165997244Y-138152953D01*
X166409721Y-138235000D01*
X166830279Y-138235000D01*
X167242756Y-138152953D01*
X167631302Y-137992012D01*
X167980983Y-137758363D01*
X168278363Y-137460983D01*
X168512012Y-137111302D01*
X168672953Y-136722756D01*
X168755000Y-136310279D01*
X168755000Y-135889721D01*
X169565000Y-135889721D01*
X169565000Y-136310279D01*
X169647047Y-136722756D01*
X169807988Y-137111302D01*
X170041637Y-137460983D01*
X170339017Y-137758363D01*
X170688698Y-137992012D01*
X171077244Y-138152953D01*
X171489721Y-138235000D01*
X171910279Y-138235000D01*
X172322756Y-138152953D01*
X172711302Y-137992012D01*
X173060983Y-137758363D01*
X173358363Y-137460983D01*
X173592012Y-137111302D01*
X173752953Y-136722756D01*
X173835000Y-136310279D01*
X173835000Y-135889721D01*
X173752953Y-135477244D01*
X173592012Y-135088698D01*
X173358363Y-134739017D01*
X173060983Y-134441637D01*
X172998669Y-134400000D01*
X179061928Y-134400000D01*
X179061928Y-137400000D01*
X179074188Y-137524482D01*
X179110498Y-137644180D01*
X179169463Y-137754494D01*
X179248815Y-137851185D01*
X179345506Y-137930537D01*
X179455820Y-137989502D01*
X179575518Y-138025812D01*
X179700000Y-138038072D01*
X182700000Y-138038072D01*
X182824482Y-138025812D01*
X182944180Y-137989502D01*
X183054494Y-137930537D01*
X183151185Y-137851185D01*
X183230537Y-137754494D01*
X183289502Y-137644180D01*
X183325812Y-137524482D01*
X183338072Y-137400000D01*
X183338072Y-135689721D01*
X184145000Y-135689721D01*
X184145000Y-136110279D01*
X184227047Y-136522756D01*
X184387988Y-136911302D01*
X184621637Y-137260983D01*
X184919017Y-137558363D01*
X185268698Y-137792012D01*
X185657244Y-137952953D01*
X186069721Y-138035000D01*
X186490279Y-138035000D01*
X186902756Y-137952953D01*
X187291302Y-137792012D01*
X187640983Y-137558363D01*
X187938363Y-137260983D01*
X188172012Y-136911302D01*
X188332953Y-136522756D01*
X188415000Y-136110279D01*
X188415000Y-135689721D01*
X188332953Y-135277244D01*
X188172012Y-134888698D01*
X187938363Y-134539017D01*
X187640983Y-134241637D01*
X187291302Y-134007988D01*
X186902756Y-133847047D01*
X186490279Y-133765000D01*
X186069721Y-133765000D01*
X185657244Y-133847047D01*
X185268698Y-134007988D01*
X184919017Y-134241637D01*
X184621637Y-134539017D01*
X184387988Y-134888698D01*
X184227047Y-135277244D01*
X184145000Y-135689721D01*
X183338072Y-135689721D01*
X183338072Y-134400000D01*
X183325812Y-134275518D01*
X183289502Y-134155820D01*
X183230537Y-134045506D01*
X183151185Y-133948815D01*
X183054494Y-133869463D01*
X182944180Y-133810498D01*
X182824482Y-133774188D01*
X182700000Y-133761928D01*
X179700000Y-133761928D01*
X179575518Y-133774188D01*
X179455820Y-133810498D01*
X179345506Y-133869463D01*
X179248815Y-133948815D01*
X179169463Y-134045506D01*
X179110498Y-134155820D01*
X179074188Y-134275518D01*
X179061928Y-134400000D01*
X172998669Y-134400000D01*
X172711302Y-134207988D01*
X172322756Y-134047047D01*
X171910279Y-133965000D01*
X171489721Y-133965000D01*
X171077244Y-134047047D01*
X170688698Y-134207988D01*
X170339017Y-134441637D01*
X170041637Y-134739017D01*
X169807988Y-135088698D01*
X169647047Y-135477244D01*
X169565000Y-135889721D01*
X168755000Y-135889721D01*
X168672953Y-135477244D01*
X168512012Y-135088698D01*
X168278363Y-134739017D01*
X167980983Y-134441637D01*
X167631302Y-134207988D01*
X167242756Y-134047047D01*
X166830279Y-133965000D01*
X166409721Y-133965000D01*
X165997244Y-134047047D01*
X165608698Y-134207988D01*
X165259017Y-134441637D01*
X164961637Y-134739017D01*
X164727988Y-135088698D01*
X164567047Y-135477244D01*
X164485000Y-135889721D01*
X163675000Y-135889721D01*
X163592953Y-135477244D01*
X163432012Y-135088698D01*
X163198363Y-134739017D01*
X162900983Y-134441637D01*
X162551302Y-134207988D01*
X162162756Y-134047047D01*
X161750279Y-133965000D01*
X161329721Y-133965000D01*
X160917244Y-134047047D01*
X160528698Y-134207988D01*
X160179017Y-134441637D01*
X159881637Y-134739017D01*
X159647988Y-135088698D01*
X159487047Y-135477244D01*
X159405000Y-135889721D01*
X158595000Y-135889721D01*
X158512953Y-135477244D01*
X158352012Y-135088698D01*
X158118363Y-134739017D01*
X157820983Y-134441637D01*
X157595000Y-134290640D01*
X157595000Y-128435000D01*
X167844249Y-128435000D01*
X167900000Y-128440491D01*
X167955751Y-128435000D01*
X167955752Y-128435000D01*
X168122499Y-128418577D01*
X168336447Y-128353676D01*
X168533623Y-128248284D01*
X168706449Y-128106449D01*
X168741996Y-128063135D01*
X173441988Y-123363144D01*
X173548284Y-123233623D01*
X173653676Y-123036447D01*
X173718577Y-122822499D01*
X173740491Y-122600000D01*
X173732514Y-122519012D01*
X173804494Y-122480537D01*
X173901185Y-122401185D01*
X173980537Y-122304494D01*
X174039502Y-122194180D01*
X174075812Y-122074482D01*
X174088072Y-121950000D01*
X174088072Y-120250000D01*
X174075812Y-120125518D01*
X174039502Y-120005820D01*
X173980537Y-119895506D01*
X173901185Y-119798815D01*
X173804494Y-119719463D01*
X173694180Y-119660498D01*
X173621620Y-119638487D01*
X173753475Y-119506632D01*
X173915990Y-119263411D01*
X174027932Y-118993158D01*
X174085000Y-118706260D01*
X174085000Y-118413740D01*
X174027932Y-118126842D01*
X173915990Y-117856589D01*
X173753475Y-117613368D01*
X173546632Y-117406525D01*
X173372240Y-117290000D01*
X173546632Y-117173475D01*
X173565107Y-117155000D01*
X176324249Y-117155000D01*
X176380000Y-117160491D01*
X176435751Y-117155000D01*
X176435752Y-117155000D01*
X176602499Y-117138577D01*
X176816447Y-117073676D01*
X177013623Y-116968284D01*
X177186449Y-116826449D01*
X177221996Y-116783135D01*
X182717060Y-111288072D01*
X183325000Y-111288072D01*
X183498254Y-111271008D01*
X183664850Y-111220472D01*
X183818386Y-111138405D01*
X183952962Y-111027962D01*
X184029253Y-110935000D01*
X188570747Y-110935000D01*
X188647038Y-111027962D01*
X188781614Y-111138405D01*
X188865000Y-111182976D01*
X188865001Y-119372237D01*
X188859509Y-119427998D01*
X188881423Y-119650496D01*
X188946324Y-119864444D01*
X188962927Y-119895506D01*
X189051717Y-120061621D01*
X189193552Y-120234447D01*
X189236860Y-120269989D01*
X191015000Y-122048130D01*
X191015001Y-125294239D01*
X191009509Y-125350000D01*
X191031423Y-125572498D01*
X191096324Y-125786446D01*
X191096325Y-125786447D01*
X191201717Y-125983623D01*
X191343552Y-126156449D01*
X191386860Y-126191991D01*
X193661928Y-128467060D01*
X193661928Y-130500000D01*
X193674188Y-130624482D01*
X193710498Y-130744180D01*
X193769463Y-130854494D01*
X193848815Y-130951185D01*
X193945506Y-131030537D01*
X194055820Y-131089502D01*
X194175518Y-131125812D01*
X194300000Y-131138072D01*
X197300000Y-131138072D01*
X197424482Y-131125812D01*
X197544180Y-131089502D01*
X197654494Y-131030537D01*
X197751185Y-130951185D01*
X197830537Y-130854494D01*
X197889502Y-130744180D01*
X197925812Y-130624482D01*
X197938072Y-130500000D01*
X197938072Y-127500000D01*
X197925812Y-127375518D01*
X197889502Y-127255820D01*
X197830537Y-127145506D01*
X197751185Y-127048815D01*
X197654494Y-126969463D01*
X197544180Y-126910498D01*
X197424482Y-126874188D01*
X197300000Y-126861928D01*
X195267060Y-126861928D01*
X193816785Y-125411653D01*
X194487952Y-125411653D01*
X194643962Y-125727214D01*
X195018745Y-125918020D01*
X195423551Y-126032044D01*
X195842824Y-126064902D01*
X196260451Y-126015334D01*
X196660383Y-125885243D01*
X196956038Y-125727214D01*
X197112048Y-125411653D01*
X195800000Y-124099605D01*
X194487952Y-125411653D01*
X193816785Y-125411653D01*
X193285000Y-124879869D01*
X193285000Y-123962824D01*
X193655098Y-123962824D01*
X193704666Y-124380451D01*
X193834757Y-124780383D01*
X193992786Y-125076038D01*
X194308347Y-125232048D01*
X195620395Y-123920000D01*
X195979605Y-123920000D01*
X197291653Y-125232048D01*
X197607214Y-125076038D01*
X197798020Y-124701255D01*
X197912044Y-124296449D01*
X197944902Y-123877176D01*
X197895334Y-123459549D01*
X197765243Y-123059617D01*
X197607214Y-122763962D01*
X197291653Y-122607952D01*
X195979605Y-123920000D01*
X195620395Y-123920000D01*
X194308347Y-122607952D01*
X193992786Y-122763962D01*
X193801980Y-123138745D01*
X193687956Y-123543551D01*
X193655098Y-123962824D01*
X193285000Y-123962824D01*
X193285000Y-122428347D01*
X194487952Y-122428347D01*
X195800000Y-123740395D01*
X197112048Y-122428347D01*
X196956038Y-122112786D01*
X196581255Y-121921980D01*
X196176449Y-121807956D01*
X195757176Y-121775098D01*
X195339549Y-121824666D01*
X194939617Y-121954757D01*
X194643962Y-122112786D01*
X194487952Y-122428347D01*
X193285000Y-122428347D01*
X193285000Y-121633749D01*
X193290491Y-121577997D01*
X193268577Y-121355498D01*
X193253471Y-121305703D01*
X193203676Y-121141551D01*
X193098284Y-120944375D01*
X192956449Y-120771549D01*
X192913141Y-120736007D01*
X191135000Y-118957867D01*
X191135000Y-111182976D01*
X191218386Y-111138405D01*
X191352962Y-111027962D01*
X191429253Y-110935000D01*
X195770747Y-110935000D01*
X195847038Y-111027962D01*
X195981614Y-111138405D01*
X196135150Y-111220472D01*
X196301746Y-111271008D01*
X196475000Y-111288072D01*
X197925000Y-111288072D01*
X198098254Y-111271008D01*
X198264850Y-111220472D01*
X198418386Y-111138405D01*
X198552962Y-111027962D01*
X198663405Y-110893386D01*
X198745472Y-110739850D01*
X198796008Y-110573254D01*
X198813072Y-110400000D01*
X198813072Y-109200000D01*
X198796008Y-109026746D01*
X198745472Y-108860150D01*
X198663405Y-108706614D01*
X198552962Y-108572038D01*
X198418386Y-108461595D01*
X198316663Y-108407223D01*
X198380134Y-108355134D01*
X198565706Y-108129014D01*
X198703599Y-107871034D01*
X198788513Y-107591111D01*
X198817185Y-107300000D01*
X198788513Y-107008889D01*
X198703599Y-106728966D01*
X198565706Y-106470986D01*
X198380134Y-106244866D01*
X198154014Y-106059294D01*
X198136626Y-106050000D01*
X198154014Y-106040706D01*
X198380134Y-105855134D01*
X198565706Y-105629014D01*
X198703599Y-105371034D01*
X198788513Y-105091111D01*
X198817185Y-104800000D01*
X198788513Y-104508889D01*
X198703599Y-104228966D01*
X198565706Y-103970986D01*
X198380134Y-103744866D01*
X198154014Y-103559294D01*
X198128278Y-103545538D01*
X198334429Y-103389049D01*
X198527496Y-103171193D01*
X198674352Y-102919858D01*
X198766476Y-102656890D01*
X198645155Y-102427000D01*
X197327000Y-102427000D01*
X197327000Y-102447000D01*
X197073000Y-102447000D01*
X197073000Y-102427000D01*
X195754845Y-102427000D01*
X195633524Y-102656890D01*
X195725648Y-102919858D01*
X195872504Y-103171193D01*
X196065571Y-103389049D01*
X196271722Y-103545538D01*
X196245986Y-103559294D01*
X196019866Y-103744866D01*
X195834294Y-103970986D01*
X195696401Y-104228966D01*
X195611487Y-104508889D01*
X195582815Y-104800000D01*
X195611487Y-105091111D01*
X195696401Y-105371034D01*
X195834294Y-105629014D01*
X196019866Y-105855134D01*
X196245986Y-106040706D01*
X196263374Y-106050000D01*
X196245986Y-106059294D01*
X196019866Y-106244866D01*
X195834294Y-106470986D01*
X195696401Y-106728966D01*
X195611487Y-107008889D01*
X195582815Y-107300000D01*
X195611487Y-107591111D01*
X195696401Y-107871034D01*
X195834294Y-108129014D01*
X196019866Y-108355134D01*
X196083337Y-108407223D01*
X195981614Y-108461595D01*
X195847038Y-108572038D01*
X195770747Y-108665000D01*
X191429253Y-108665000D01*
X191352962Y-108572038D01*
X191218386Y-108461595D01*
X191116663Y-108407223D01*
X191180134Y-108355134D01*
X191365706Y-108129014D01*
X191503599Y-107871034D01*
X191588513Y-107591111D01*
X191617185Y-107300000D01*
X191588513Y-107008889D01*
X191503599Y-106728966D01*
X191365706Y-106470986D01*
X191180134Y-106244866D01*
X190954014Y-106059294D01*
X190936626Y-106050000D01*
X190954014Y-106040706D01*
X191180134Y-105855134D01*
X191365706Y-105629014D01*
X191503599Y-105371034D01*
X191588513Y-105091111D01*
X191617185Y-104800000D01*
X191588513Y-104508889D01*
X191503599Y-104228966D01*
X191365706Y-103970986D01*
X191180134Y-103744866D01*
X190954014Y-103559294D01*
X190928278Y-103545538D01*
X191134429Y-103389049D01*
X191327496Y-103171193D01*
X191474352Y-102919858D01*
X191566476Y-102656890D01*
X191445155Y-102427000D01*
X190127000Y-102427000D01*
X190127000Y-102447000D01*
X189873000Y-102447000D01*
X189873000Y-102427000D01*
X188554845Y-102427000D01*
X188433524Y-102656890D01*
X188525648Y-102919858D01*
X188672504Y-103171193D01*
X188865571Y-103389049D01*
X189071722Y-103545538D01*
X189045986Y-103559294D01*
X188819866Y-103744866D01*
X188634294Y-103970986D01*
X188496401Y-104228966D01*
X188411487Y-104508889D01*
X188382815Y-104800000D01*
X188411487Y-105091111D01*
X188496401Y-105371034D01*
X188634294Y-105629014D01*
X188819866Y-105855134D01*
X189045986Y-106040706D01*
X189063374Y-106050000D01*
X189045986Y-106059294D01*
X188819866Y-106244866D01*
X188634294Y-106470986D01*
X188496401Y-106728966D01*
X188411487Y-107008889D01*
X188382815Y-107300000D01*
X188411487Y-107591111D01*
X188496401Y-107871034D01*
X188634294Y-108129014D01*
X188819866Y-108355134D01*
X188883337Y-108407223D01*
X188781614Y-108461595D01*
X188647038Y-108572038D01*
X188570747Y-108665000D01*
X184029253Y-108665000D01*
X183952962Y-108572038D01*
X183818386Y-108461595D01*
X183716663Y-108407223D01*
X183780134Y-108355134D01*
X183965706Y-108129014D01*
X184103599Y-107871034D01*
X184188513Y-107591111D01*
X184217185Y-107300000D01*
X184188513Y-107008889D01*
X184103599Y-106728966D01*
X183965706Y-106470986D01*
X183780134Y-106244866D01*
X183554014Y-106059294D01*
X183536626Y-106050000D01*
X183554014Y-106040706D01*
X183780134Y-105855134D01*
X183965706Y-105629014D01*
X184103599Y-105371034D01*
X184188513Y-105091111D01*
X184217185Y-104800000D01*
X184188513Y-104508889D01*
X184103599Y-104228966D01*
X183965706Y-103970986D01*
X183780134Y-103744866D01*
X183554014Y-103559294D01*
X183528278Y-103545538D01*
X183734429Y-103389049D01*
X183927496Y-103171193D01*
X184074352Y-102919858D01*
X184166476Y-102656890D01*
X184045155Y-102427000D01*
X182727000Y-102427000D01*
X182727000Y-102447000D01*
X182473000Y-102447000D01*
X182473000Y-102427000D01*
X181154845Y-102427000D01*
X181033524Y-102656890D01*
X181125648Y-102919858D01*
X181272504Y-103171193D01*
X181465571Y-103389049D01*
X181671722Y-103545538D01*
X181645986Y-103559294D01*
X181419866Y-103744866D01*
X181234294Y-103970986D01*
X181096401Y-104228966D01*
X181011487Y-104508889D01*
X180982815Y-104800000D01*
X181011487Y-105091111D01*
X181096401Y-105371034D01*
X181234294Y-105629014D01*
X181419866Y-105855134D01*
X181645986Y-106040706D01*
X181663374Y-106050000D01*
X181645986Y-106059294D01*
X181419866Y-106244866D01*
X181234294Y-106470986D01*
X181096401Y-106728966D01*
X181011487Y-107008889D01*
X180982815Y-107300000D01*
X181011487Y-107591111D01*
X181096401Y-107871034D01*
X181234294Y-108129014D01*
X181419866Y-108355134D01*
X181483337Y-108407223D01*
X181381614Y-108461595D01*
X181247038Y-108572038D01*
X181136595Y-108706614D01*
X181054528Y-108860150D01*
X181003992Y-109026746D01*
X180986928Y-109200000D01*
X180986928Y-109807940D01*
X175909869Y-114885000D01*
X173565107Y-114885000D01*
X173546632Y-114866525D01*
X173303411Y-114704010D01*
X173033158Y-114592068D01*
X172746260Y-114535000D01*
X172453740Y-114535000D01*
X172166842Y-114592068D01*
X171896589Y-114704010D01*
X171653368Y-114866525D01*
X171634893Y-114885000D01*
X164950132Y-114885000D01*
X148263193Y-98198061D01*
X148865000Y-98198061D01*
X148865000Y-98401939D01*
X148904774Y-98601898D01*
X148982795Y-98790256D01*
X149096063Y-98959774D01*
X149240226Y-99103937D01*
X149409744Y-99217205D01*
X149598102Y-99295226D01*
X149798061Y-99335000D01*
X149860199Y-99335000D01*
X156336200Y-105811002D01*
X156359999Y-105840001D01*
X156388997Y-105863799D01*
X156475723Y-105934974D01*
X156607753Y-106005546D01*
X156751014Y-106049003D01*
X156862667Y-106060000D01*
X156862677Y-106060000D01*
X156900000Y-106063676D01*
X156937323Y-106060000D01*
X168396289Y-106060000D01*
X168440226Y-106103937D01*
X168609744Y-106217205D01*
X168798102Y-106295226D01*
X168998061Y-106335000D01*
X169201939Y-106335000D01*
X169401898Y-106295226D01*
X169590256Y-106217205D01*
X169759774Y-106103937D01*
X169803711Y-106060000D01*
X173196289Y-106060000D01*
X173240226Y-106103937D01*
X173409744Y-106217205D01*
X173598102Y-106295226D01*
X173798061Y-106335000D01*
X174001939Y-106335000D01*
X174201898Y-106295226D01*
X174390256Y-106217205D01*
X174559774Y-106103937D01*
X174603711Y-106060000D01*
X175996289Y-106060000D01*
X176040226Y-106103937D01*
X176209744Y-106217205D01*
X176398102Y-106295226D01*
X176598061Y-106335000D01*
X176801939Y-106335000D01*
X177001898Y-106295226D01*
X177190256Y-106217205D01*
X177359774Y-106103937D01*
X177403711Y-106060000D01*
X177985199Y-106060000D01*
X178565000Y-106639802D01*
X178565000Y-106701939D01*
X178604774Y-106901898D01*
X178682795Y-107090256D01*
X178796063Y-107259774D01*
X178940226Y-107403937D01*
X179109744Y-107517205D01*
X179298102Y-107595226D01*
X179498061Y-107635000D01*
X179701939Y-107635000D01*
X179901898Y-107595226D01*
X180090256Y-107517205D01*
X180259774Y-107403937D01*
X180403937Y-107259774D01*
X180517205Y-107090256D01*
X180595226Y-106901898D01*
X180635000Y-106701939D01*
X180635000Y-106498061D01*
X180595226Y-106298102D01*
X180517205Y-106109744D01*
X180403937Y-105940226D01*
X180259774Y-105796063D01*
X180090256Y-105682795D01*
X179901898Y-105604774D01*
X179701939Y-105565000D01*
X179639802Y-105565000D01*
X178863804Y-104789003D01*
X178840001Y-104759999D01*
X178724276Y-104665026D01*
X178592247Y-104594454D01*
X178448986Y-104550997D01*
X178337333Y-104540000D01*
X178337322Y-104540000D01*
X178300000Y-104536324D01*
X178262678Y-104540000D01*
X177403711Y-104540000D01*
X177359774Y-104496063D01*
X177190256Y-104382795D01*
X177001898Y-104304774D01*
X176801939Y-104265000D01*
X176598061Y-104265000D01*
X176398102Y-104304774D01*
X176209744Y-104382795D01*
X176040226Y-104496063D01*
X175996289Y-104540000D01*
X174603711Y-104540000D01*
X174559774Y-104496063D01*
X174390256Y-104382795D01*
X174201898Y-104304774D01*
X174001939Y-104265000D01*
X173798061Y-104265000D01*
X173598102Y-104304774D01*
X173409744Y-104382795D01*
X173240226Y-104496063D01*
X173196289Y-104540000D01*
X169803711Y-104540000D01*
X169759774Y-104496063D01*
X169590256Y-104382795D01*
X169401898Y-104304774D01*
X169201939Y-104265000D01*
X168998061Y-104265000D01*
X168798102Y-104304774D01*
X168609744Y-104382795D01*
X168440226Y-104496063D01*
X168396289Y-104540000D01*
X157214802Y-104540000D01*
X154617912Y-101943110D01*
X181033524Y-101943110D01*
X181154845Y-102173000D01*
X182473000Y-102173000D01*
X182473000Y-100973835D01*
X182727000Y-100973835D01*
X182727000Y-102173000D01*
X184045155Y-102173000D01*
X184166476Y-101943110D01*
X188433524Y-101943110D01*
X188554845Y-102173000D01*
X189873000Y-102173000D01*
X189873000Y-100973835D01*
X190127000Y-100973835D01*
X190127000Y-102173000D01*
X191445155Y-102173000D01*
X191566476Y-101943110D01*
X195633524Y-101943110D01*
X195754845Y-102173000D01*
X197073000Y-102173000D01*
X197073000Y-100973835D01*
X197327000Y-100973835D01*
X197327000Y-102173000D01*
X198645155Y-102173000D01*
X198766476Y-101943110D01*
X198674352Y-101680142D01*
X198527496Y-101428807D01*
X198334429Y-101210951D01*
X198102570Y-101034947D01*
X197840830Y-100907558D01*
X197559267Y-100833680D01*
X197327000Y-100973835D01*
X197073000Y-100973835D01*
X196840733Y-100833680D01*
X196559170Y-100907558D01*
X196297430Y-101034947D01*
X196065571Y-101210951D01*
X195872504Y-101428807D01*
X195725648Y-101680142D01*
X195633524Y-101943110D01*
X191566476Y-101943110D01*
X191474352Y-101680142D01*
X191327496Y-101428807D01*
X191134429Y-101210951D01*
X190902570Y-101034947D01*
X190640830Y-100907558D01*
X190359267Y-100833680D01*
X190127000Y-100973835D01*
X189873000Y-100973835D01*
X189640733Y-100833680D01*
X189359170Y-100907558D01*
X189097430Y-101034947D01*
X188865571Y-101210951D01*
X188672504Y-101428807D01*
X188525648Y-101680142D01*
X188433524Y-101943110D01*
X184166476Y-101943110D01*
X184074352Y-101680142D01*
X183927496Y-101428807D01*
X183734429Y-101210951D01*
X183502570Y-101034947D01*
X183240830Y-100907558D01*
X182959267Y-100833680D01*
X182727000Y-100973835D01*
X182473000Y-100973835D01*
X182240733Y-100833680D01*
X181959170Y-100907558D01*
X181697430Y-101034947D01*
X181465571Y-101210951D01*
X181272504Y-101428807D01*
X181125648Y-101680142D01*
X181033524Y-101943110D01*
X154617912Y-101943110D01*
X150935000Y-98260199D01*
X150935000Y-98198061D01*
X150895226Y-97998102D01*
X150817205Y-97809744D01*
X150703937Y-97640226D01*
X150559774Y-97496063D01*
X150390256Y-97382795D01*
X150201898Y-97304774D01*
X150001939Y-97265000D01*
X149798061Y-97265000D01*
X149598102Y-97304774D01*
X149409744Y-97382795D01*
X149240226Y-97496063D01*
X149096063Y-97640226D01*
X148982795Y-97809744D01*
X148904774Y-97998102D01*
X148865000Y-98198061D01*
X148263193Y-98198061D01*
X147853669Y-97788538D01*
X147891449Y-97742503D01*
X147939410Y-97684062D01*
X148021588Y-97530316D01*
X148021589Y-97530314D01*
X148072195Y-97363491D01*
X148085000Y-97233478D01*
X148085000Y-97233469D01*
X148085191Y-97231528D01*
X148303740Y-97275000D01*
X148596260Y-97275000D01*
X148883158Y-97217932D01*
X149153411Y-97105990D01*
X149396632Y-96943475D01*
X149603475Y-96736632D01*
X149720000Y-96562240D01*
X149836525Y-96736632D01*
X150043368Y-96943475D01*
X150286589Y-97105990D01*
X150556842Y-97217932D01*
X150843740Y-97275000D01*
X151136260Y-97275000D01*
X151423158Y-97217932D01*
X151693411Y-97105990D01*
X151936632Y-96943475D01*
X152143475Y-96736632D01*
X152265195Y-96554466D01*
X152334822Y-96671355D01*
X152529731Y-96887588D01*
X152763080Y-97061641D01*
X153025901Y-97186825D01*
X153173110Y-97231476D01*
X153403000Y-97110155D01*
X153403000Y-95917000D01*
X153383000Y-95917000D01*
X153383000Y-95663000D01*
X153403000Y-95663000D01*
X153403000Y-95643000D01*
X153657000Y-95643000D01*
X153657000Y-95663000D01*
X153677000Y-95663000D01*
X153677000Y-95917000D01*
X153657000Y-95917000D01*
X153657000Y-97110155D01*
X153886890Y-97231476D01*
X154034099Y-97186825D01*
X154296920Y-97061641D01*
X154530269Y-96887588D01*
X154725178Y-96671355D01*
X154794805Y-96554466D01*
X154916525Y-96736632D01*
X155123368Y-96943475D01*
X155366589Y-97105990D01*
X155636842Y-97217932D01*
X155923740Y-97275000D01*
X156216260Y-97275000D01*
X156503158Y-97217932D01*
X156773411Y-97105990D01*
X157016632Y-96943475D01*
X157223475Y-96736632D01*
X157340000Y-96562240D01*
X157456525Y-96736632D01*
X157663368Y-96943475D01*
X157906589Y-97105990D01*
X158176842Y-97217932D01*
X158463740Y-97275000D01*
X158756260Y-97275000D01*
X159043158Y-97217932D01*
X159313411Y-97105990D01*
X159556632Y-96943475D01*
X159763475Y-96736632D01*
X159880000Y-96562240D01*
X159996525Y-96736632D01*
X160203368Y-96943475D01*
X160446589Y-97105990D01*
X160716842Y-97217932D01*
X161003740Y-97275000D01*
X161296260Y-97275000D01*
X161583158Y-97217932D01*
X161853411Y-97105990D01*
X162096632Y-96943475D01*
X162303475Y-96736632D01*
X162420000Y-96562240D01*
X162536525Y-96736632D01*
X162743368Y-96943475D01*
X162986589Y-97105990D01*
X163256842Y-97217932D01*
X163543740Y-97275000D01*
X163836260Y-97275000D01*
X164123158Y-97217932D01*
X164393411Y-97105990D01*
X164636632Y-96943475D01*
X164843475Y-96736632D01*
X164960000Y-96562240D01*
X165076525Y-96736632D01*
X165283368Y-96943475D01*
X165526589Y-97105990D01*
X165796842Y-97217932D01*
X166083740Y-97275000D01*
X166376260Y-97275000D01*
X166663158Y-97217932D01*
X166933411Y-97105990D01*
X167176632Y-96943475D01*
X167383475Y-96736632D01*
X167500000Y-96562240D01*
X167616525Y-96736632D01*
X167823368Y-96943475D01*
X168066589Y-97105990D01*
X168336842Y-97217932D01*
X168623740Y-97275000D01*
X168916260Y-97275000D01*
X169203158Y-97217932D01*
X169473411Y-97105990D01*
X169716632Y-96943475D01*
X169923475Y-96736632D01*
X170040000Y-96562240D01*
X170156525Y-96736632D01*
X170363368Y-96943475D01*
X170606589Y-97105990D01*
X170876842Y-97217932D01*
X171163740Y-97275000D01*
X171456260Y-97275000D01*
X171743158Y-97217932D01*
X172013411Y-97105990D01*
X172256632Y-96943475D01*
X172463475Y-96736632D01*
X172585195Y-96554466D01*
X172654822Y-96671355D01*
X172849731Y-96887588D01*
X173083080Y-97061641D01*
X173345901Y-97186825D01*
X173493110Y-97231476D01*
X173723000Y-97110155D01*
X173723000Y-95917000D01*
X173703000Y-95917000D01*
X173703000Y-95663000D01*
X173723000Y-95663000D01*
X173723000Y-95643000D01*
X173977000Y-95643000D01*
X173977000Y-95663000D01*
X173997000Y-95663000D01*
X173997000Y-95917000D01*
X173977000Y-95917000D01*
X173977000Y-97110155D01*
X174206890Y-97231476D01*
X174354099Y-97186825D01*
X174616920Y-97061641D01*
X174850269Y-96887588D01*
X175045178Y-96671355D01*
X175114805Y-96554466D01*
X175236525Y-96736632D01*
X175443368Y-96943475D01*
X175686589Y-97105990D01*
X175956842Y-97217932D01*
X176243740Y-97275000D01*
X176536260Y-97275000D01*
X176823158Y-97217932D01*
X177093411Y-97105990D01*
X177336632Y-96943475D01*
X177543475Y-96736632D01*
X177660000Y-96562240D01*
X177776525Y-96736632D01*
X177983368Y-96943475D01*
X178226589Y-97105990D01*
X178496842Y-97217932D01*
X178783740Y-97275000D01*
X179076260Y-97275000D01*
X179363158Y-97217932D01*
X179633411Y-97105990D01*
X179876632Y-96943475D01*
X180083475Y-96736632D01*
X180200000Y-96562240D01*
X180316525Y-96736632D01*
X180523368Y-96943475D01*
X180766589Y-97105990D01*
X181036842Y-97217932D01*
X181323740Y-97275000D01*
X181616260Y-97275000D01*
X181903158Y-97217932D01*
X182173411Y-97105990D01*
X182416632Y-96943475D01*
X182623475Y-96736632D01*
X182740000Y-96562240D01*
X182856525Y-96736632D01*
X183063368Y-96943475D01*
X183306589Y-97105990D01*
X183576842Y-97217932D01*
X183863740Y-97275000D01*
X184156260Y-97275000D01*
X184443158Y-97217932D01*
X184713411Y-97105990D01*
X184956632Y-96943475D01*
X185163475Y-96736632D01*
X185280000Y-96562240D01*
X185396525Y-96736632D01*
X185603368Y-96943475D01*
X185846589Y-97105990D01*
X186116842Y-97217932D01*
X186403740Y-97275000D01*
X186696260Y-97275000D01*
X186983158Y-97217932D01*
X187253411Y-97105990D01*
X187496632Y-96943475D01*
X187703475Y-96736632D01*
X187820000Y-96562240D01*
X187936525Y-96736632D01*
X188143368Y-96943475D01*
X188386589Y-97105990D01*
X188656842Y-97217932D01*
X188943740Y-97275000D01*
X189236260Y-97275000D01*
X189523158Y-97217932D01*
X189793411Y-97105990D01*
X190036632Y-96943475D01*
X190243475Y-96736632D01*
X190365195Y-96554466D01*
X190434822Y-96671355D01*
X190629731Y-96887588D01*
X190863080Y-97061641D01*
X191125901Y-97186825D01*
X191273110Y-97231476D01*
X191503000Y-97110155D01*
X191503000Y-95917000D01*
X191757000Y-95917000D01*
X191757000Y-97110155D01*
X191986890Y-97231476D01*
X192134099Y-97186825D01*
X192396920Y-97061641D01*
X192630269Y-96887588D01*
X192825178Y-96671355D01*
X192974157Y-96421252D01*
X193071481Y-96146891D01*
X192950814Y-95917000D01*
X191757000Y-95917000D01*
X191503000Y-95917000D01*
X191483000Y-95917000D01*
X191483000Y-95663000D01*
X191503000Y-95663000D01*
X191503000Y-95643000D01*
X191757000Y-95643000D01*
X191757000Y-95663000D01*
X192950814Y-95663000D01*
X193071481Y-95433109D01*
X192974157Y-95158748D01*
X192825178Y-94908645D01*
X192630269Y-94692412D01*
X192400594Y-94521100D01*
X192576632Y-94403475D01*
X192783475Y-94196632D01*
X192945990Y-93953411D01*
X193057932Y-93683158D01*
X193115000Y-93396260D01*
X193115000Y-93103740D01*
X193057932Y-92816842D01*
X192945990Y-92546589D01*
X192783475Y-92303368D01*
X192576632Y-92096525D01*
X192333411Y-91934010D01*
X192063158Y-91822068D01*
X191776260Y-91765000D01*
X191483740Y-91765000D01*
X191196842Y-91822068D01*
X190926589Y-91934010D01*
X190683368Y-92096525D01*
X190476525Y-92303368D01*
X190360000Y-92477760D01*
X190243475Y-92303368D01*
X190036632Y-92096525D01*
X189793411Y-91934010D01*
X189523158Y-91822068D01*
X189236260Y-91765000D01*
X188943740Y-91765000D01*
X188656842Y-91822068D01*
X188386589Y-91934010D01*
X188143368Y-92096525D01*
X187936525Y-92303368D01*
X187820000Y-92477760D01*
X187703475Y-92303368D01*
X187496632Y-92096525D01*
X187253411Y-91934010D01*
X186983158Y-91822068D01*
X186696260Y-91765000D01*
X186403740Y-91765000D01*
X186116842Y-91822068D01*
X185846589Y-91934010D01*
X185603368Y-92096525D01*
X185396525Y-92303368D01*
X185274805Y-92485534D01*
X185205178Y-92368645D01*
X185010269Y-92152412D01*
X184776920Y-91978359D01*
X184514099Y-91853175D01*
X184366890Y-91808524D01*
X184137000Y-91929845D01*
X184137000Y-93123000D01*
X184157000Y-93123000D01*
X184157000Y-93377000D01*
X184137000Y-93377000D01*
X184137000Y-93397000D01*
X183883000Y-93397000D01*
X183883000Y-93377000D01*
X183863000Y-93377000D01*
X183863000Y-93123000D01*
X183883000Y-93123000D01*
X183883000Y-91929845D01*
X183653110Y-91808524D01*
X183505901Y-91853175D01*
X183243080Y-91978359D01*
X183009731Y-92152412D01*
X182814822Y-92368645D01*
X182745195Y-92485534D01*
X182623475Y-92303368D01*
X182416632Y-92096525D01*
X182173411Y-91934010D01*
X181903158Y-91822068D01*
X181616260Y-91765000D01*
X181323740Y-91765000D01*
X181036842Y-91822068D01*
X180766589Y-91934010D01*
X180523368Y-92096525D01*
X180316525Y-92303368D01*
X180194805Y-92485534D01*
X180125178Y-92368645D01*
X179930269Y-92152412D01*
X179696920Y-91978359D01*
X179434099Y-91853175D01*
X179286890Y-91808524D01*
X179057000Y-91929845D01*
X179057000Y-93123000D01*
X179077000Y-93123000D01*
X179077000Y-93377000D01*
X179057000Y-93377000D01*
X179057000Y-93397000D01*
X178803000Y-93397000D01*
X178803000Y-93377000D01*
X178783000Y-93377000D01*
X178783000Y-93123000D01*
X178803000Y-93123000D01*
X178803000Y-91929845D01*
X178573110Y-91808524D01*
X178425901Y-91853175D01*
X178163080Y-91978359D01*
X177929731Y-92152412D01*
X177734822Y-92368645D01*
X177665195Y-92485534D01*
X177543475Y-92303368D01*
X177336632Y-92096525D01*
X177093411Y-91934010D01*
X176823158Y-91822068D01*
X176536260Y-91765000D01*
X176243740Y-91765000D01*
X175956842Y-91822068D01*
X175686589Y-91934010D01*
X175443368Y-92096525D01*
X175236525Y-92303368D01*
X175120000Y-92477760D01*
X175003475Y-92303368D01*
X174796632Y-92096525D01*
X174553411Y-91934010D01*
X174283158Y-91822068D01*
X173996260Y-91765000D01*
X173703740Y-91765000D01*
X173416842Y-91822068D01*
X173146589Y-91934010D01*
X172903368Y-92096525D01*
X172696525Y-92303368D01*
X172580000Y-92477760D01*
X172463475Y-92303368D01*
X172256632Y-92096525D01*
X172013411Y-91934010D01*
X171743158Y-91822068D01*
X171456260Y-91765000D01*
X171163740Y-91765000D01*
X170876842Y-91822068D01*
X170606589Y-91934010D01*
X170363368Y-92096525D01*
X170156525Y-92303368D01*
X170040000Y-92477760D01*
X169923475Y-92303368D01*
X169716632Y-92096525D01*
X169473411Y-91934010D01*
X169203158Y-91822068D01*
X168916260Y-91765000D01*
X168623740Y-91765000D01*
X168336842Y-91822068D01*
X168066589Y-91934010D01*
X167823368Y-92096525D01*
X167616525Y-92303368D01*
X167494805Y-92485534D01*
X167425178Y-92368645D01*
X167230269Y-92152412D01*
X166996920Y-91978359D01*
X166734099Y-91853175D01*
X166586890Y-91808524D01*
X166357000Y-91929845D01*
X166357000Y-93123000D01*
X166377000Y-93123000D01*
X166377000Y-93377000D01*
X166357000Y-93377000D01*
X166357000Y-93397000D01*
X166103000Y-93397000D01*
X166103000Y-93377000D01*
X166083000Y-93377000D01*
X166083000Y-93123000D01*
X166103000Y-93123000D01*
X166103000Y-91929845D01*
X165873110Y-91808524D01*
X165725901Y-91853175D01*
X165463080Y-91978359D01*
X165229731Y-92152412D01*
X165034822Y-92368645D01*
X164965195Y-92485534D01*
X164843475Y-92303368D01*
X164636632Y-92096525D01*
X164393411Y-91934010D01*
X164123158Y-91822068D01*
X163836260Y-91765000D01*
X163543740Y-91765000D01*
X163256842Y-91822068D01*
X162986589Y-91934010D01*
X162743368Y-92096525D01*
X162536525Y-92303368D01*
X162420000Y-92477760D01*
X162303475Y-92303368D01*
X162096632Y-92096525D01*
X161853411Y-91934010D01*
X161583158Y-91822068D01*
X161296260Y-91765000D01*
X161003740Y-91765000D01*
X160716842Y-91822068D01*
X160446589Y-91934010D01*
X160203368Y-92096525D01*
X159996525Y-92303368D01*
X159874805Y-92485534D01*
X159805178Y-92368645D01*
X159610269Y-92152412D01*
X159376920Y-91978359D01*
X159114099Y-91853175D01*
X158966890Y-91808524D01*
X158737000Y-91929845D01*
X158737000Y-93123000D01*
X158757000Y-93123000D01*
X158757000Y-93377000D01*
X158737000Y-93377000D01*
X158737000Y-93397000D01*
X158483000Y-93397000D01*
X158483000Y-93377000D01*
X158463000Y-93377000D01*
X158463000Y-93123000D01*
X158483000Y-93123000D01*
X158483000Y-91929845D01*
X158253110Y-91808524D01*
X158105901Y-91853175D01*
X157843080Y-91978359D01*
X157609731Y-92152412D01*
X157414822Y-92368645D01*
X157345195Y-92485534D01*
X157223475Y-92303368D01*
X157016632Y-92096525D01*
X156773411Y-91934010D01*
X156503158Y-91822068D01*
X156216260Y-91765000D01*
X155923740Y-91765000D01*
X155636842Y-91822068D01*
X155366589Y-91934010D01*
X155123368Y-92096525D01*
X154916525Y-92303368D01*
X154800000Y-92477760D01*
X154683475Y-92303368D01*
X154476632Y-92096525D01*
X154233411Y-91934010D01*
X153963158Y-91822068D01*
X153676260Y-91765000D01*
X153383740Y-91765000D01*
X153096842Y-91822068D01*
X152826589Y-91934010D01*
X152583368Y-92096525D01*
X152376525Y-92303368D01*
X152260000Y-92477760D01*
X152143475Y-92303368D01*
X151936632Y-92096525D01*
X151693411Y-91934010D01*
X151423158Y-91822068D01*
X151136260Y-91765000D01*
X150843740Y-91765000D01*
X150556842Y-91822068D01*
X150286589Y-91934010D01*
X150043368Y-92096525D01*
X149836525Y-92303368D01*
X149714805Y-92485534D01*
X149645178Y-92368645D01*
X149450269Y-92152412D01*
X149216920Y-91978359D01*
X148954099Y-91853175D01*
X148806890Y-91808524D01*
X148577000Y-91929845D01*
X148577000Y-93123000D01*
X148597000Y-93123000D01*
X148597000Y-93377000D01*
X148577000Y-93377000D01*
X148577000Y-93397000D01*
X148323000Y-93397000D01*
X148323000Y-93377000D01*
X148303000Y-93377000D01*
X148303000Y-93123000D01*
X148323000Y-93123000D01*
X148323000Y-91929845D01*
X148093110Y-91808524D01*
X147945901Y-91853175D01*
X147683080Y-91978359D01*
X147449731Y-92152412D01*
X147254822Y-92368645D01*
X147185195Y-92485534D01*
X147063475Y-92303368D01*
X146856632Y-92096525D01*
X146613411Y-91934010D01*
X146343158Y-91822068D01*
X146056260Y-91765000D01*
X145763740Y-91765000D01*
X145476842Y-91822068D01*
X145206589Y-91934010D01*
X144963368Y-92096525D01*
X144756525Y-92303368D01*
X144640000Y-92477760D01*
X144523475Y-92303368D01*
X144316632Y-92096525D01*
X144073411Y-91934010D01*
X143803158Y-91822068D01*
X143516260Y-91765000D01*
X143223740Y-91765000D01*
X142936842Y-91822068D01*
X142666589Y-91934010D01*
X142423368Y-92096525D01*
X142216525Y-92303368D01*
X142177569Y-92361670D01*
X142167918Y-92360719D01*
X142124452Y-92365000D01*
X142124442Y-92365000D01*
X141994429Y-92377805D01*
X141827606Y-92428411D01*
X141673860Y-92510589D01*
X141539102Y-92621183D01*
X141511385Y-92654956D01*
X141454957Y-92711384D01*
X141442794Y-92721366D01*
X141168138Y-92310315D01*
X140689685Y-91831862D01*
X140432475Y-91660000D01*
X194567525Y-91660000D01*
X194310315Y-91831862D01*
G37*
%TD.AperFunction*%
%TD*%
M02*
