M48
; DRILL file {KiCad (5.1.10-1-10_14)} date Friday, September 17, 2021 at 09:01:29 PM
; FORMAT={-:-/ absolute / inch / decimal}
; #@! TF.CreationDate,2021-09-17T21:01:29-04:00
; #@! TF.GenerationSoftware,Kicad,Pcbnew,(5.1.10-1-10_14)
FMAT,2
INCH
T1C0.0157
T2C0.0315
T3C0.0374
T4C0.0394
T5C0.0598
T6C0.1260
%
G90
G05
T1
X5.9016Y-3.8701
X6.6575Y-4.1457
X6.8465Y-4.1457
X6.9567Y-4.1457
X7.0709Y-4.1969
X7.1457Y-4.7638
X7.1457Y-4.9016
X7.3189Y-4.7402
X7.4409Y-4.7441
T2
X5.8071Y-4.9016
X6.122Y-4.9016
X6.5354Y-4.8622
T3
X5.4213Y-4.0236
X5.4213Y-4.122
X5.4213Y-4.2205
X5.4213Y-4.3189
X7.189Y-4.0276
X7.189Y-4.126
X7.189Y-4.2244
X7.189Y-4.3228
X7.4803Y-4.0276
X7.4803Y-4.126
X7.4803Y-4.2244
X7.4803Y-4.3228
X7.7638Y-4.0276
X7.7638Y-4.126
X7.7638Y-4.2244
X7.7638Y-4.3228
T4
X5.6445Y-3.6713
X5.6445Y-3.7713
X5.7445Y-3.6713
X5.7445Y-3.7713
X5.8445Y-3.6713
X5.8445Y-3.7713
X5.9445Y-3.6713
X5.9445Y-3.7713
X6.0445Y-3.6713
X6.0445Y-3.7713
X6.1445Y-3.6713
X6.1445Y-3.7713
X6.2445Y-3.6713
X6.2445Y-3.7713
X6.3445Y-3.6713
X6.3445Y-3.7713
X6.4445Y-3.6713
X6.4445Y-3.7713
X6.5445Y-3.6713
X6.5445Y-3.7713
X6.6445Y-3.6713
X6.6445Y-3.7713
X6.7445Y-3.6713
X6.7445Y-3.7713
X6.7953Y-4.5677
X6.7953Y-4.6677
X6.7953Y-4.7677
X6.8445Y-3.6713
X6.8445Y-3.7713
X6.9445Y-3.6713
X6.9445Y-3.7713
X7.0445Y-3.6713
X7.0445Y-3.7713
X7.1445Y-3.6713
X7.1445Y-3.7713
X7.2445Y-3.6713
X7.2445Y-3.7713
X7.3445Y-3.6713
X7.3445Y-3.7713
X7.4445Y-3.6713
X7.4445Y-3.7713
X7.5445Y-3.6713
X7.5445Y-3.7713
T5
X5.4764Y-4.9055
X5.4764Y-5.1055
X5.7598Y-5.3583
X5.9598Y-5.3583
X6.1598Y-5.3583
X6.3598Y-5.3583
X6.5598Y-5.3583
X6.7598Y-5.3583
X7.1339Y-5.3504
X7.3339Y-5.3504
X7.7087Y-4.8787
X7.7087Y-5.0787
T6
X5.4528Y-3.7205
X5.4528Y-4.626
X5.4528Y-5.374
X7.7362Y-3.7205
X7.7362Y-4.626
X7.7362Y-5.374
T0
M30
