%TF.GenerationSoftware,KiCad,Pcbnew,(5.1.10-1-10_14)*%
%TF.CreationDate,2021-09-17T20:59:11-04:00*%
%TF.ProjectId,KilnHat,4b696c6e-4861-4742-9e6b-696361645f70,rev?*%
%TF.SameCoordinates,Original*%
%TF.FileFunction,Legend,Top*%
%TF.FilePolarity,Positive*%
%FSLAX46Y46*%
G04 Gerber Fmt 4.6, Leading zero omitted, Abs format (unit mm)*
G04 Created by KiCad (PCBNEW (5.1.10-1-10_14)) date 2021-09-17 20:59:11*
%MOMM*%
%LPD*%
G01*
G04 APERTURE LIST*
%ADD10C,0.150000*%
%ADD11C,0.600000*%
%ADD12C,0.300000*%
%ADD13C,0.120000*%
G04 APERTURE END LIST*
D10*
X156995238Y-101804761D02*
X156995238Y-100471428D01*
X156995238Y-100852380D02*
X157090476Y-100661904D01*
X157185714Y-100566666D01*
X157376190Y-100471428D01*
X157566666Y-100471428D01*
X158995238Y-101709523D02*
X158804761Y-101804761D01*
X158423809Y-101804761D01*
X158233333Y-101709523D01*
X158138095Y-101519047D01*
X158138095Y-100757142D01*
X158233333Y-100566666D01*
X158423809Y-100471428D01*
X158804761Y-100471428D01*
X158995238Y-100566666D01*
X159090476Y-100757142D01*
X159090476Y-100947619D01*
X158138095Y-101138095D01*
X159757142Y-100471428D02*
X160233333Y-101804761D01*
X160709523Y-100471428D01*
X163376190Y-99804761D02*
X163566666Y-99804761D01*
X163757142Y-99900000D01*
X163852380Y-99995238D01*
X163947619Y-100185714D01*
X164042857Y-100566666D01*
X164042857Y-101042857D01*
X163947619Y-101423809D01*
X163852380Y-101614285D01*
X163757142Y-101709523D01*
X163566666Y-101804761D01*
X163376190Y-101804761D01*
X163185714Y-101709523D01*
X163090476Y-101614285D01*
X162995238Y-101423809D01*
X162900000Y-101042857D01*
X162900000Y-100566666D01*
X162995238Y-100185714D01*
X163090476Y-99995238D01*
X163185714Y-99900000D01*
X163376190Y-99804761D01*
X164900000Y-101614285D02*
X164995238Y-101709523D01*
X164900000Y-101804761D01*
X164804761Y-101709523D01*
X164900000Y-101614285D01*
X164900000Y-101804761D01*
X166900000Y-101804761D02*
X165757142Y-101804761D01*
X166328571Y-101804761D02*
X166328571Y-99804761D01*
X166138095Y-100090476D01*
X165947619Y-100280952D01*
X165757142Y-100376190D01*
D11*
X143032857Y-101507142D02*
X143032857Y-98507142D01*
X144575714Y-101507142D02*
X143418571Y-99792857D01*
X144575714Y-98507142D02*
X143032857Y-100221428D01*
X145732857Y-101507142D02*
X145732857Y-98507142D01*
X148304285Y-101507142D02*
X147018571Y-101507142D01*
X147018571Y-98507142D01*
X149204285Y-101507142D02*
X149204285Y-98507142D01*
X150747142Y-101507142D01*
X150747142Y-98507142D01*
X144575714Y-106321428D02*
X144447142Y-106464285D01*
X144061428Y-106607142D01*
X143804285Y-106607142D01*
X143418571Y-106464285D01*
X143161428Y-106178571D01*
X143032857Y-105892857D01*
X142904285Y-105321428D01*
X142904285Y-104892857D01*
X143032857Y-104321428D01*
X143161428Y-104035714D01*
X143418571Y-103750000D01*
X143804285Y-103607142D01*
X144061428Y-103607142D01*
X144447142Y-103750000D01*
X144575714Y-103892857D01*
X146247142Y-103607142D02*
X146761428Y-103607142D01*
X147018571Y-103750000D01*
X147275714Y-104035714D01*
X147404285Y-104607142D01*
X147404285Y-105607142D01*
X147275714Y-106178571D01*
X147018571Y-106464285D01*
X146761428Y-106607142D01*
X146247142Y-106607142D01*
X145990000Y-106464285D01*
X145732857Y-106178571D01*
X145604285Y-105607142D01*
X145604285Y-104607142D01*
X145732857Y-104035714D01*
X145990000Y-103750000D01*
X146247142Y-103607142D01*
X148561428Y-106607142D02*
X148561428Y-103607142D01*
X150104285Y-106607142D01*
X150104285Y-103607142D01*
X151004285Y-103607142D02*
X152547142Y-103607142D01*
X151775714Y-106607142D02*
X151775714Y-103607142D01*
X154990000Y-106607142D02*
X154090000Y-105178571D01*
X153447142Y-106607142D02*
X153447142Y-103607142D01*
X154475714Y-103607142D01*
X154732857Y-103750000D01*
X154861428Y-103892857D01*
X154990000Y-104178571D01*
X154990000Y-104607142D01*
X154861428Y-104892857D01*
X154732857Y-105035714D01*
X154475714Y-105178571D01*
X153447142Y-105178571D01*
X156661428Y-103607142D02*
X157175714Y-103607142D01*
X157432857Y-103750000D01*
X157690000Y-104035714D01*
X157818571Y-104607142D01*
X157818571Y-105607142D01*
X157690000Y-106178571D01*
X157432857Y-106464285D01*
X157175714Y-106607142D01*
X156661428Y-106607142D01*
X156404285Y-106464285D01*
X156147142Y-106178571D01*
X156018571Y-105607142D01*
X156018571Y-104607142D01*
X156147142Y-104035714D01*
X156404285Y-103750000D01*
X156661428Y-103607142D01*
X160261428Y-106607142D02*
X158975714Y-106607142D01*
X158975714Y-103607142D01*
X162447142Y-106607142D02*
X161161428Y-106607142D01*
X161161428Y-103607142D01*
X163347142Y-105035714D02*
X164247142Y-105035714D01*
X164632857Y-106607142D02*
X163347142Y-106607142D01*
X163347142Y-103607142D01*
X164632857Y-103607142D01*
X167332857Y-106607142D02*
X166432857Y-105178571D01*
X165790000Y-106607142D02*
X165790000Y-103607142D01*
X166818571Y-103607142D01*
X167075714Y-103750000D01*
X167204285Y-103892857D01*
X167332857Y-104178571D01*
X167332857Y-104607142D01*
X167204285Y-104892857D01*
X167075714Y-105035714D01*
X166818571Y-105178571D01*
X165790000Y-105178571D01*
D10*
X179607142Y-127978571D02*
X180464285Y-127978571D01*
X180035714Y-129478571D02*
X180035714Y-127978571D01*
X180964285Y-129478571D02*
X180964285Y-127978571D01*
X181607142Y-129478571D02*
X181607142Y-128692857D01*
X181535714Y-128550000D01*
X181392857Y-128478571D01*
X181178571Y-128478571D01*
X181035714Y-128550000D01*
X180964285Y-128621428D01*
X182892857Y-129407142D02*
X182750000Y-129478571D01*
X182464285Y-129478571D01*
X182321428Y-129407142D01*
X182250000Y-129264285D01*
X182250000Y-128692857D01*
X182321428Y-128550000D01*
X182464285Y-128478571D01*
X182750000Y-128478571D01*
X182892857Y-128550000D01*
X182964285Y-128692857D01*
X182964285Y-128835714D01*
X182250000Y-128978571D01*
X183607142Y-129478571D02*
X183607142Y-128478571D01*
X183607142Y-128764285D02*
X183678571Y-128621428D01*
X183750000Y-128550000D01*
X183892857Y-128478571D01*
X184035714Y-128478571D01*
X184535714Y-129478571D02*
X184535714Y-128478571D01*
X184535714Y-128621428D02*
X184607142Y-128550000D01*
X184750000Y-128478571D01*
X184964285Y-128478571D01*
X185107142Y-128550000D01*
X185178571Y-128692857D01*
X185178571Y-129478571D01*
X185178571Y-128692857D02*
X185250000Y-128550000D01*
X185392857Y-128478571D01*
X185607142Y-128478571D01*
X185750000Y-128550000D01*
X185821428Y-128692857D01*
X185821428Y-129478571D01*
X186750000Y-129478571D02*
X186607142Y-129407142D01*
X186535714Y-129335714D01*
X186464285Y-129192857D01*
X186464285Y-128764285D01*
X186535714Y-128621428D01*
X186607142Y-128550000D01*
X186750000Y-128478571D01*
X186964285Y-128478571D01*
X187107142Y-128550000D01*
X187178571Y-128621428D01*
X187250000Y-128764285D01*
X187250000Y-129192857D01*
X187178571Y-129335714D01*
X187107142Y-129407142D01*
X186964285Y-129478571D01*
X186750000Y-129478571D01*
X179714285Y-131307142D02*
X180857142Y-131307142D01*
X180285714Y-131878571D02*
X180285714Y-130735714D01*
X186142857Y-131307142D02*
X187285714Y-131307142D01*
X139821428Y-104535714D02*
X141321428Y-104535714D01*
X141178571Y-105178571D02*
X141250000Y-105250000D01*
X141321428Y-105392857D01*
X141321428Y-105750000D01*
X141250000Y-105892857D01*
X141178571Y-105964285D01*
X141035714Y-106035714D01*
X140892857Y-106035714D01*
X140678571Y-105964285D01*
X139821428Y-105107142D01*
X139821428Y-106035714D01*
X139964285Y-107535714D02*
X139892857Y-107464285D01*
X139821428Y-107250000D01*
X139821428Y-107107142D01*
X139892857Y-106892857D01*
X140035714Y-106750000D01*
X140178571Y-106678571D01*
X140464285Y-106607142D01*
X140678571Y-106607142D01*
X140964285Y-106678571D01*
X141107142Y-106750000D01*
X141250000Y-106892857D01*
X141321428Y-107107142D01*
X141321428Y-107250000D01*
X141250000Y-107464285D01*
X141178571Y-107535714D01*
X143321428Y-122642857D02*
X143321428Y-121785714D01*
X143321428Y-122214285D02*
X144821428Y-122214285D01*
X144607142Y-122071428D01*
X144464285Y-121928571D01*
X144392857Y-121785714D01*
X144678571Y-123214285D02*
X144750000Y-123285714D01*
X144821428Y-123428571D01*
X144821428Y-123785714D01*
X144750000Y-123928571D01*
X144678571Y-124000000D01*
X144535714Y-124071428D01*
X144392857Y-124071428D01*
X144178571Y-124000000D01*
X143321428Y-123142857D01*
X143321428Y-124071428D01*
X144821428Y-124500000D02*
X143321428Y-125000000D01*
X144821428Y-125500000D01*
X144750000Y-129071428D02*
X144821428Y-128928571D01*
X144821428Y-128714285D01*
X144750000Y-128500000D01*
X144607142Y-128357142D01*
X144464285Y-128285714D01*
X144178571Y-128214285D01*
X143964285Y-128214285D01*
X143678571Y-128285714D01*
X143535714Y-128357142D01*
X143392857Y-128500000D01*
X143321428Y-128714285D01*
X143321428Y-128857142D01*
X143392857Y-129071428D01*
X143464285Y-129142857D01*
X143964285Y-129142857D01*
X143964285Y-128857142D01*
X143321428Y-129785714D02*
X144821428Y-129785714D01*
X143321428Y-130642857D01*
X144821428Y-130642857D01*
X143321428Y-131357142D02*
X144821428Y-131357142D01*
X144821428Y-131714285D01*
X144750000Y-131928571D01*
X144607142Y-132071428D01*
X144464285Y-132142857D01*
X144178571Y-132214285D01*
X143964285Y-132214285D01*
X143678571Y-132142857D01*
X143535714Y-132071428D01*
X143392857Y-131928571D01*
X143321428Y-131714285D01*
X143321428Y-131357142D01*
X165190476Y-130127380D02*
X165523809Y-131127380D01*
X165857142Y-130127380D01*
X166047619Y-130460714D02*
X166428571Y-130460714D01*
X166190476Y-131127380D02*
X166190476Y-130270238D01*
X166238095Y-130175000D01*
X166333333Y-130127380D01*
X166428571Y-130127380D01*
X167190476Y-131127380D02*
X167190476Y-130603571D01*
X167142857Y-130508333D01*
X167047619Y-130460714D01*
X166857142Y-130460714D01*
X166761904Y-130508333D01*
X167190476Y-131079761D02*
X167095238Y-131127380D01*
X166857142Y-131127380D01*
X166761904Y-131079761D01*
X166714285Y-130984523D01*
X166714285Y-130889285D01*
X166761904Y-130794047D01*
X166857142Y-130746428D01*
X167095238Y-130746428D01*
X167190476Y-130698809D01*
X167666666Y-130460714D02*
X167666666Y-131127380D01*
X167666666Y-130555952D02*
X167714285Y-130508333D01*
X167809523Y-130460714D01*
X167952380Y-130460714D01*
X168047619Y-130508333D01*
X168095238Y-130603571D01*
X168095238Y-131127380D01*
X170619047Y-130175000D02*
X170523809Y-130127380D01*
X170380952Y-130127380D01*
X170238095Y-130175000D01*
X170142857Y-130270238D01*
X170095238Y-130365476D01*
X170047619Y-130555952D01*
X170047619Y-130698809D01*
X170095238Y-130889285D01*
X170142857Y-130984523D01*
X170238095Y-131079761D01*
X170380952Y-131127380D01*
X170476190Y-131127380D01*
X170619047Y-131079761D01*
X170666666Y-131032142D01*
X170666666Y-130698809D01*
X170476190Y-130698809D01*
X171095238Y-131127380D02*
X171095238Y-130127380D01*
X171666666Y-131127380D01*
X171666666Y-130127380D01*
X172142857Y-131127380D02*
X172142857Y-130127380D01*
X172380952Y-130127380D01*
X172523809Y-130175000D01*
X172619047Y-130270238D01*
X172666666Y-130365476D01*
X172714285Y-130555952D01*
X172714285Y-130698809D01*
X172666666Y-130889285D01*
X172619047Y-130984523D01*
X172523809Y-131079761D01*
X172380952Y-131127380D01*
X172142857Y-131127380D01*
X155595238Y-131452380D02*
X155023809Y-131452380D01*
X155309523Y-131452380D02*
X155309523Y-130452380D01*
X155214285Y-130595238D01*
X155119047Y-130690476D01*
X155023809Y-130738095D01*
X155976190Y-130547619D02*
X156023809Y-130500000D01*
X156119047Y-130452380D01*
X156357142Y-130452380D01*
X156452380Y-130500000D01*
X156500000Y-130547619D01*
X156547619Y-130642857D01*
X156547619Y-130738095D01*
X156500000Y-130880952D01*
X155928571Y-131452380D01*
X156547619Y-131452380D01*
X156833333Y-130452380D02*
X157166666Y-131452380D01*
X157500000Y-130452380D01*
X159880952Y-130500000D02*
X159785714Y-130452380D01*
X159642857Y-130452380D01*
X159500000Y-130500000D01*
X159404761Y-130595238D01*
X159357142Y-130690476D01*
X159309523Y-130880952D01*
X159309523Y-131023809D01*
X159357142Y-131214285D01*
X159404761Y-131309523D01*
X159500000Y-131404761D01*
X159642857Y-131452380D01*
X159738095Y-131452380D01*
X159880952Y-131404761D01*
X159928571Y-131357142D01*
X159928571Y-131023809D01*
X159738095Y-131023809D01*
X160357142Y-131452380D02*
X160357142Y-130452380D01*
X160928571Y-131452380D01*
X160928571Y-130452380D01*
X161404761Y-131452380D02*
X161404761Y-130452380D01*
X161642857Y-130452380D01*
X161785714Y-130500000D01*
X161880952Y-130595238D01*
X161928571Y-130690476D01*
X161976190Y-130880952D01*
X161976190Y-131023809D01*
X161928571Y-131214285D01*
X161880952Y-131309523D01*
X161785714Y-131404761D01*
X161642857Y-131452380D01*
X161404761Y-131452380D01*
X146095238Y-131452380D02*
X145523809Y-131452380D01*
X145809523Y-131452380D02*
X145809523Y-130452380D01*
X145714285Y-130595238D01*
X145619047Y-130690476D01*
X145523809Y-130738095D01*
X146476190Y-130547619D02*
X146523809Y-130500000D01*
X146619047Y-130452380D01*
X146857142Y-130452380D01*
X146952380Y-130500000D01*
X147000000Y-130547619D01*
X147047619Y-130642857D01*
X147047619Y-130738095D01*
X147000000Y-130880952D01*
X146428571Y-131452380D01*
X147047619Y-131452380D01*
X147333333Y-130452380D02*
X147666666Y-131452380D01*
X148000000Y-130452380D01*
X150380952Y-130500000D02*
X150285714Y-130452380D01*
X150142857Y-130452380D01*
X150000000Y-130500000D01*
X149904761Y-130595238D01*
X149857142Y-130690476D01*
X149809523Y-130880952D01*
X149809523Y-131023809D01*
X149857142Y-131214285D01*
X149904761Y-131309523D01*
X150000000Y-131404761D01*
X150142857Y-131452380D01*
X150238095Y-131452380D01*
X150380952Y-131404761D01*
X150428571Y-131357142D01*
X150428571Y-131023809D01*
X150238095Y-131023809D01*
X150857142Y-131452380D02*
X150857142Y-130452380D01*
X151428571Y-131452380D01*
X151428571Y-130452380D01*
X151904761Y-131452380D02*
X151904761Y-130452380D01*
X152142857Y-130452380D01*
X152285714Y-130500000D01*
X152380952Y-130595238D01*
X152428571Y-130690476D01*
X152476190Y-130880952D01*
X152476190Y-131023809D01*
X152428571Y-131214285D01*
X152380952Y-131309523D01*
X152285714Y-131404761D01*
X152142857Y-131452380D01*
X151904761Y-131452380D01*
D12*
X168476190Y-127857142D02*
X167809523Y-127857142D01*
X167809523Y-128904761D02*
X167809523Y-126904761D01*
X168761904Y-126904761D01*
X170380952Y-128904761D02*
X170380952Y-127857142D01*
X170285714Y-127666666D01*
X170095238Y-127571428D01*
X169714285Y-127571428D01*
X169523809Y-127666666D01*
X170380952Y-128809523D02*
X170190476Y-128904761D01*
X169714285Y-128904761D01*
X169523809Y-128809523D01*
X169428571Y-128619047D01*
X169428571Y-128428571D01*
X169523809Y-128238095D01*
X169714285Y-128142857D01*
X170190476Y-128142857D01*
X170380952Y-128047619D01*
X171333333Y-127571428D02*
X171333333Y-128904761D01*
X171333333Y-127761904D02*
X171428571Y-127666666D01*
X171619047Y-127571428D01*
X171904761Y-127571428D01*
X172095238Y-127666666D01*
X172190476Y-127857142D01*
X172190476Y-128904761D01*
X157571428Y-128904761D02*
X156904761Y-127952380D01*
X156428571Y-128904761D02*
X156428571Y-126904761D01*
X157190476Y-126904761D01*
X157380952Y-127000000D01*
X157476190Y-127095238D01*
X157571428Y-127285714D01*
X157571428Y-127571428D01*
X157476190Y-127761904D01*
X157380952Y-127857142D01*
X157190476Y-127952380D01*
X156428571Y-127952380D01*
X159190476Y-128809523D02*
X159000000Y-128904761D01*
X158619047Y-128904761D01*
X158428571Y-128809523D01*
X158333333Y-128619047D01*
X158333333Y-127857142D01*
X158428571Y-127666666D01*
X158619047Y-127571428D01*
X159000000Y-127571428D01*
X159190476Y-127666666D01*
X159285714Y-127857142D01*
X159285714Y-128047619D01*
X158333333Y-128238095D01*
X160428571Y-128904761D02*
X160238095Y-128809523D01*
X160142857Y-128619047D01*
X160142857Y-126904761D01*
X162047619Y-128904761D02*
X162047619Y-127857142D01*
X161952380Y-127666666D01*
X161761904Y-127571428D01*
X161380952Y-127571428D01*
X161190476Y-127666666D01*
X162047619Y-128809523D02*
X161857142Y-128904761D01*
X161380952Y-128904761D01*
X161190476Y-128809523D01*
X161095238Y-128619047D01*
X161095238Y-128428571D01*
X161190476Y-128238095D01*
X161380952Y-128142857D01*
X161857142Y-128142857D01*
X162047619Y-128047619D01*
X162809523Y-127571428D02*
X163285714Y-128904761D01*
X163761904Y-127571428D02*
X163285714Y-128904761D01*
X163095238Y-129380952D01*
X163000000Y-129476190D01*
X162809523Y-129571428D01*
X147476190Y-128809523D02*
X147761904Y-128904761D01*
X148238095Y-128904761D01*
X148428571Y-128809523D01*
X148523809Y-128714285D01*
X148619047Y-128523809D01*
X148619047Y-128333333D01*
X148523809Y-128142857D01*
X148428571Y-128047619D01*
X148238095Y-127952380D01*
X147857142Y-127857142D01*
X147666666Y-127761904D01*
X147571428Y-127666666D01*
X147476190Y-127476190D01*
X147476190Y-127285714D01*
X147571428Y-127095238D01*
X147666666Y-127000000D01*
X147857142Y-126904761D01*
X148333333Y-126904761D01*
X148619047Y-127000000D01*
X149380952Y-128809523D02*
X149666666Y-128904761D01*
X150142857Y-128904761D01*
X150333333Y-128809523D01*
X150428571Y-128714285D01*
X150523809Y-128523809D01*
X150523809Y-128333333D01*
X150428571Y-128142857D01*
X150333333Y-128047619D01*
X150142857Y-127952380D01*
X149761904Y-127857142D01*
X149571428Y-127761904D01*
X149476190Y-127666666D01*
X149380952Y-127476190D01*
X149380952Y-127285714D01*
X149476190Y-127095238D01*
X149571428Y-127000000D01*
X149761904Y-126904761D01*
X150238095Y-126904761D01*
X150523809Y-127000000D01*
X152523809Y-128904761D02*
X151857142Y-127952380D01*
X151380952Y-128904761D02*
X151380952Y-126904761D01*
X152142857Y-126904761D01*
X152333333Y-127000000D01*
X152428571Y-127095238D01*
X152523809Y-127285714D01*
X152523809Y-127571428D01*
X152428571Y-127761904D01*
X152333333Y-127857142D01*
X152142857Y-127952380D01*
X151380952Y-127952380D01*
D10*
X174214285Y-117678571D02*
X174714285Y-119178571D01*
X175214285Y-117678571D01*
X175500000Y-118178571D02*
X176071428Y-118178571D01*
X175714285Y-119178571D02*
X175714285Y-117892857D01*
X175785714Y-117750000D01*
X175928571Y-117678571D01*
X176071428Y-117678571D01*
X177214285Y-119178571D02*
X177214285Y-118392857D01*
X177142857Y-118250000D01*
X177000000Y-118178571D01*
X176714285Y-118178571D01*
X176571428Y-118250000D01*
X177214285Y-119107142D02*
X177071428Y-119178571D01*
X176714285Y-119178571D01*
X176571428Y-119107142D01*
X176500000Y-118964285D01*
X176500000Y-118821428D01*
X176571428Y-118678571D01*
X176714285Y-118607142D01*
X177071428Y-118607142D01*
X177214285Y-118535714D01*
X177928571Y-118178571D02*
X177928571Y-119178571D01*
X177928571Y-118321428D02*
X178000000Y-118250000D01*
X178142857Y-118178571D01*
X178357142Y-118178571D01*
X178500000Y-118250000D01*
X178571428Y-118392857D01*
X178571428Y-119178571D01*
X171571428Y-124678571D02*
X170714285Y-124678571D01*
X171142857Y-124678571D02*
X171142857Y-123178571D01*
X171000000Y-123392857D01*
X170857142Y-123535714D01*
X170714285Y-123607142D01*
X172142857Y-123321428D02*
X172214285Y-123250000D01*
X172357142Y-123178571D01*
X172714285Y-123178571D01*
X172857142Y-123250000D01*
X172928571Y-123321428D01*
X173000000Y-123464285D01*
X173000000Y-123607142D01*
X172928571Y-123821428D01*
X172071428Y-124678571D01*
X173000000Y-124678571D01*
X173428571Y-123178571D02*
X173928571Y-124678571D01*
X174428571Y-123178571D01*
X172214285Y-112678571D02*
X171500000Y-112678571D01*
X171428571Y-113392857D01*
X171500000Y-113321428D01*
X171642857Y-113250000D01*
X172000000Y-113250000D01*
X172142857Y-113321428D01*
X172214285Y-113392857D01*
X172285714Y-113535714D01*
X172285714Y-113892857D01*
X172214285Y-114035714D01*
X172142857Y-114107142D01*
X172000000Y-114178571D01*
X171642857Y-114178571D01*
X171500000Y-114107142D01*
X171428571Y-114035714D01*
X172714285Y-112678571D02*
X173214285Y-114178571D01*
X173714285Y-112678571D01*
X189678571Y-130214285D02*
X189678571Y-130928571D01*
X190392857Y-131000000D01*
X190321428Y-130928571D01*
X190250000Y-130785714D01*
X190250000Y-130428571D01*
X190321428Y-130285714D01*
X190392857Y-130214285D01*
X190535714Y-130142857D01*
X190892857Y-130142857D01*
X191035714Y-130214285D01*
X191107142Y-130285714D01*
X191178571Y-130428571D01*
X191178571Y-130785714D01*
X191107142Y-130928571D01*
X191035714Y-131000000D01*
X189678571Y-129714285D02*
X191178571Y-129214285D01*
X189678571Y-128714285D01*
X189750000Y-125142857D02*
X189678571Y-125285714D01*
X189678571Y-125500000D01*
X189750000Y-125714285D01*
X189892857Y-125857142D01*
X190035714Y-125928571D01*
X190321428Y-126000000D01*
X190535714Y-126000000D01*
X190821428Y-125928571D01*
X190964285Y-125857142D01*
X191107142Y-125714285D01*
X191178571Y-125500000D01*
X191178571Y-125357142D01*
X191107142Y-125142857D01*
X191035714Y-125071428D01*
X190535714Y-125071428D01*
X190535714Y-125357142D01*
X191178571Y-124428571D02*
X189678571Y-124428571D01*
X191178571Y-123571428D01*
X189678571Y-123571428D01*
X191178571Y-122857142D02*
X189678571Y-122857142D01*
X189678571Y-122500000D01*
X189750000Y-122285714D01*
X189892857Y-122142857D01*
X190035714Y-122071428D01*
X190321428Y-122000000D01*
X190535714Y-122000000D01*
X190821428Y-122071428D01*
X190964285Y-122142857D01*
X191107142Y-122285714D01*
X191178571Y-122500000D01*
X191178571Y-122857142D01*
X194678571Y-112464285D02*
X193178571Y-112464285D01*
X193178571Y-112107142D01*
X193250000Y-111892857D01*
X193392857Y-111750000D01*
X193535714Y-111678571D01*
X193821428Y-111607142D01*
X194035714Y-111607142D01*
X194321428Y-111678571D01*
X194464285Y-111750000D01*
X194607142Y-111892857D01*
X194678571Y-112107142D01*
X194678571Y-112464285D01*
X194678571Y-110964285D02*
X193678571Y-110964285D01*
X193178571Y-110964285D02*
X193250000Y-111035714D01*
X193321428Y-110964285D01*
X193250000Y-110892857D01*
X193178571Y-110964285D01*
X193321428Y-110964285D01*
X194607142Y-110321428D02*
X194678571Y-110178571D01*
X194678571Y-109892857D01*
X194607142Y-109750000D01*
X194464285Y-109678571D01*
X194392857Y-109678571D01*
X194250000Y-109750000D01*
X194178571Y-109892857D01*
X194178571Y-110107142D01*
X194107142Y-110250000D01*
X193964285Y-110321428D01*
X193892857Y-110321428D01*
X193750000Y-110250000D01*
X193678571Y-110107142D01*
X193678571Y-109892857D01*
X193750000Y-109750000D01*
X193678571Y-109035714D02*
X195178571Y-109035714D01*
X193750000Y-109035714D02*
X193678571Y-108892857D01*
X193678571Y-108607142D01*
X193750000Y-108464285D01*
X193821428Y-108392857D01*
X193964285Y-108321428D01*
X194392857Y-108321428D01*
X194535714Y-108392857D01*
X194607142Y-108464285D01*
X194678571Y-108607142D01*
X194678571Y-108892857D01*
X194607142Y-109035714D01*
X194678571Y-107464285D02*
X194607142Y-107607142D01*
X194464285Y-107678571D01*
X193178571Y-107678571D01*
X194678571Y-106250000D02*
X193892857Y-106250000D01*
X193750000Y-106321428D01*
X193678571Y-106464285D01*
X193678571Y-106750000D01*
X193750000Y-106892857D01*
X194607142Y-106250000D02*
X194678571Y-106392857D01*
X194678571Y-106750000D01*
X194607142Y-106892857D01*
X194464285Y-106964285D01*
X194321428Y-106964285D01*
X194178571Y-106892857D01*
X194107142Y-106750000D01*
X194107142Y-106392857D01*
X194035714Y-106250000D01*
X193678571Y-105678571D02*
X194678571Y-105321428D01*
X193678571Y-104964285D02*
X194678571Y-105321428D01*
X195035714Y-105464285D01*
X195107142Y-105535714D01*
X195178571Y-105678571D01*
X194678571Y-102464285D02*
X194678571Y-103321428D01*
X194678571Y-102892857D02*
X193178571Y-102892857D01*
X193392857Y-103035714D01*
X193535714Y-103178571D01*
X193607142Y-103321428D01*
X187678571Y-112464285D02*
X186178571Y-112464285D01*
X186178571Y-112107142D01*
X186250000Y-111892857D01*
X186392857Y-111750000D01*
X186535714Y-111678571D01*
X186821428Y-111607142D01*
X187035714Y-111607142D01*
X187321428Y-111678571D01*
X187464285Y-111750000D01*
X187607142Y-111892857D01*
X187678571Y-112107142D01*
X187678571Y-112464285D01*
X187678571Y-110964285D02*
X186678571Y-110964285D01*
X186178571Y-110964285D02*
X186250000Y-111035714D01*
X186321428Y-110964285D01*
X186250000Y-110892857D01*
X186178571Y-110964285D01*
X186321428Y-110964285D01*
X187607142Y-110321428D02*
X187678571Y-110178571D01*
X187678571Y-109892857D01*
X187607142Y-109750000D01*
X187464285Y-109678571D01*
X187392857Y-109678571D01*
X187250000Y-109750000D01*
X187178571Y-109892857D01*
X187178571Y-110107142D01*
X187107142Y-110250000D01*
X186964285Y-110321428D01*
X186892857Y-110321428D01*
X186750000Y-110250000D01*
X186678571Y-110107142D01*
X186678571Y-109892857D01*
X186750000Y-109750000D01*
X186678571Y-109035714D02*
X188178571Y-109035714D01*
X186750000Y-109035714D02*
X186678571Y-108892857D01*
X186678571Y-108607142D01*
X186750000Y-108464285D01*
X186821428Y-108392857D01*
X186964285Y-108321428D01*
X187392857Y-108321428D01*
X187535714Y-108392857D01*
X187607142Y-108464285D01*
X187678571Y-108607142D01*
X187678571Y-108892857D01*
X187607142Y-109035714D01*
X187678571Y-107464285D02*
X187607142Y-107607142D01*
X187464285Y-107678571D01*
X186178571Y-107678571D01*
X187678571Y-106250000D02*
X186892857Y-106250000D01*
X186750000Y-106321428D01*
X186678571Y-106464285D01*
X186678571Y-106750000D01*
X186750000Y-106892857D01*
X187607142Y-106250000D02*
X187678571Y-106392857D01*
X187678571Y-106750000D01*
X187607142Y-106892857D01*
X187464285Y-106964285D01*
X187321428Y-106964285D01*
X187178571Y-106892857D01*
X187107142Y-106750000D01*
X187107142Y-106392857D01*
X187035714Y-106250000D01*
X186678571Y-105678571D02*
X187678571Y-105321428D01*
X186678571Y-104964285D02*
X187678571Y-105321428D01*
X188035714Y-105464285D01*
X188107142Y-105535714D01*
X188178571Y-105678571D01*
X186321428Y-103321428D02*
X186250000Y-103250000D01*
X186178571Y-103107142D01*
X186178571Y-102750000D01*
X186250000Y-102607142D01*
X186321428Y-102535714D01*
X186464285Y-102464285D01*
X186607142Y-102464285D01*
X186821428Y-102535714D01*
X187678571Y-103392857D01*
X187678571Y-102464285D01*
X180178571Y-112285714D02*
X178678571Y-112285714D01*
X178678571Y-111928571D01*
X178750000Y-111714285D01*
X178892857Y-111571428D01*
X179035714Y-111500000D01*
X179321428Y-111428571D01*
X179535714Y-111428571D01*
X179821428Y-111500000D01*
X179964285Y-111571428D01*
X180107142Y-111714285D01*
X180178571Y-111928571D01*
X180178571Y-112285714D01*
X180178571Y-110571428D02*
X180107142Y-110714285D01*
X180035714Y-110785714D01*
X179892857Y-110857142D01*
X179464285Y-110857142D01*
X179321428Y-110785714D01*
X179250000Y-110714285D01*
X179178571Y-110571428D01*
X179178571Y-110357142D01*
X179250000Y-110214285D01*
X179321428Y-110142857D01*
X179464285Y-110071428D01*
X179892857Y-110071428D01*
X180035714Y-110142857D01*
X180107142Y-110214285D01*
X180178571Y-110357142D01*
X180178571Y-110571428D01*
X179178571Y-109642857D02*
X179178571Y-109071428D01*
X178678571Y-109428571D02*
X179964285Y-109428571D01*
X180107142Y-109357142D01*
X180178571Y-109214285D01*
X180178571Y-109071428D01*
X180107142Y-108642857D02*
X180178571Y-108428571D01*
X180178571Y-108071428D01*
X180107142Y-107928571D01*
X180035714Y-107857142D01*
X179892857Y-107785714D01*
X179750000Y-107785714D01*
X179607142Y-107857142D01*
X179535714Y-107928571D01*
X179464285Y-108071428D01*
X179392857Y-108357142D01*
X179321428Y-108500000D01*
X179250000Y-108571428D01*
X179107142Y-108642857D01*
X178964285Y-108642857D01*
X178821428Y-108571428D01*
X178750000Y-108500000D01*
X178678571Y-108357142D01*
X178678571Y-108000000D01*
X178750000Y-107785714D01*
X179178571Y-107357142D02*
X179178571Y-106785714D01*
X178678571Y-107142857D02*
X179964285Y-107142857D01*
X180107142Y-107071428D01*
X180178571Y-106928571D01*
X180178571Y-106785714D01*
X180178571Y-105642857D02*
X179392857Y-105642857D01*
X179250000Y-105714285D01*
X179178571Y-105857142D01*
X179178571Y-106142857D01*
X179250000Y-106285714D01*
X180107142Y-105642857D02*
X180178571Y-105785714D01*
X180178571Y-106142857D01*
X180107142Y-106285714D01*
X179964285Y-106357142D01*
X179821428Y-106357142D01*
X179678571Y-106285714D01*
X179607142Y-106142857D01*
X179607142Y-105785714D01*
X179535714Y-105642857D01*
X180178571Y-104928571D02*
X179178571Y-104928571D01*
X179464285Y-104928571D02*
X179321428Y-104857142D01*
X179250000Y-104785714D01*
X179178571Y-104642857D01*
X179178571Y-104500000D01*
D13*
%TO.C,D6*%
X169485000Y-115765000D02*
X167200000Y-115765000D01*
X169485000Y-117235000D02*
X169485000Y-115765000D01*
X167200000Y-117235000D02*
X169485000Y-117235000D01*
%TO.C,D5*%
X160665000Y-116065000D02*
X158380000Y-116065000D01*
X160665000Y-117535000D02*
X160665000Y-116065000D01*
X158380000Y-117535000D02*
X160665000Y-117535000D01*
%TO.C,D4*%
X152685000Y-116165000D02*
X150400000Y-116165000D01*
X152685000Y-117635000D02*
X152685000Y-116165000D01*
X150400000Y-117635000D02*
X152685000Y-117635000D01*
%TO.C,J2*%
X142040000Y-97120000D02*
X142040000Y-95790000D01*
X143370000Y-97120000D02*
X142040000Y-97120000D01*
X142040000Y-94520000D02*
X142040000Y-91920000D01*
X144640000Y-94520000D02*
X142040000Y-94520000D01*
X144640000Y-97120000D02*
X144640000Y-94520000D01*
X142040000Y-91920000D02*
X192960000Y-91920000D01*
X144640000Y-97120000D02*
X192960000Y-97120000D01*
X192960000Y-97120000D02*
X192960000Y-91920000D01*
%TO.C,J7*%
X192610000Y-112710000D02*
X192610000Y-110210000D01*
X190110000Y-112710000D02*
X192610000Y-112710000D01*
X190810000Y-100690000D02*
X192310000Y-100690000D01*
X190810000Y-99690000D02*
X190810000Y-100690000D01*
X190810000Y-111410000D02*
X192310000Y-111410000D01*
X190810000Y-112410000D02*
X190810000Y-111410000D01*
X190000000Y-100190000D02*
X190000000Y-99690000D01*
X188790000Y-100190000D02*
X190000000Y-100190000D01*
X188790000Y-111910000D02*
X188790000Y-100190000D01*
X190000000Y-111910000D02*
X188790000Y-111910000D01*
X190000000Y-112410000D02*
X190000000Y-111910000D01*
X188290000Y-99690000D02*
X188290000Y-112410000D01*
X192310000Y-99690000D02*
X188290000Y-99690000D01*
X192310000Y-112410000D02*
X192310000Y-99690000D01*
X188290000Y-112410000D02*
X192310000Y-112410000D01*
%TO.C,J3*%
X143760000Y-139910000D02*
X174240000Y-139910000D01*
X143760000Y-132290000D02*
X174240000Y-132290000D01*
X143760000Y-138640000D02*
X174240000Y-138640000D01*
X174240000Y-139910000D02*
X174240000Y-132290000D01*
X143760000Y-132290000D02*
X143760000Y-139910000D01*
%TO.C,U1*%
X182900000Y-119210000D02*
X186500000Y-119210000D01*
X182900000Y-119210000D02*
X180700000Y-119210000D01*
X182900000Y-113990000D02*
X185100000Y-113990000D01*
X182900000Y-113990000D02*
X180700000Y-113990000D01*
%TO.C,R14*%
X170162258Y-101977500D02*
X169687742Y-101977500D01*
X170162258Y-103022500D02*
X169687742Y-103022500D01*
%TO.C,R13*%
X174762258Y-102077500D02*
X174287742Y-102077500D01*
X174762258Y-103122500D02*
X174287742Y-103122500D01*
%TO.C,R12*%
X178637258Y-101977500D02*
X178162742Y-101977500D01*
X178637258Y-103022500D02*
X178162742Y-103022500D01*
%TO.C,R11*%
X179577500Y-126162742D02*
X179577500Y-126637258D01*
X180622500Y-126162742D02*
X180622500Y-126637258D01*
%TO.C,R10*%
X185377500Y-126037742D02*
X185377500Y-126512258D01*
X186422500Y-126037742D02*
X186422500Y-126512258D01*
%TO.C,R9*%
X164922500Y-109437258D02*
X164922500Y-108962742D01*
X163877500Y-109437258D02*
X163877500Y-108962742D01*
%TO.C,R8*%
X156322500Y-109437258D02*
X156322500Y-108962742D01*
X155277500Y-109437258D02*
X155277500Y-108962742D01*
%TO.C,R7*%
X148422500Y-109137258D02*
X148422500Y-108662742D01*
X147377500Y-109137258D02*
X147377500Y-108662742D01*
%TO.C,R6*%
X165777500Y-108987742D02*
X165777500Y-109462258D01*
X166822500Y-108987742D02*
X166822500Y-109462258D01*
%TO.C,R5*%
X157377500Y-109162742D02*
X157377500Y-109637258D01*
X158422500Y-109162742D02*
X158422500Y-109637258D01*
%TO.C,R4*%
X149477500Y-108662742D02*
X149477500Y-109137258D01*
X150522500Y-108662742D02*
X150522500Y-109137258D01*
%TO.C,R3*%
X165437258Y-115977500D02*
X164962742Y-115977500D01*
X165437258Y-117022500D02*
X164962742Y-117022500D01*
%TO.C,R2*%
X156737258Y-116277500D02*
X156262742Y-116277500D01*
X156737258Y-117322500D02*
X156262742Y-117322500D01*
%TO.C,R1*%
X148537258Y-116377500D02*
X148062742Y-116377500D01*
X148537258Y-117422500D02*
X148062742Y-117422500D01*
%TO.C,Q3*%
X163920000Y-113860000D02*
X163920000Y-112400000D01*
X167080000Y-113860000D02*
X167080000Y-111700000D01*
X167080000Y-113860000D02*
X166150000Y-113860000D01*
X163920000Y-113860000D02*
X164850000Y-113860000D01*
%TO.C,Q2*%
X155220000Y-113960000D02*
X155220000Y-112500000D01*
X158380000Y-113960000D02*
X158380000Y-111800000D01*
X158380000Y-113960000D02*
X157450000Y-113960000D01*
X155220000Y-113960000D02*
X156150000Y-113960000D01*
%TO.C,Q1*%
X147020000Y-113960000D02*
X147020000Y-112500000D01*
X150180000Y-113960000D02*
X150180000Y-111800000D01*
X150180000Y-113960000D02*
X149250000Y-113960000D01*
X147020000Y-113960000D02*
X147950000Y-113960000D01*
%TO.C,JP1*%
X173930000Y-122430000D02*
X172600000Y-122430000D01*
X173930000Y-121100000D02*
X173930000Y-122430000D01*
X173930000Y-119830000D02*
X171270000Y-119830000D01*
X171270000Y-119830000D02*
X171270000Y-114690000D01*
X173930000Y-119830000D02*
X173930000Y-114690000D01*
X173930000Y-114690000D02*
X171270000Y-114690000D01*
%TO.C,J9*%
X135090000Y-99290000D02*
X135090000Y-101790000D01*
X137590000Y-99290000D02*
X135090000Y-99290000D01*
X136890000Y-111310000D02*
X135390000Y-111310000D01*
X136890000Y-112310000D02*
X136890000Y-111310000D01*
X136890000Y-100590000D02*
X135390000Y-100590000D01*
X136890000Y-99590000D02*
X136890000Y-100590000D01*
X137700000Y-111810000D02*
X137700000Y-112310000D01*
X138910000Y-111810000D02*
X137700000Y-111810000D01*
X138910000Y-100090000D02*
X138910000Y-111810000D01*
X137700000Y-100090000D02*
X138910000Y-100090000D01*
X137700000Y-99590000D02*
X137700000Y-100090000D01*
X139410000Y-112310000D02*
X139410000Y-99590000D01*
X135390000Y-112310000D02*
X139410000Y-112310000D01*
X135390000Y-99590000D02*
X135390000Y-112310000D01*
X139410000Y-99590000D02*
X135390000Y-99590000D01*
%TO.C,J8*%
X185210000Y-112710000D02*
X185210000Y-110210000D01*
X182710000Y-112710000D02*
X185210000Y-112710000D01*
X183410000Y-100690000D02*
X184910000Y-100690000D01*
X183410000Y-99690000D02*
X183410000Y-100690000D01*
X183410000Y-111410000D02*
X184910000Y-111410000D01*
X183410000Y-112410000D02*
X183410000Y-111410000D01*
X182600000Y-100190000D02*
X182600000Y-99690000D01*
X181390000Y-100190000D02*
X182600000Y-100190000D01*
X181390000Y-111910000D02*
X181390000Y-100190000D01*
X182600000Y-111910000D02*
X181390000Y-111910000D01*
X182600000Y-112410000D02*
X182600000Y-111910000D01*
X180890000Y-99690000D02*
X180890000Y-112410000D01*
X184910000Y-99690000D02*
X180890000Y-99690000D01*
X184910000Y-112410000D02*
X184910000Y-99690000D01*
X180890000Y-112410000D02*
X184910000Y-112410000D01*
%TO.C,J6*%
X199810000Y-112710000D02*
X199810000Y-110210000D01*
X197310000Y-112710000D02*
X199810000Y-112710000D01*
X198010000Y-100690000D02*
X199510000Y-100690000D01*
X198010000Y-99690000D02*
X198010000Y-100690000D01*
X198010000Y-111410000D02*
X199510000Y-111410000D01*
X198010000Y-112410000D02*
X198010000Y-111410000D01*
X197200000Y-100190000D02*
X197200000Y-99690000D01*
X195990000Y-100190000D02*
X197200000Y-100190000D01*
X195990000Y-111910000D02*
X195990000Y-100190000D01*
X197200000Y-111910000D02*
X195990000Y-111910000D01*
X197200000Y-112410000D02*
X197200000Y-111910000D01*
X195490000Y-99690000D02*
X195490000Y-112410000D01*
X199510000Y-99690000D02*
X195490000Y-99690000D01*
X199510000Y-112410000D02*
X199510000Y-99690000D01*
X195490000Y-112410000D02*
X199510000Y-112410000D01*
%TO.C,J5*%
X199610000Y-131540000D02*
X199610000Y-121380000D01*
X191990000Y-131540000D02*
X199610000Y-131540000D01*
X191990000Y-121380000D02*
X191990000Y-131540000D01*
X199610000Y-121380000D02*
X191990000Y-121380000D01*
X198340000Y-121380000D02*
X198340000Y-131540000D01*
%TO.C,J4*%
X135290000Y-122060000D02*
X135290000Y-132220000D01*
X142910000Y-122060000D02*
X135290000Y-122060000D01*
X142910000Y-132220000D02*
X142910000Y-122060000D01*
X135290000Y-132220000D02*
X142910000Y-132220000D01*
X136560000Y-132220000D02*
X136560000Y-122060000D01*
%TO.C,J1*%
X178660000Y-139710000D02*
X188820000Y-139710000D01*
X178660000Y-132090000D02*
X178660000Y-139710000D01*
X188820000Y-132090000D02*
X178660000Y-132090000D01*
X188820000Y-139710000D02*
X188820000Y-132090000D01*
X188820000Y-138440000D02*
X178660000Y-138440000D01*
%TO.C,D9*%
X176150000Y-98100000D02*
X176150000Y-100650000D01*
X174450000Y-98100000D02*
X174450000Y-100650000D01*
X176150000Y-98100000D02*
X174450000Y-98100000D01*
%TO.C,D8*%
X171550000Y-98100000D02*
X171550000Y-100650000D01*
X169850000Y-98100000D02*
X169850000Y-100650000D01*
X171550000Y-98100000D02*
X169850000Y-98100000D01*
%TO.C,D7*%
X180050000Y-98100000D02*
X180050000Y-100650000D01*
X178350000Y-98100000D02*
X178350000Y-100650000D01*
X180050000Y-98100000D02*
X178350000Y-98100000D01*
%TO.C,D3*%
X162900000Y-118850000D02*
X168300000Y-118850000D01*
X162900000Y-122150000D02*
X168300000Y-122150000D01*
X162900000Y-118850000D02*
X162900000Y-122150000D01*
%TO.C,D2*%
X154100000Y-118850000D02*
X159500000Y-118850000D01*
X154100000Y-122150000D02*
X159500000Y-122150000D01*
X154100000Y-118850000D02*
X154100000Y-122150000D01*
%TO.C,D1*%
X146100000Y-118850000D02*
X151500000Y-118850000D01*
X146100000Y-122150000D02*
X151500000Y-122150000D01*
X146100000Y-118850000D02*
X146100000Y-122150000D01*
%TO.C,C5*%
X187890000Y-116159420D02*
X187890000Y-116440580D01*
X188910000Y-116159420D02*
X188910000Y-116440580D01*
%TO.C,C4*%
X182590000Y-122584420D02*
X182590000Y-122865580D01*
X183610000Y-122584420D02*
X183610000Y-122865580D01*
%TO.C,C3*%
X179590000Y-122684420D02*
X179590000Y-122965580D01*
X180610000Y-122684420D02*
X180610000Y-122965580D01*
%TO.C,C2*%
X183340580Y-125090000D02*
X183059420Y-125090000D01*
X183340580Y-126110000D02*
X183059420Y-126110000D01*
%TO.C,C1*%
X185390000Y-122584420D02*
X185390000Y-122865580D01*
X186410000Y-122584420D02*
X186410000Y-122865580D01*
%TO.C,D6*%
D10*
X167261904Y-118382380D02*
X167261904Y-117382380D01*
X167500000Y-117382380D01*
X167642857Y-117430000D01*
X167738095Y-117525238D01*
X167785714Y-117620476D01*
X167833333Y-117810952D01*
X167833333Y-117953809D01*
X167785714Y-118144285D01*
X167738095Y-118239523D01*
X167642857Y-118334761D01*
X167500000Y-118382380D01*
X167261904Y-118382380D01*
X168690476Y-117382380D02*
X168500000Y-117382380D01*
X168404761Y-117430000D01*
X168357142Y-117477619D01*
X168261904Y-117620476D01*
X168214285Y-117810952D01*
X168214285Y-118191904D01*
X168261904Y-118287142D01*
X168309523Y-118334761D01*
X168404761Y-118382380D01*
X168595238Y-118382380D01*
X168690476Y-118334761D01*
X168738095Y-118287142D01*
X168785714Y-118191904D01*
X168785714Y-117953809D01*
X168738095Y-117858571D01*
X168690476Y-117810952D01*
X168595238Y-117763333D01*
X168404761Y-117763333D01*
X168309523Y-117810952D01*
X168261904Y-117858571D01*
X168214285Y-117953809D01*
%TO.C,D5*%
X158441904Y-118682380D02*
X158441904Y-117682380D01*
X158680000Y-117682380D01*
X158822857Y-117730000D01*
X158918095Y-117825238D01*
X158965714Y-117920476D01*
X159013333Y-118110952D01*
X159013333Y-118253809D01*
X158965714Y-118444285D01*
X158918095Y-118539523D01*
X158822857Y-118634761D01*
X158680000Y-118682380D01*
X158441904Y-118682380D01*
X159918095Y-117682380D02*
X159441904Y-117682380D01*
X159394285Y-118158571D01*
X159441904Y-118110952D01*
X159537142Y-118063333D01*
X159775238Y-118063333D01*
X159870476Y-118110952D01*
X159918095Y-118158571D01*
X159965714Y-118253809D01*
X159965714Y-118491904D01*
X159918095Y-118587142D01*
X159870476Y-118634761D01*
X159775238Y-118682380D01*
X159537142Y-118682380D01*
X159441904Y-118634761D01*
X159394285Y-118587142D01*
%TO.C,D4*%
X150461904Y-118782380D02*
X150461904Y-117782380D01*
X150700000Y-117782380D01*
X150842857Y-117830000D01*
X150938095Y-117925238D01*
X150985714Y-118020476D01*
X151033333Y-118210952D01*
X151033333Y-118353809D01*
X150985714Y-118544285D01*
X150938095Y-118639523D01*
X150842857Y-118734761D01*
X150700000Y-118782380D01*
X150461904Y-118782380D01*
X151890476Y-118115714D02*
X151890476Y-118782380D01*
X151652380Y-117734761D02*
X151414285Y-118449047D01*
X152033333Y-118449047D01*
%TO.C,J2*%
X140492380Y-94853333D02*
X141206666Y-94853333D01*
X141349523Y-94900952D01*
X141444761Y-94996190D01*
X141492380Y-95139047D01*
X141492380Y-95234285D01*
X140587619Y-94424761D02*
X140540000Y-94377142D01*
X140492380Y-94281904D01*
X140492380Y-94043809D01*
X140540000Y-93948571D01*
X140587619Y-93900952D01*
X140682857Y-93853333D01*
X140778095Y-93853333D01*
X140920952Y-93900952D01*
X141492380Y-94472380D01*
X141492380Y-93853333D01*
%TO.C,J7*%
X191452380Y-98833333D02*
X192166666Y-98833333D01*
X192309523Y-98880952D01*
X192404761Y-98976190D01*
X192452380Y-99119047D01*
X192452380Y-99214285D01*
X191452380Y-98452380D02*
X191452380Y-97785714D01*
X192452380Y-98214285D01*
%TO.C,J3*%
X142166666Y-138452380D02*
X142166666Y-139166666D01*
X142119047Y-139309523D01*
X142023809Y-139404761D01*
X141880952Y-139452380D01*
X141785714Y-139452380D01*
X142547619Y-138452380D02*
X143166666Y-138452380D01*
X142833333Y-138833333D01*
X142976190Y-138833333D01*
X143071428Y-138880952D01*
X143119047Y-138928571D01*
X143166666Y-139023809D01*
X143166666Y-139261904D01*
X143119047Y-139357142D01*
X143071428Y-139404761D01*
X142976190Y-139452380D01*
X142690476Y-139452380D01*
X142595238Y-139404761D01*
X142547619Y-139357142D01*
%TO.C,U1*%
X182138095Y-119502380D02*
X182138095Y-120311904D01*
X182185714Y-120407142D01*
X182233333Y-120454761D01*
X182328571Y-120502380D01*
X182519047Y-120502380D01*
X182614285Y-120454761D01*
X182661904Y-120407142D01*
X182709523Y-120311904D01*
X182709523Y-119502380D01*
X183709523Y-120502380D02*
X183138095Y-120502380D01*
X183423809Y-120502380D02*
X183423809Y-119502380D01*
X183328571Y-119645238D01*
X183233333Y-119740476D01*
X183138095Y-119788095D01*
%TO.C,R14*%
X169282142Y-104382380D02*
X168948809Y-103906190D01*
X168710714Y-104382380D02*
X168710714Y-103382380D01*
X169091666Y-103382380D01*
X169186904Y-103430000D01*
X169234523Y-103477619D01*
X169282142Y-103572857D01*
X169282142Y-103715714D01*
X169234523Y-103810952D01*
X169186904Y-103858571D01*
X169091666Y-103906190D01*
X168710714Y-103906190D01*
X170234523Y-104382380D02*
X169663095Y-104382380D01*
X169948809Y-104382380D02*
X169948809Y-103382380D01*
X169853571Y-103525238D01*
X169758333Y-103620476D01*
X169663095Y-103668095D01*
X171091666Y-103715714D02*
X171091666Y-104382380D01*
X170853571Y-103334761D02*
X170615476Y-104049047D01*
X171234523Y-104049047D01*
%TO.C,R13*%
X173882142Y-104482380D02*
X173548809Y-104006190D01*
X173310714Y-104482380D02*
X173310714Y-103482380D01*
X173691666Y-103482380D01*
X173786904Y-103530000D01*
X173834523Y-103577619D01*
X173882142Y-103672857D01*
X173882142Y-103815714D01*
X173834523Y-103910952D01*
X173786904Y-103958571D01*
X173691666Y-104006190D01*
X173310714Y-104006190D01*
X174834523Y-104482380D02*
X174263095Y-104482380D01*
X174548809Y-104482380D02*
X174548809Y-103482380D01*
X174453571Y-103625238D01*
X174358333Y-103720476D01*
X174263095Y-103768095D01*
X175167857Y-103482380D02*
X175786904Y-103482380D01*
X175453571Y-103863333D01*
X175596428Y-103863333D01*
X175691666Y-103910952D01*
X175739285Y-103958571D01*
X175786904Y-104053809D01*
X175786904Y-104291904D01*
X175739285Y-104387142D01*
X175691666Y-104434761D01*
X175596428Y-104482380D01*
X175310714Y-104482380D01*
X175215476Y-104434761D01*
X175167857Y-104387142D01*
%TO.C,R12*%
X177757142Y-104382380D02*
X177423809Y-103906190D01*
X177185714Y-104382380D02*
X177185714Y-103382380D01*
X177566666Y-103382380D01*
X177661904Y-103430000D01*
X177709523Y-103477619D01*
X177757142Y-103572857D01*
X177757142Y-103715714D01*
X177709523Y-103810952D01*
X177661904Y-103858571D01*
X177566666Y-103906190D01*
X177185714Y-103906190D01*
X178709523Y-104382380D02*
X178138095Y-104382380D01*
X178423809Y-104382380D02*
X178423809Y-103382380D01*
X178328571Y-103525238D01*
X178233333Y-103620476D01*
X178138095Y-103668095D01*
X179090476Y-103477619D02*
X179138095Y-103430000D01*
X179233333Y-103382380D01*
X179471428Y-103382380D01*
X179566666Y-103430000D01*
X179614285Y-103477619D01*
X179661904Y-103572857D01*
X179661904Y-103668095D01*
X179614285Y-103810952D01*
X179042857Y-104382380D01*
X179661904Y-104382380D01*
%TO.C,R11*%
X178952380Y-126642857D02*
X178476190Y-126976190D01*
X178952380Y-127214285D02*
X177952380Y-127214285D01*
X177952380Y-126833333D01*
X178000000Y-126738095D01*
X178047619Y-126690476D01*
X178142857Y-126642857D01*
X178285714Y-126642857D01*
X178380952Y-126690476D01*
X178428571Y-126738095D01*
X178476190Y-126833333D01*
X178476190Y-127214285D01*
X178952380Y-125690476D02*
X178952380Y-126261904D01*
X178952380Y-125976190D02*
X177952380Y-125976190D01*
X178095238Y-126071428D01*
X178190476Y-126166666D01*
X178238095Y-126261904D01*
X178952380Y-124738095D02*
X178952380Y-125309523D01*
X178952380Y-125023809D02*
X177952380Y-125023809D01*
X178095238Y-125119047D01*
X178190476Y-125214285D01*
X178238095Y-125309523D01*
%TO.C,R10*%
X187782380Y-126642857D02*
X187306190Y-126976190D01*
X187782380Y-127214285D02*
X186782380Y-127214285D01*
X186782380Y-126833333D01*
X186830000Y-126738095D01*
X186877619Y-126690476D01*
X186972857Y-126642857D01*
X187115714Y-126642857D01*
X187210952Y-126690476D01*
X187258571Y-126738095D01*
X187306190Y-126833333D01*
X187306190Y-127214285D01*
X187782380Y-125690476D02*
X187782380Y-126261904D01*
X187782380Y-125976190D02*
X186782380Y-125976190D01*
X186925238Y-126071428D01*
X187020476Y-126166666D01*
X187068095Y-126261904D01*
X186782380Y-125071428D02*
X186782380Y-124976190D01*
X186830000Y-124880952D01*
X186877619Y-124833333D01*
X186972857Y-124785714D01*
X187163333Y-124738095D01*
X187401428Y-124738095D01*
X187591904Y-124785714D01*
X187687142Y-124833333D01*
X187734761Y-124880952D01*
X187782380Y-124976190D01*
X187782380Y-125071428D01*
X187734761Y-125166666D01*
X187687142Y-125214285D01*
X187591904Y-125261904D01*
X187401428Y-125309523D01*
X187163333Y-125309523D01*
X186972857Y-125261904D01*
X186877619Y-125214285D01*
X186830000Y-125166666D01*
X186782380Y-125071428D01*
%TO.C,R9*%
X163422380Y-109366666D02*
X162946190Y-109700000D01*
X163422380Y-109938095D02*
X162422380Y-109938095D01*
X162422380Y-109557142D01*
X162470000Y-109461904D01*
X162517619Y-109414285D01*
X162612857Y-109366666D01*
X162755714Y-109366666D01*
X162850952Y-109414285D01*
X162898571Y-109461904D01*
X162946190Y-109557142D01*
X162946190Y-109938095D01*
X163422380Y-108890476D02*
X163422380Y-108700000D01*
X163374761Y-108604761D01*
X163327142Y-108557142D01*
X163184285Y-108461904D01*
X162993809Y-108414285D01*
X162612857Y-108414285D01*
X162517619Y-108461904D01*
X162470000Y-108509523D01*
X162422380Y-108604761D01*
X162422380Y-108795238D01*
X162470000Y-108890476D01*
X162517619Y-108938095D01*
X162612857Y-108985714D01*
X162850952Y-108985714D01*
X162946190Y-108938095D01*
X162993809Y-108890476D01*
X163041428Y-108795238D01*
X163041428Y-108604761D01*
X162993809Y-108509523D01*
X162946190Y-108461904D01*
X162850952Y-108414285D01*
%TO.C,R8*%
X154822380Y-109366666D02*
X154346190Y-109700000D01*
X154822380Y-109938095D02*
X153822380Y-109938095D01*
X153822380Y-109557142D01*
X153870000Y-109461904D01*
X153917619Y-109414285D01*
X154012857Y-109366666D01*
X154155714Y-109366666D01*
X154250952Y-109414285D01*
X154298571Y-109461904D01*
X154346190Y-109557142D01*
X154346190Y-109938095D01*
X154250952Y-108795238D02*
X154203333Y-108890476D01*
X154155714Y-108938095D01*
X154060476Y-108985714D01*
X154012857Y-108985714D01*
X153917619Y-108938095D01*
X153870000Y-108890476D01*
X153822380Y-108795238D01*
X153822380Y-108604761D01*
X153870000Y-108509523D01*
X153917619Y-108461904D01*
X154012857Y-108414285D01*
X154060476Y-108414285D01*
X154155714Y-108461904D01*
X154203333Y-108509523D01*
X154250952Y-108604761D01*
X154250952Y-108795238D01*
X154298571Y-108890476D01*
X154346190Y-108938095D01*
X154441428Y-108985714D01*
X154631904Y-108985714D01*
X154727142Y-108938095D01*
X154774761Y-108890476D01*
X154822380Y-108795238D01*
X154822380Y-108604761D01*
X154774761Y-108509523D01*
X154727142Y-108461904D01*
X154631904Y-108414285D01*
X154441428Y-108414285D01*
X154346190Y-108461904D01*
X154298571Y-108509523D01*
X154250952Y-108604761D01*
%TO.C,R7*%
X146922380Y-109066666D02*
X146446190Y-109400000D01*
X146922380Y-109638095D02*
X145922380Y-109638095D01*
X145922380Y-109257142D01*
X145970000Y-109161904D01*
X146017619Y-109114285D01*
X146112857Y-109066666D01*
X146255714Y-109066666D01*
X146350952Y-109114285D01*
X146398571Y-109161904D01*
X146446190Y-109257142D01*
X146446190Y-109638095D01*
X145922380Y-108733333D02*
X145922380Y-108066666D01*
X146922380Y-108495238D01*
%TO.C,R6*%
X168182380Y-109391666D02*
X167706190Y-109725000D01*
X168182380Y-109963095D02*
X167182380Y-109963095D01*
X167182380Y-109582142D01*
X167230000Y-109486904D01*
X167277619Y-109439285D01*
X167372857Y-109391666D01*
X167515714Y-109391666D01*
X167610952Y-109439285D01*
X167658571Y-109486904D01*
X167706190Y-109582142D01*
X167706190Y-109963095D01*
X167182380Y-108534523D02*
X167182380Y-108725000D01*
X167230000Y-108820238D01*
X167277619Y-108867857D01*
X167420476Y-108963095D01*
X167610952Y-109010714D01*
X167991904Y-109010714D01*
X168087142Y-108963095D01*
X168134761Y-108915476D01*
X168182380Y-108820238D01*
X168182380Y-108629761D01*
X168134761Y-108534523D01*
X168087142Y-108486904D01*
X167991904Y-108439285D01*
X167753809Y-108439285D01*
X167658571Y-108486904D01*
X167610952Y-108534523D01*
X167563333Y-108629761D01*
X167563333Y-108820238D01*
X167610952Y-108915476D01*
X167658571Y-108963095D01*
X167753809Y-109010714D01*
%TO.C,R5*%
X159782380Y-109566666D02*
X159306190Y-109900000D01*
X159782380Y-110138095D02*
X158782380Y-110138095D01*
X158782380Y-109757142D01*
X158830000Y-109661904D01*
X158877619Y-109614285D01*
X158972857Y-109566666D01*
X159115714Y-109566666D01*
X159210952Y-109614285D01*
X159258571Y-109661904D01*
X159306190Y-109757142D01*
X159306190Y-110138095D01*
X158782380Y-108661904D02*
X158782380Y-109138095D01*
X159258571Y-109185714D01*
X159210952Y-109138095D01*
X159163333Y-109042857D01*
X159163333Y-108804761D01*
X159210952Y-108709523D01*
X159258571Y-108661904D01*
X159353809Y-108614285D01*
X159591904Y-108614285D01*
X159687142Y-108661904D01*
X159734761Y-108709523D01*
X159782380Y-108804761D01*
X159782380Y-109042857D01*
X159734761Y-109138095D01*
X159687142Y-109185714D01*
%TO.C,R4*%
X151882380Y-109066666D02*
X151406190Y-109400000D01*
X151882380Y-109638095D02*
X150882380Y-109638095D01*
X150882380Y-109257142D01*
X150930000Y-109161904D01*
X150977619Y-109114285D01*
X151072857Y-109066666D01*
X151215714Y-109066666D01*
X151310952Y-109114285D01*
X151358571Y-109161904D01*
X151406190Y-109257142D01*
X151406190Y-109638095D01*
X151215714Y-108209523D02*
X151882380Y-108209523D01*
X150834761Y-108447619D02*
X151549047Y-108685714D01*
X151549047Y-108066666D01*
%TO.C,R3*%
X163352380Y-116666666D02*
X162876190Y-117000000D01*
X163352380Y-117238095D02*
X162352380Y-117238095D01*
X162352380Y-116857142D01*
X162400000Y-116761904D01*
X162447619Y-116714285D01*
X162542857Y-116666666D01*
X162685714Y-116666666D01*
X162780952Y-116714285D01*
X162828571Y-116761904D01*
X162876190Y-116857142D01*
X162876190Y-117238095D01*
X162352380Y-116333333D02*
X162352380Y-115714285D01*
X162733333Y-116047619D01*
X162733333Y-115904761D01*
X162780952Y-115809523D01*
X162828571Y-115761904D01*
X162923809Y-115714285D01*
X163161904Y-115714285D01*
X163257142Y-115761904D01*
X163304761Y-115809523D01*
X163352380Y-115904761D01*
X163352380Y-116190476D01*
X163304761Y-116285714D01*
X163257142Y-116333333D01*
%TO.C,R2*%
X154652380Y-116966666D02*
X154176190Y-117300000D01*
X154652380Y-117538095D02*
X153652380Y-117538095D01*
X153652380Y-117157142D01*
X153700000Y-117061904D01*
X153747619Y-117014285D01*
X153842857Y-116966666D01*
X153985714Y-116966666D01*
X154080952Y-117014285D01*
X154128571Y-117061904D01*
X154176190Y-117157142D01*
X154176190Y-117538095D01*
X153747619Y-116585714D02*
X153700000Y-116538095D01*
X153652380Y-116442857D01*
X153652380Y-116204761D01*
X153700000Y-116109523D01*
X153747619Y-116061904D01*
X153842857Y-116014285D01*
X153938095Y-116014285D01*
X154080952Y-116061904D01*
X154652380Y-116633333D01*
X154652380Y-116014285D01*
%TO.C,R1*%
X146552380Y-117066666D02*
X146076190Y-117400000D01*
X146552380Y-117638095D02*
X145552380Y-117638095D01*
X145552380Y-117257142D01*
X145600000Y-117161904D01*
X145647619Y-117114285D01*
X145742857Y-117066666D01*
X145885714Y-117066666D01*
X145980952Y-117114285D01*
X146028571Y-117161904D01*
X146076190Y-117257142D01*
X146076190Y-117638095D01*
X146552380Y-116114285D02*
X146552380Y-116685714D01*
X146552380Y-116400000D02*
X145552380Y-116400000D01*
X145695238Y-116495238D01*
X145790476Y-116590476D01*
X145838095Y-116685714D01*
%TO.C,Q3*%
X168547619Y-113195238D02*
X168500000Y-113290476D01*
X168404761Y-113385714D01*
X168261904Y-113528571D01*
X168214285Y-113623809D01*
X168214285Y-113719047D01*
X168452380Y-113671428D02*
X168404761Y-113766666D01*
X168309523Y-113861904D01*
X168119047Y-113909523D01*
X167785714Y-113909523D01*
X167595238Y-113861904D01*
X167500000Y-113766666D01*
X167452380Y-113671428D01*
X167452380Y-113480952D01*
X167500000Y-113385714D01*
X167595238Y-113290476D01*
X167785714Y-113242857D01*
X168119047Y-113242857D01*
X168309523Y-113290476D01*
X168404761Y-113385714D01*
X168452380Y-113480952D01*
X168452380Y-113671428D01*
X167452380Y-112909523D02*
X167452380Y-112290476D01*
X167833333Y-112623809D01*
X167833333Y-112480952D01*
X167880952Y-112385714D01*
X167928571Y-112338095D01*
X168023809Y-112290476D01*
X168261904Y-112290476D01*
X168357142Y-112338095D01*
X168404761Y-112385714D01*
X168452380Y-112480952D01*
X168452380Y-112766666D01*
X168404761Y-112861904D01*
X168357142Y-112909523D01*
%TO.C,Q2*%
X159847619Y-113295238D02*
X159800000Y-113390476D01*
X159704761Y-113485714D01*
X159561904Y-113628571D01*
X159514285Y-113723809D01*
X159514285Y-113819047D01*
X159752380Y-113771428D02*
X159704761Y-113866666D01*
X159609523Y-113961904D01*
X159419047Y-114009523D01*
X159085714Y-114009523D01*
X158895238Y-113961904D01*
X158800000Y-113866666D01*
X158752380Y-113771428D01*
X158752380Y-113580952D01*
X158800000Y-113485714D01*
X158895238Y-113390476D01*
X159085714Y-113342857D01*
X159419047Y-113342857D01*
X159609523Y-113390476D01*
X159704761Y-113485714D01*
X159752380Y-113580952D01*
X159752380Y-113771428D01*
X158847619Y-112961904D02*
X158800000Y-112914285D01*
X158752380Y-112819047D01*
X158752380Y-112580952D01*
X158800000Y-112485714D01*
X158847619Y-112438095D01*
X158942857Y-112390476D01*
X159038095Y-112390476D01*
X159180952Y-112438095D01*
X159752380Y-113009523D01*
X159752380Y-112390476D01*
%TO.C,Q1*%
X151647619Y-113295238D02*
X151600000Y-113390476D01*
X151504761Y-113485714D01*
X151361904Y-113628571D01*
X151314285Y-113723809D01*
X151314285Y-113819047D01*
X151552380Y-113771428D02*
X151504761Y-113866666D01*
X151409523Y-113961904D01*
X151219047Y-114009523D01*
X150885714Y-114009523D01*
X150695238Y-113961904D01*
X150600000Y-113866666D01*
X150552380Y-113771428D01*
X150552380Y-113580952D01*
X150600000Y-113485714D01*
X150695238Y-113390476D01*
X150885714Y-113342857D01*
X151219047Y-113342857D01*
X151409523Y-113390476D01*
X151504761Y-113485714D01*
X151552380Y-113580952D01*
X151552380Y-113771428D01*
X151552380Y-112390476D02*
X151552380Y-112961904D01*
X151552380Y-112676190D02*
X150552380Y-112676190D01*
X150695238Y-112771428D01*
X150790476Y-112866666D01*
X150838095Y-112961904D01*
%TO.C,JP1*%
X169952380Y-117833333D02*
X170666666Y-117833333D01*
X170809523Y-117880952D01*
X170904761Y-117976190D01*
X170952380Y-118119047D01*
X170952380Y-118214285D01*
X170952380Y-117357142D02*
X169952380Y-117357142D01*
X169952380Y-116976190D01*
X170000000Y-116880952D01*
X170047619Y-116833333D01*
X170142857Y-116785714D01*
X170285714Y-116785714D01*
X170380952Y-116833333D01*
X170428571Y-116880952D01*
X170476190Y-116976190D01*
X170476190Y-117357142D01*
X170952380Y-115833333D02*
X170952380Y-116404761D01*
X170952380Y-116119047D02*
X169952380Y-116119047D01*
X170095238Y-116214285D01*
X170190476Y-116309523D01*
X170238095Y-116404761D01*
%TO.C,J9*%
X135452380Y-113833333D02*
X136166666Y-113833333D01*
X136309523Y-113880952D01*
X136404761Y-113976190D01*
X136452380Y-114119047D01*
X136452380Y-114214285D01*
X136452380Y-113309523D02*
X136452380Y-113119047D01*
X136404761Y-113023809D01*
X136357142Y-112976190D01*
X136214285Y-112880952D01*
X136023809Y-112833333D01*
X135642857Y-112833333D01*
X135547619Y-112880952D01*
X135500000Y-112928571D01*
X135452380Y-113023809D01*
X135452380Y-113214285D01*
X135500000Y-113309523D01*
X135547619Y-113357142D01*
X135642857Y-113404761D01*
X135880952Y-113404761D01*
X135976190Y-113357142D01*
X136023809Y-113309523D01*
X136071428Y-113214285D01*
X136071428Y-113023809D01*
X136023809Y-112928571D01*
X135976190Y-112880952D01*
X135880952Y-112833333D01*
%TO.C,J8*%
X183952380Y-98833333D02*
X184666666Y-98833333D01*
X184809523Y-98880952D01*
X184904761Y-98976190D01*
X184952380Y-99119047D01*
X184952380Y-99214285D01*
X184380952Y-98214285D02*
X184333333Y-98309523D01*
X184285714Y-98357142D01*
X184190476Y-98404761D01*
X184142857Y-98404761D01*
X184047619Y-98357142D01*
X184000000Y-98309523D01*
X183952380Y-98214285D01*
X183952380Y-98023809D01*
X184000000Y-97928571D01*
X184047619Y-97880952D01*
X184142857Y-97833333D01*
X184190476Y-97833333D01*
X184285714Y-97880952D01*
X184333333Y-97928571D01*
X184380952Y-98023809D01*
X184380952Y-98214285D01*
X184428571Y-98309523D01*
X184476190Y-98357142D01*
X184571428Y-98404761D01*
X184761904Y-98404761D01*
X184857142Y-98357142D01*
X184904761Y-98309523D01*
X184952380Y-98214285D01*
X184952380Y-98023809D01*
X184904761Y-97928571D01*
X184857142Y-97880952D01*
X184761904Y-97833333D01*
X184571428Y-97833333D01*
X184476190Y-97880952D01*
X184428571Y-97928571D01*
X184380952Y-98023809D01*
%TO.C,J6*%
X198452380Y-98833333D02*
X199166666Y-98833333D01*
X199309523Y-98880952D01*
X199404761Y-98976190D01*
X199452380Y-99119047D01*
X199452380Y-99214285D01*
X198452380Y-97928571D02*
X198452380Y-98119047D01*
X198500000Y-98214285D01*
X198547619Y-98261904D01*
X198690476Y-98357142D01*
X198880952Y-98404761D01*
X199261904Y-98404761D01*
X199357142Y-98357142D01*
X199404761Y-98309523D01*
X199452380Y-98214285D01*
X199452380Y-98023809D01*
X199404761Y-97928571D01*
X199357142Y-97880952D01*
X199261904Y-97833333D01*
X199023809Y-97833333D01*
X198928571Y-97880952D01*
X198880952Y-97928571D01*
X198833333Y-98023809D01*
X198833333Y-98214285D01*
X198880952Y-98309523D01*
X198928571Y-98357142D01*
X199023809Y-98404761D01*
%TO.C,J5*%
X198452380Y-133333333D02*
X199166666Y-133333333D01*
X199309523Y-133380952D01*
X199404761Y-133476190D01*
X199452380Y-133619047D01*
X199452380Y-133714285D01*
X198452380Y-132380952D02*
X198452380Y-132857142D01*
X198928571Y-132904761D01*
X198880952Y-132857142D01*
X198833333Y-132761904D01*
X198833333Y-132523809D01*
X198880952Y-132428571D01*
X198928571Y-132380952D01*
X199023809Y-132333333D01*
X199261904Y-132333333D01*
X199357142Y-132380952D01*
X199404761Y-132428571D01*
X199452380Y-132523809D01*
X199452380Y-132761904D01*
X199404761Y-132857142D01*
X199357142Y-132904761D01*
%TO.C,J4*%
X135452380Y-133333333D02*
X136166666Y-133333333D01*
X136309523Y-133380952D01*
X136404761Y-133476190D01*
X136452380Y-133619047D01*
X136452380Y-133714285D01*
X135785714Y-132428571D02*
X136452380Y-132428571D01*
X135404761Y-132666666D02*
X136119047Y-132904761D01*
X136119047Y-132285714D01*
%TO.C,J1*%
X177166666Y-138452380D02*
X177166666Y-139166666D01*
X177119047Y-139309523D01*
X177023809Y-139404761D01*
X176880952Y-139452380D01*
X176785714Y-139452380D01*
X178166666Y-139452380D02*
X177595238Y-139452380D01*
X177880952Y-139452380D02*
X177880952Y-138452380D01*
X177785714Y-138595238D01*
X177690476Y-138690476D01*
X177595238Y-138738095D01*
%TO.C,D9*%
X173952380Y-100338095D02*
X172952380Y-100338095D01*
X172952380Y-100100000D01*
X173000000Y-99957142D01*
X173095238Y-99861904D01*
X173190476Y-99814285D01*
X173380952Y-99766666D01*
X173523809Y-99766666D01*
X173714285Y-99814285D01*
X173809523Y-99861904D01*
X173904761Y-99957142D01*
X173952380Y-100100000D01*
X173952380Y-100338095D01*
X173952380Y-99290476D02*
X173952380Y-99100000D01*
X173904761Y-99004761D01*
X173857142Y-98957142D01*
X173714285Y-98861904D01*
X173523809Y-98814285D01*
X173142857Y-98814285D01*
X173047619Y-98861904D01*
X173000000Y-98909523D01*
X172952380Y-99004761D01*
X172952380Y-99195238D01*
X173000000Y-99290476D01*
X173047619Y-99338095D01*
X173142857Y-99385714D01*
X173380952Y-99385714D01*
X173476190Y-99338095D01*
X173523809Y-99290476D01*
X173571428Y-99195238D01*
X173571428Y-99004761D01*
X173523809Y-98909523D01*
X173476190Y-98861904D01*
X173380952Y-98814285D01*
%TO.C,D8*%
X169452380Y-100238095D02*
X168452380Y-100238095D01*
X168452380Y-100000000D01*
X168500000Y-99857142D01*
X168595238Y-99761904D01*
X168690476Y-99714285D01*
X168880952Y-99666666D01*
X169023809Y-99666666D01*
X169214285Y-99714285D01*
X169309523Y-99761904D01*
X169404761Y-99857142D01*
X169452380Y-100000000D01*
X169452380Y-100238095D01*
X168880952Y-99095238D02*
X168833333Y-99190476D01*
X168785714Y-99238095D01*
X168690476Y-99285714D01*
X168642857Y-99285714D01*
X168547619Y-99238095D01*
X168500000Y-99190476D01*
X168452380Y-99095238D01*
X168452380Y-98904761D01*
X168500000Y-98809523D01*
X168547619Y-98761904D01*
X168642857Y-98714285D01*
X168690476Y-98714285D01*
X168785714Y-98761904D01*
X168833333Y-98809523D01*
X168880952Y-98904761D01*
X168880952Y-99095238D01*
X168928571Y-99190476D01*
X168976190Y-99238095D01*
X169071428Y-99285714D01*
X169261904Y-99285714D01*
X169357142Y-99238095D01*
X169404761Y-99190476D01*
X169452380Y-99095238D01*
X169452380Y-98904761D01*
X169404761Y-98809523D01*
X169357142Y-98761904D01*
X169261904Y-98714285D01*
X169071428Y-98714285D01*
X168976190Y-98761904D01*
X168928571Y-98809523D01*
X168880952Y-98904761D01*
%TO.C,D7*%
X177952380Y-100238095D02*
X176952380Y-100238095D01*
X176952380Y-100000000D01*
X177000000Y-99857142D01*
X177095238Y-99761904D01*
X177190476Y-99714285D01*
X177380952Y-99666666D01*
X177523809Y-99666666D01*
X177714285Y-99714285D01*
X177809523Y-99761904D01*
X177904761Y-99857142D01*
X177952380Y-100000000D01*
X177952380Y-100238095D01*
X176952380Y-99333333D02*
X176952380Y-98666666D01*
X177952380Y-99095238D01*
%TO.C,D3*%
X165261904Y-123652380D02*
X165261904Y-122652380D01*
X165500000Y-122652380D01*
X165642857Y-122700000D01*
X165738095Y-122795238D01*
X165785714Y-122890476D01*
X165833333Y-123080952D01*
X165833333Y-123223809D01*
X165785714Y-123414285D01*
X165738095Y-123509523D01*
X165642857Y-123604761D01*
X165500000Y-123652380D01*
X165261904Y-123652380D01*
X166166666Y-122652380D02*
X166785714Y-122652380D01*
X166452380Y-123033333D01*
X166595238Y-123033333D01*
X166690476Y-123080952D01*
X166738095Y-123128571D01*
X166785714Y-123223809D01*
X166785714Y-123461904D01*
X166738095Y-123557142D01*
X166690476Y-123604761D01*
X166595238Y-123652380D01*
X166309523Y-123652380D01*
X166214285Y-123604761D01*
X166166666Y-123557142D01*
%TO.C,D2*%
X156361904Y-123652380D02*
X156361904Y-122652380D01*
X156600000Y-122652380D01*
X156742857Y-122700000D01*
X156838095Y-122795238D01*
X156885714Y-122890476D01*
X156933333Y-123080952D01*
X156933333Y-123223809D01*
X156885714Y-123414285D01*
X156838095Y-123509523D01*
X156742857Y-123604761D01*
X156600000Y-123652380D01*
X156361904Y-123652380D01*
X157314285Y-122747619D02*
X157361904Y-122700000D01*
X157457142Y-122652380D01*
X157695238Y-122652380D01*
X157790476Y-122700000D01*
X157838095Y-122747619D01*
X157885714Y-122842857D01*
X157885714Y-122938095D01*
X157838095Y-123080952D01*
X157266666Y-123652380D01*
X157885714Y-123652380D01*
%TO.C,D1*%
X148261904Y-123652380D02*
X148261904Y-122652380D01*
X148500000Y-122652380D01*
X148642857Y-122700000D01*
X148738095Y-122795238D01*
X148785714Y-122890476D01*
X148833333Y-123080952D01*
X148833333Y-123223809D01*
X148785714Y-123414285D01*
X148738095Y-123509523D01*
X148642857Y-123604761D01*
X148500000Y-123652380D01*
X148261904Y-123652380D01*
X149785714Y-123652380D02*
X149214285Y-123652380D01*
X149500000Y-123652380D02*
X149500000Y-122652380D01*
X149404761Y-122795238D01*
X149309523Y-122890476D01*
X149214285Y-122938095D01*
%TO.C,C5*%
X190187142Y-116466666D02*
X190234761Y-116514285D01*
X190282380Y-116657142D01*
X190282380Y-116752380D01*
X190234761Y-116895238D01*
X190139523Y-116990476D01*
X190044285Y-117038095D01*
X189853809Y-117085714D01*
X189710952Y-117085714D01*
X189520476Y-117038095D01*
X189425238Y-116990476D01*
X189330000Y-116895238D01*
X189282380Y-116752380D01*
X189282380Y-116657142D01*
X189330000Y-116514285D01*
X189377619Y-116466666D01*
X189282380Y-115561904D02*
X189282380Y-116038095D01*
X189758571Y-116085714D01*
X189710952Y-116038095D01*
X189663333Y-115942857D01*
X189663333Y-115704761D01*
X189710952Y-115609523D01*
X189758571Y-115561904D01*
X189853809Y-115514285D01*
X190091904Y-115514285D01*
X190187142Y-115561904D01*
X190234761Y-115609523D01*
X190282380Y-115704761D01*
X190282380Y-115942857D01*
X190234761Y-116038095D01*
X190187142Y-116085714D01*
%TO.C,C4*%
X184887142Y-122891666D02*
X184934761Y-122939285D01*
X184982380Y-123082142D01*
X184982380Y-123177380D01*
X184934761Y-123320238D01*
X184839523Y-123415476D01*
X184744285Y-123463095D01*
X184553809Y-123510714D01*
X184410952Y-123510714D01*
X184220476Y-123463095D01*
X184125238Y-123415476D01*
X184030000Y-123320238D01*
X183982380Y-123177380D01*
X183982380Y-123082142D01*
X184030000Y-122939285D01*
X184077619Y-122891666D01*
X184315714Y-122034523D02*
X184982380Y-122034523D01*
X183934761Y-122272619D02*
X184649047Y-122510714D01*
X184649047Y-121891666D01*
%TO.C,C3*%
X181887142Y-122991666D02*
X181934761Y-123039285D01*
X181982380Y-123182142D01*
X181982380Y-123277380D01*
X181934761Y-123420238D01*
X181839523Y-123515476D01*
X181744285Y-123563095D01*
X181553809Y-123610714D01*
X181410952Y-123610714D01*
X181220476Y-123563095D01*
X181125238Y-123515476D01*
X181030000Y-123420238D01*
X180982380Y-123277380D01*
X180982380Y-123182142D01*
X181030000Y-123039285D01*
X181077619Y-122991666D01*
X180982380Y-122658333D02*
X180982380Y-122039285D01*
X181363333Y-122372619D01*
X181363333Y-122229761D01*
X181410952Y-122134523D01*
X181458571Y-122086904D01*
X181553809Y-122039285D01*
X181791904Y-122039285D01*
X181887142Y-122086904D01*
X181934761Y-122134523D01*
X181982380Y-122229761D01*
X181982380Y-122515476D01*
X181934761Y-122610714D01*
X181887142Y-122658333D01*
%TO.C,C2*%
X183033333Y-127387142D02*
X182985714Y-127434761D01*
X182842857Y-127482380D01*
X182747619Y-127482380D01*
X182604761Y-127434761D01*
X182509523Y-127339523D01*
X182461904Y-127244285D01*
X182414285Y-127053809D01*
X182414285Y-126910952D01*
X182461904Y-126720476D01*
X182509523Y-126625238D01*
X182604761Y-126530000D01*
X182747619Y-126482380D01*
X182842857Y-126482380D01*
X182985714Y-126530000D01*
X183033333Y-126577619D01*
X183414285Y-126577619D02*
X183461904Y-126530000D01*
X183557142Y-126482380D01*
X183795238Y-126482380D01*
X183890476Y-126530000D01*
X183938095Y-126577619D01*
X183985714Y-126672857D01*
X183985714Y-126768095D01*
X183938095Y-126910952D01*
X183366666Y-127482380D01*
X183985714Y-127482380D01*
%TO.C,C1*%
X187687142Y-122891666D02*
X187734761Y-122939285D01*
X187782380Y-123082142D01*
X187782380Y-123177380D01*
X187734761Y-123320238D01*
X187639523Y-123415476D01*
X187544285Y-123463095D01*
X187353809Y-123510714D01*
X187210952Y-123510714D01*
X187020476Y-123463095D01*
X186925238Y-123415476D01*
X186830000Y-123320238D01*
X186782380Y-123177380D01*
X186782380Y-123082142D01*
X186830000Y-122939285D01*
X186877619Y-122891666D01*
X187782380Y-121939285D02*
X187782380Y-122510714D01*
X187782380Y-122225000D02*
X186782380Y-122225000D01*
X186925238Y-122320238D01*
X187020476Y-122415476D01*
X187068095Y-122510714D01*
%TD*%
M02*
