%TF.GenerationSoftware,KiCad,Pcbnew,(5.1.10-1-10_14)*%
%TF.CreationDate,2021-09-17T20:59:11-04:00*%
%TF.ProjectId,KilnHat,4b696c6e-4861-4742-9e6b-696361645f70,rev?*%
%TF.SameCoordinates,Original*%
%TF.FileFunction,Soldermask,Bot*%
%TF.FilePolarity,Negative*%
%FSLAX46Y46*%
G04 Gerber Fmt 4.6, Leading zero omitted, Abs format (unit mm)*
G04 Created by KiCad (PCBNEW (5.1.10-1-10_14)) date 2021-09-17 20:59:11*
%MOMM*%
%LPD*%
G01*
G04 APERTURE LIST*
%ADD10C,5.600000*%
%ADD11O,1.700000X1.700000*%
%ADD12R,1.700000X1.700000*%
%ADD13O,1.950000X1.700000*%
%ADD14C,3.000000*%
%ADD15R,3.000000X3.000000*%
G04 APERTURE END LIST*
D10*
%TO.C,REF\u002A\u002A*%
X138500000Y-136500000D03*
%TD*%
%TO.C,REF\u002A\u002A*%
X138500000Y-117500000D03*
%TD*%
%TO.C,REF\u002A\u002A*%
X138500000Y-94500000D03*
%TD*%
%TO.C,REF\u002A\u002A*%
X196500000Y-136500000D03*
%TD*%
%TO.C,REF\u002A\u002A*%
X196500000Y-117500000D03*
%TD*%
%TO.C,REF\u002A\u002A*%
X196500000Y-94500000D03*
%TD*%
D11*
%TO.C,J2*%
X191630000Y-93250000D03*
X191630000Y-95790000D03*
X189090000Y-93250000D03*
X189090000Y-95790000D03*
X186550000Y-93250000D03*
X186550000Y-95790000D03*
X184010000Y-93250000D03*
X184010000Y-95790000D03*
X181470000Y-93250000D03*
X181470000Y-95790000D03*
X178930000Y-93250000D03*
X178930000Y-95790000D03*
X176390000Y-93250000D03*
X176390000Y-95790000D03*
X173850000Y-93250000D03*
X173850000Y-95790000D03*
X171310000Y-93250000D03*
X171310000Y-95790000D03*
X168770000Y-93250000D03*
X168770000Y-95790000D03*
X166230000Y-93250000D03*
X166230000Y-95790000D03*
X163690000Y-93250000D03*
X163690000Y-95790000D03*
X161150000Y-93250000D03*
X161150000Y-95790000D03*
X158610000Y-93250000D03*
X158610000Y-95790000D03*
X156070000Y-93250000D03*
X156070000Y-95790000D03*
X153530000Y-93250000D03*
X153530000Y-95790000D03*
X150990000Y-93250000D03*
X150990000Y-95790000D03*
X148450000Y-93250000D03*
X148450000Y-95790000D03*
X145910000Y-93250000D03*
X145910000Y-95790000D03*
X143370000Y-93250000D03*
D12*
X143370000Y-95790000D03*
%TD*%
D13*
%TO.C,J7*%
X190000000Y-102300000D03*
X190000000Y-104800000D03*
X190000000Y-107300000D03*
G36*
G01*
X190725000Y-110650000D02*
X189275000Y-110650000D01*
G75*
G02*
X189025000Y-110400000I0J250000D01*
G01*
X189025000Y-109200000D01*
G75*
G02*
X189275000Y-108950000I250000J0D01*
G01*
X190725000Y-108950000D01*
G75*
G02*
X190975000Y-109200000I0J-250000D01*
G01*
X190975000Y-110400000D01*
G75*
G02*
X190725000Y-110650000I-250000J0D01*
G01*
G37*
%TD*%
D14*
%TO.C,J3*%
X171700000Y-136100000D03*
X166620000Y-136100000D03*
X161540000Y-136100000D03*
D15*
X146300000Y-136100000D03*
D14*
X156460000Y-136100000D03*
X151380000Y-136100000D03*
%TD*%
D11*
%TO.C,JP1*%
X172600000Y-116020000D03*
X172600000Y-118560000D03*
D12*
X172600000Y-121100000D03*
%TD*%
D13*
%TO.C,J9*%
X137700000Y-109700000D03*
X137700000Y-107200000D03*
X137700000Y-104700000D03*
G36*
G01*
X136975000Y-101350000D02*
X138425000Y-101350000D01*
G75*
G02*
X138675000Y-101600000I0J-250000D01*
G01*
X138675000Y-102800000D01*
G75*
G02*
X138425000Y-103050000I-250000J0D01*
G01*
X136975000Y-103050000D01*
G75*
G02*
X136725000Y-102800000I0J250000D01*
G01*
X136725000Y-101600000D01*
G75*
G02*
X136975000Y-101350000I250000J0D01*
G01*
G37*
%TD*%
%TO.C,J8*%
X182600000Y-102300000D03*
X182600000Y-104800000D03*
X182600000Y-107300000D03*
G36*
G01*
X183325000Y-110650000D02*
X181875000Y-110650000D01*
G75*
G02*
X181625000Y-110400000I0J250000D01*
G01*
X181625000Y-109200000D01*
G75*
G02*
X181875000Y-108950000I250000J0D01*
G01*
X183325000Y-108950000D01*
G75*
G02*
X183575000Y-109200000I0J-250000D01*
G01*
X183575000Y-110400000D01*
G75*
G02*
X183325000Y-110650000I-250000J0D01*
G01*
G37*
%TD*%
%TO.C,J6*%
X197200000Y-102300000D03*
X197200000Y-104800000D03*
X197200000Y-107300000D03*
G36*
G01*
X197925000Y-110650000D02*
X196475000Y-110650000D01*
G75*
G02*
X196225000Y-110400000I0J250000D01*
G01*
X196225000Y-109200000D01*
G75*
G02*
X196475000Y-108950000I250000J0D01*
G01*
X197925000Y-108950000D01*
G75*
G02*
X198175000Y-109200000I0J-250000D01*
G01*
X198175000Y-110400000D01*
G75*
G02*
X197925000Y-110650000I-250000J0D01*
G01*
G37*
%TD*%
D14*
%TO.C,J5*%
X195800000Y-123920000D03*
D15*
X195800000Y-129000000D03*
%TD*%
D14*
%TO.C,J4*%
X139100000Y-129680000D03*
D15*
X139100000Y-124600000D03*
%TD*%
D14*
%TO.C,J1*%
X186280000Y-135900000D03*
D15*
X181200000Y-135900000D03*
%TD*%
M02*
